G04 Layer: BottomLayer*
G04 EasyEDA Pro v2.2.40.3, 2025-08-02 18:00:09*
G04 Gerber Generator version 0.3*
G04 Scale: 100 percent, Rotated: No, Reflected: No*
G04 Dimensions in millimeters*
G04 Leading zeros omitted, absolute positions, 4 integers and 5 decimals*
G04 Generated by one-click*
%FSLAX45Y45*%
%MOMM*%
%ADD10C,0.2032*%
%ADD11C,0.75508*%
%ADD12R,1.5X1.5*%
%ADD13C,1.5*%
%ADD14R,4.79999X1.2*%
%ADD15C,0.6145*%
%ADD16C,0.61*%
%ADD17C,0.254*%
G75*


G04 Copper Start*
G36*
G01X15471286Y-7376014D02*
G01X15471286Y-7993883D01*
G01X15000011Y-7993883D01*
G01X14986567Y-7995398D01*
G01X14973798Y-7999866D01*
G01X14962343Y-8007063D01*
G01X14952777Y-8016629D01*
G01X14945580Y-8028084D01*
G01X14941111Y-8040853D01*
G01X14939597Y-8054297D01*
G01X14939597Y-8174297D01*
G01X14941111Y-8187740D01*
G01X14945580Y-8200509D01*
G01X14952777Y-8211964D01*
G01X14962343Y-8221530D01*
G01X14973798Y-8228728D01*
G01X14986567Y-8233196D01*
G01X15000011Y-8234710D01*
G01X15016198Y-8234710D01*
G01X14731111Y-8519797D01*
G01X14722018Y-8530877D01*
G01X14715262Y-8543517D01*
G01X14711101Y-8557233D01*
G01X14709696Y-8571497D01*
G01X14709696Y-8746062D01*
G01X14700393Y-8761719D01*
G01X14694398Y-8778916D01*
G01X14691950Y-8796963D01*
G01X14693149Y-8815136D01*
G01X14697945Y-8832705D01*
G01X14706147Y-8848965D01*
G01X14717426Y-8863265D01*
G01X14731328Y-8875030D01*
G01X14747296Y-8883787D01*
G01X14764690Y-8889187D01*
G01X14782810Y-8891011D01*
G01X14800931Y-8889187D01*
G01X14818324Y-8883787D01*
G01X14834292Y-8875030D01*
G01X14848195Y-8863265D01*
G01X14859473Y-8848965D01*
G01X14867675Y-8832705D01*
G01X14872472Y-8815136D01*
G01X14873670Y-8796963D01*
G01X14871222Y-8778916D01*
G01X14865227Y-8761719D01*
G01X14855924Y-8746062D01*
G01X14855924Y-8601781D01*
G01X15222995Y-8234710D01*
G01X15471286Y-8234710D01*
G01X15471286Y-8503890D01*
G01X15000011Y-8503890D01*
G01X14986567Y-8505404D01*
G01X14973798Y-8509872D01*
G01X14962343Y-8517070D01*
G01X14952777Y-8526636D01*
G01X14945580Y-8538091D01*
G01X14941111Y-8550860D01*
G01X14939597Y-8564303D01*
G01X14939597Y-8684303D01*
G01X14941111Y-8697747D01*
G01X14945580Y-8710516D01*
G01X14952777Y-8721971D01*
G01X14962343Y-8731537D01*
G01X14973798Y-8738734D01*
G01X14986567Y-8743202D01*
G01X15000011Y-8744717D01*
G01X15471286Y-8744717D01*
G01X15471286Y-9413386D01*
G01X12002367Y-9413386D01*
G01X12023304Y-9405143D01*
G01X12042586Y-9393547D01*
G01X12059683Y-9378918D01*
G01X12074121Y-9361660D01*
G01X12085502Y-9342250D01*
G01X12093511Y-9321223D01*
G01X12097928Y-9299160D01*
G01X12098631Y-9276670D01*
G01X12095600Y-9254374D01*
G01X12088919Y-9232888D01*
G01X12078772Y-9212805D01*
G01X12065440Y-9194679D01*
G01X12049290Y-9179011D01*
G01X12030769Y-9166234D01*
G01X12010388Y-9156700D01*
G01X12030200Y-9147490D01*
G01X12048274Y-9135215D01*
G01X12064138Y-9120192D01*
G01X12077379Y-9102814D01*
G01X13177715Y-9102814D01*
G01X13270493Y-9195591D01*
G01X13274986Y-9213241D01*
G01X13282906Y-9229640D01*
G01X13293937Y-9244132D01*
G01X13307634Y-9256134D01*
G01X13323449Y-9265166D01*
G01X13340747Y-9270864D01*
G01X13358833Y-9273000D01*
G01X13376982Y-9271489D01*
G01X13394466Y-9266390D01*
G01X13410583Y-9257909D01*
G01X13424686Y-9246386D01*
G01X13436209Y-9232283D01*
G01X13444690Y-9216166D01*
G01X13449789Y-9198682D01*
G01X13451300Y-9180533D01*
G01X13449164Y-9162447D01*
G01X13443466Y-9145149D01*
G01X13434434Y-9129334D01*
G01X13422432Y-9115637D01*
G01X13407940Y-9104606D01*
G01X13391541Y-9096686D01*
G01X13373891Y-9092193D01*
G01X13259699Y-8978001D01*
G01X13248620Y-8968908D01*
G01X13235979Y-8962152D01*
G01X13222264Y-8957991D01*
G01X13208000Y-8956586D01*
G01X12994062Y-8956586D01*
G01X12992741Y-8937759D01*
G01X12987561Y-8919610D01*
G01X12978746Y-8902922D01*
G01X12966675Y-8888413D01*
G01X12951868Y-8876710D01*
G01X12934964Y-8868316D01*
G01X12916691Y-8863593D01*
G01X12095695Y-8042596D01*
G01X12098602Y-8021278D01*
G01X12098095Y-7999769D01*
G01X12094189Y-7978611D01*
G01X12086980Y-7958339D01*
G01X12076652Y-7939465D01*
G01X12063465Y-7922465D01*
G01X12047752Y-7907768D01*
G01X12029910Y-7895745D01*
G01X12010388Y-7886700D01*
G01X12030487Y-7877327D01*
G01X12048787Y-7864800D01*
G01X12064796Y-7849454D01*
G01X12078086Y-7831700D01*
G01X12088300Y-7812015D01*
G01X12095164Y-7790928D01*
G01X12098494Y-7769002D01*
G01X12098201Y-7746827D01*
G01X12094292Y-7724998D01*
G01X12086872Y-7704099D01*
G01X12076141Y-7684691D01*
G01X12062386Y-7667295D01*
G01X12045976Y-7652378D01*
G01X12027352Y-7640339D01*
G01X12007012Y-7631501D01*
G01X11985502Y-7626102D01*
G01X11963400Y-7624286D01*
G01X11941298Y-7626102D01*
G01X11919788Y-7631501D01*
G01X11899448Y-7640339D01*
G01X11880824Y-7652378D01*
G01X11864414Y-7667295D01*
G01X11850659Y-7684691D01*
G01X11839928Y-7704099D01*
G01X11832508Y-7724998D01*
G01X11828599Y-7746827D01*
G01X11828306Y-7769002D01*
G01X11831636Y-7790928D01*
G01X11838500Y-7812015D01*
G01X11848714Y-7831700D01*
G01X11862004Y-7849454D01*
G01X11878013Y-7864800D01*
G01X11896313Y-7877327D01*
G01X11916412Y-7886700D01*
G01X11896521Y-7895954D01*
G01X11878385Y-7908299D01*
G01X11862480Y-7923411D01*
G01X11849225Y-7940893D01*
G01X11838966Y-7960285D01*
G01X11831974Y-7981080D01*
G01X11828431Y-8002731D01*
G01X11828431Y-8024669D01*
G01X11831974Y-8046320D01*
G01X11838966Y-8067115D01*
G01X11849225Y-8086507D01*
G01X11862480Y-8103989D01*
G01X11878385Y-8119101D01*
G01X11896521Y-8131446D01*
G01X11916412Y-8140700D01*
G01X11896521Y-8149954D01*
G01X11878385Y-8162299D01*
G01X11862480Y-8177411D01*
G01X11849225Y-8194893D01*
G01X11838966Y-8214285D01*
G01X11831974Y-8235080D01*
G01X11828431Y-8256731D01*
G01X11828431Y-8278669D01*
G01X11831974Y-8300320D01*
G01X11838966Y-8321115D01*
G01X11849225Y-8340507D01*
G01X11862480Y-8357989D01*
G01X11878385Y-8373101D01*
G01X11896521Y-8385446D01*
G01X11916412Y-8394700D01*
G01X11896521Y-8403954D01*
G01X11878385Y-8416299D01*
G01X11862480Y-8431411D01*
G01X11849225Y-8448893D01*
G01X11838966Y-8468285D01*
G01X11831974Y-8489080D01*
G01X11828431Y-8510731D01*
G01X11828431Y-8532669D01*
G01X11831974Y-8554320D01*
G01X11838966Y-8575115D01*
G01X11849225Y-8594507D01*
G01X11862480Y-8611989D01*
G01X11878385Y-8627101D01*
G01X11896521Y-8639446D01*
G01X11916412Y-8648700D01*
G01X11896521Y-8657954D01*
G01X11878385Y-8670299D01*
G01X11862480Y-8685411D01*
G01X11849225Y-8702893D01*
G01X11838966Y-8722285D01*
G01X11831974Y-8743080D01*
G01X11828431Y-8764731D01*
G01X11828431Y-8786669D01*
G01X11831974Y-8808320D01*
G01X11838966Y-8829115D01*
G01X11849225Y-8848507D01*
G01X11862480Y-8865989D01*
G01X11878385Y-8881101D01*
G01X11896521Y-8893446D01*
G01X11916412Y-8902700D01*
G01X11897718Y-8911283D01*
G01X11880539Y-8922598D01*
G01X11865272Y-8936384D01*
G01X11852270Y-8952324D01*
G01X11841832Y-8970050D01*
G01X11834200Y-8989151D01*
G01X11829549Y-9009189D01*
G01X11827986Y-9029700D01*
G01X11829549Y-9050211D01*
G01X11834200Y-9070249D01*
G01X11841832Y-9089350D01*
G01X11852270Y-9107076D01*
G01X11865272Y-9123016D01*
G01X11880539Y-9136802D01*
G01X11897718Y-9148117D01*
G01X11916412Y-9156700D01*
G01X11896031Y-9166234D01*
G01X11877510Y-9179011D01*
G01X11861360Y-9194679D01*
G01X11848028Y-9212805D01*
G01X11837881Y-9232888D01*
G01X11831200Y-9254374D01*
G01X11828169Y-9276670D01*
G01X11828872Y-9299160D01*
G01X11833289Y-9321223D01*
G01X11841298Y-9342250D01*
G01X11852679Y-9361660D01*
G01X11867117Y-9378918D01*
G01X11884214Y-9393547D01*
G01X11903496Y-9405143D01*
G01X11924433Y-9413386D01*
G01X11821014Y-9413386D01*
G01X11821014Y-7580700D01*
G01X11875446Y-7580700D01*
G01X11875446Y-7580700D01*
G01X11877182Y-7587177D01*
G01X11881923Y-7591918D01*
G01X11888400Y-7593654D01*
G01X12038400Y-7593654D01*
G01X12044877Y-7591918D01*
G01X12049618Y-7587177D01*
G01X12051354Y-7580700D01*
G01X12051354Y-7430700D01*
G01X12049618Y-7424223D01*
G01X12044877Y-7419482D01*
G01X12038400Y-7417746D01*
G01X11888400Y-7417746D01*
G01X11881923Y-7419482D01*
G01X11877182Y-7424223D01*
G01X11875446Y-7430700D01*
G01X11875446Y-7580700D01*
G01X11821014Y-7580700D01*
G01X11821014Y-7376014D01*
G01X15471286Y-7376014D01*
G37*
G54D10*
G01X15471286Y-7376014D02*
G01X15471286Y-7993883D01*
G01X15000011Y-7993883D01*
G03X14939597Y-8054297I0J-60414D01*
G01X14939597Y-8174297D01*
G03X15000011Y-8234710I60414J0D01*
G01X15016198Y-8234710D01*
G01X14731111Y-8519797D01*
G03X14709696Y-8571497I51699J-51699D01*
G01X14709696Y-8746062D01*
G03X14782810Y-8891011I73114J-54034D01*
G03X14855924Y-8746062I0J90914D01*
G01X14855924Y-8601781D01*
G01X15222995Y-8234710D01*
G01X15471286Y-8234710D01*
G01X15471286Y-8503890D01*
G01X15000011Y-8503890D01*
G03X14939597Y-8564303I0J-60414D01*
G01X14939597Y-8684303D01*
G03X15000011Y-8744717I60414J0D01*
G01X15471286Y-8744717D01*
G01X15471286Y-9413386D01*
G01X12002367Y-9413386D01*
G03X12010388Y-9156700I-38967J129686D01*
G03X12077379Y-9102814I-46988J127000D01*
G01X13177715Y-9102814D01*
G01X13270493Y-9195591D01*
G03X13424686Y-9246386I89907J13491D01*
G03X13373891Y-9092193I-64286J64286D01*
G01X13259699Y-8978001D01*
G03X13208000Y-8956586I-51699J-51699D01*
G01X12994062Y-8956586D01*
G03X12916691Y-8863593I-90862J3086D01*
G01X12095695Y-8042596D01*
G03X12010388Y-7886700I-132295J28896D01*
G03X11963400Y-7624286I-46988J127000D01*
G03X11916412Y-7886700I0J-135414D01*
G03X11916412Y-8140700I46988J-127000D01*
G03X11916412Y-8394700I46988J-127000D01*
G03X11916412Y-8648700I46988J-127000D01*
G03X11916412Y-8902700I46988J-127000D01*
G03X11827986Y-9029700I46988J-127000D01*
G03X11916412Y-9156700I135414J0D01*
G03X11924433Y-9413386I46988J-127000D01*
G01X11821014Y-9413386D01*
G01X11821014Y-7376014D01*
G01X15471286Y-7376014D01*
G01X11875446Y-7580700D02*
G03X11888400Y-7593654I12954J0D01*
G01X12038400Y-7593654D01*
G03X12051354Y-7580700I0J12954D01*
G01X12051354Y-7430700D01*
G03X12038400Y-7417746I-12954J0D01*
G01X11888400Y-7417746D01*
G03X11875446Y-7430700I0J-12954D01*
G01X11875446Y-7580700D01*
G54D11*
G01X11963400Y-7430954D02*
G01X11963400Y-7427906D01*
G01X11963400Y-7580446D02*
G01X11963400Y-7583494D01*
G01X12038146Y-7505700D02*
G01X12041194Y-7505700D01*
G01X11888654Y-7505700D02*
G01X11885606Y-7505700D01*
G04 Copper End*

G04 Pad Start*
G54D12*
G01X11963400Y-7505700D03*
G54D13*
G01X11963400Y-7759700D03*
G01X11963400Y-8013700D03*
G01X11963400Y-8267700D03*
G01X11963400Y-8521700D03*
G01X11963400Y-8775700D03*
G01X11963400Y-9029700D03*
G01X11963400Y-9283700D03*
G54D14*
G01X15240010Y-8114297D03*
G01X15240010Y-8624303D03*
G04 Pad End*

G04 Via Start*
G54D16*
G01X14782810Y-8800097D03*
G01X13360400Y-9182100D03*
G01X12903200Y-8953500D03*
G04 Via End*

G04 Track Start*
G54D17*
G01X15240010Y-8114297D02*
G01X14782810Y-8571497D01*
G01X14782810Y-8800097D01*
G01X11963400Y-9029700D02*
G01X13208000Y-9029700D01*
G01X13360400Y-9182100D01*
G01X11963400Y-8013700D02*
G01X12903200Y-8953500D01*
G04 Track End*

M02*

