G04 Layer: BottomSilkscreenLayer*
G04 EasyEDA Pro v2.2.40.3, 2025-08-02 18:00:09*
G04 Gerber Generator version 0.3*
G04 Scale: 100 percent, Rotated: No, Reflected: No*
G04 Dimensions in millimeters*
G04 Leading zeros omitted, absolute positions, 4 integers and 5 decimals*
G04 Generated by one-click*
%FSLAX45Y45*%
%MOMM*%
%ADD10C,0.254*%
%ADD11C,0.6533*%
G75*


G04 Image Start*
G36*
G01X13245384Y-7549204D02*
G01X13245384Y-7665091D01*
G01X13212604Y-7664788D01*
G01X13179823Y-7664485D01*
G01X13179546Y-7611317D01*
G01X13179269Y-7558150D01*
G01X13175536Y-7553248D01*
G01X13170952Y-7548238D01*
G01X13165983Y-7544583D01*
G01X13160819Y-7542291D01*
G01X13155653Y-7541371D01*
G01X13150675Y-7541832D01*
G01X13146077Y-7543682D01*
G01X13143979Y-7545130D01*
G01X13142048Y-7546930D01*
G01X13140307Y-7549080D01*
G01X13138781Y-7551584D01*
G01X13136116Y-7556645D01*
G01X13135050Y-7664485D01*
G01X13102293Y-7664788D01*
G01X13069537Y-7665091D01*
G01X13068905Y-7662382D01*
G01X13068465Y-7655004D01*
G01X13068300Y-7639684D01*
G01X13068639Y-7595724D01*
G01X13069611Y-7551504D01*
G01X13070236Y-7535862D01*
G01X13070902Y-7528031D01*
G01X13072907Y-7520895D01*
G01X13075665Y-7513518D01*
G01X13078676Y-7507098D01*
G01X13081438Y-7502835D01*
G01X13085180Y-7497849D01*
G01X13086713Y-7496026D01*
G01X13088136Y-7495268D01*
G01X13089480Y-7494758D01*
G01X13090820Y-7493533D01*
G01X13093815Y-7490403D01*
G01X13097510Y-7487790D01*
G01X13101815Y-7485687D01*
G01X13106642Y-7484085D01*
G01X13111902Y-7482976D01*
G01X13117506Y-7482352D01*
G01X13123365Y-7482204D01*
G01X13129390Y-7482526D01*
G01X13135492Y-7483308D01*
G01X13141582Y-7484543D01*
G01X13147571Y-7486223D01*
G01X13153371Y-7488339D01*
G01X13158892Y-7490883D01*
G01X13164046Y-7493847D01*
G01X13168743Y-7497224D01*
G01X13172894Y-7501004D01*
G01X13176316Y-7504245D01*
G01X13178311Y-7505593D01*
G01X13178706Y-7502926D01*
G01X13179016Y-7495469D01*
G01X13179290Y-7469455D01*
G01X13179290Y-7433317D01*
G01X13245384Y-7433317D01*
G01X13245384Y-7549204D01*
G37*
G36*
G01X13351220Y-7666343D02*
G01X13348710Y-7667140D01*
G01X13343564Y-7667521D01*
G01X13328319Y-7667203D01*
G01X13311390Y-7665719D01*
G01X13304141Y-7664644D01*
G01X13298686Y-7663401D01*
G01X13284295Y-7659097D01*
G01X13282038Y-7658400D01*
G01X13280345Y-7657522D01*
G01X13279132Y-7656082D01*
G01X13278318Y-7653695D01*
G01X13277821Y-7649981D01*
G01X13277557Y-7644556D01*
G01X13277404Y-7627043D01*
G01X13277427Y-7609325D01*
G01X13277678Y-7604138D01*
G01X13278241Y-7600933D01*
G01X13279231Y-7599357D01*
G01X13280760Y-7599060D01*
G01X13282943Y-7599691D01*
G01X13285894Y-7600899D01*
G01X13298300Y-7605361D01*
G01X13303838Y-7606806D01*
G01X13309347Y-7607851D01*
G01X13316495Y-7608358D01*
G01X13324922Y-7608198D01*
G01X13332108Y-7607509D01*
G01X13334448Y-7607009D01*
G01X13335535Y-7606427D01*
G01X13336522Y-7605703D01*
G01X13338071Y-7605402D01*
G01X13340141Y-7605154D01*
G01X13342250Y-7604441D01*
G01X13346467Y-7601796D01*
G01X13350496Y-7597828D01*
G01X13354111Y-7592898D01*
G01X13357083Y-7587365D01*
G01X13359187Y-7581589D01*
G01X13360197Y-7575930D01*
G01X13359884Y-7570749D01*
G01X13358806Y-7565447D01*
G01X13357667Y-7561414D01*
G01X13355715Y-7557689D01*
G01X13353028Y-7554288D01*
G01X13349685Y-7551232D01*
G01X13345765Y-7548538D01*
G01X13341348Y-7546227D01*
G01X13336512Y-7544317D01*
G01X13331336Y-7542827D01*
G01X13325900Y-7541776D01*
G01X13320283Y-7541182D01*
G01X13314563Y-7541065D01*
G01X13308820Y-7541444D01*
G01X13303132Y-7542338D01*
G01X13297579Y-7543765D01*
G01X13292240Y-7545744D01*
G01X13287194Y-7548295D01*
G01X13284578Y-7549804D01*
G01X13282633Y-7550614D01*
G01X13281261Y-7550373D01*
G01X13280361Y-7548732D01*
G01X13279834Y-7545338D01*
G01X13279581Y-7539842D01*
G01X13279498Y-7521134D01*
G01X13279498Y-7491934D01*
G01X13282962Y-7490284D01*
G01X13288833Y-7488112D01*
G01X13296565Y-7486160D01*
G01X13305564Y-7484494D01*
G01X13315237Y-7483182D01*
G01X13324989Y-7482291D01*
G01X13334228Y-7481888D01*
G01X13342360Y-7482041D01*
G01X13348790Y-7482818D01*
G01X13363106Y-7486044D01*
G01X13372403Y-7489150D01*
G01X13381438Y-7493413D01*
G01X13389734Y-7498741D01*
G01X13397264Y-7505031D01*
G01X13403996Y-7512179D01*
G01X13409901Y-7520081D01*
G01X13414950Y-7528633D01*
G01X13419112Y-7537732D01*
G01X13422360Y-7547273D01*
G01X13424661Y-7557154D01*
G01X13425988Y-7567270D01*
G01X13426310Y-7577518D01*
G01X13425598Y-7587794D01*
G01X13423822Y-7597993D01*
G01X13420952Y-7608014D01*
G01X13416959Y-7617751D01*
G01X13411814Y-7627101D01*
G01X13407638Y-7632792D01*
G01X13402140Y-7639238D01*
G01X13397055Y-7644516D01*
G01X13395210Y-7646116D01*
G01X13394120Y-7646702D01*
G01X13392477Y-7647581D01*
G01X13390285Y-7649692D01*
G01X13388304Y-7651613D01*
G01X13385973Y-7653318D01*
G01X13383632Y-7654590D01*
G01X13381624Y-7655211D01*
G01X13379545Y-7656741D01*
G01X13378050Y-7657753D01*
G01X13376326Y-7658175D01*
G01X13373879Y-7658849D01*
G01X13370644Y-7660469D01*
G01X13367051Y-7662090D01*
G01X13363745Y-7662764D01*
G01X13361360Y-7663101D01*
G01X13359983Y-7663911D01*
G01X13358503Y-7664721D01*
G01X13355869Y-7665058D01*
G01X13353078Y-7665436D01*
G01X13351220Y-7666343D01*
G37*
G36*
G01X13542833Y-7666046D02*
G01X13532709Y-7667017D01*
G01X13522455Y-7667290D01*
G01X13512510Y-7666869D01*
G01X13503314Y-7665757D01*
G01X13495306Y-7663957D01*
G01X13488928Y-7661472D01*
G01X13485197Y-7660058D01*
G01X13481490Y-7658654D01*
G01X13476378Y-7655748D01*
G01X13464283Y-7647239D01*
G01X13458470Y-7642542D01*
G01X13453596Y-7638151D01*
G01X13450244Y-7634520D01*
G01X13449322Y-7633131D01*
G01X13449000Y-7632101D01*
G01X13452732Y-7623250D01*
G01X13455364Y-7617236D01*
G01X13456459Y-7613962D01*
G01X13456961Y-7611896D01*
G01X13458154Y-7609021D01*
G01X13459575Y-7606327D01*
G01X13460757Y-7604806D01*
G01X13462831Y-7605062D01*
G01X13466383Y-7606475D01*
G01X13469911Y-7608349D01*
G01X13471913Y-7609984D01*
G01X13474111Y-7611639D01*
G01X13478324Y-7613943D01*
G01X13482751Y-7615990D01*
G01X13485594Y-7616874D01*
G01X13486848Y-7617150D01*
G01X13487961Y-7617812D01*
G01X13491631Y-7620433D01*
G01X13496013Y-7622268D01*
G01X13500976Y-7623366D01*
G01X13506389Y-7623773D01*
G01X13512121Y-7623537D01*
G01X13518041Y-7622706D01*
G01X13524018Y-7621327D01*
G01X13529922Y-7619447D01*
G01X13535621Y-7617115D01*
G01X13540985Y-7614378D01*
G01X13545883Y-7611282D01*
G01X13550184Y-7607877D01*
G01X13553756Y-7604208D01*
G01X13556471Y-7600324D01*
G01X13558195Y-7596273D01*
G01X13558799Y-7592101D01*
G01X13558799Y-7589341D01*
G01X13512693Y-7589159D01*
G01X13460040Y-7589202D01*
G01X13456676Y-7588668D01*
G01X13453881Y-7586907D01*
G01X13451694Y-7584060D01*
G01X13450153Y-7580263D01*
G01X13449300Y-7575657D01*
G01X13449173Y-7570380D01*
G01X13449812Y-7564570D01*
G01X13450588Y-7561234D01*
G01X13506030Y-7561234D01*
G01X13561464Y-7561234D01*
G01X13561818Y-7557223D01*
G01X13561952Y-7552530D01*
G01X13561536Y-7548056D01*
G01X13560610Y-7543831D01*
G01X13559214Y-7539888D01*
G01X13557388Y-7536255D01*
G01X13555173Y-7532964D01*
G01X13552608Y-7530046D01*
G01X13549734Y-7527531D01*
G01X13546591Y-7525450D01*
G01X13543219Y-7523833D01*
G01X13539657Y-7522712D01*
G01X13535947Y-7522116D01*
G01X13532129Y-7522077D01*
G01X13528241Y-7522625D01*
G01X13524326Y-7523790D01*
G01X13520422Y-7525604D01*
G01X13517283Y-7527719D01*
G01X13514513Y-7530378D01*
G01X13512121Y-7533561D01*
G01X13510116Y-7537250D01*
G01X13508507Y-7541422D01*
G01X13507304Y-7546059D01*
G01X13507304Y-7546059D01*
G01X13506515Y-7551140D01*
G01X13506150Y-7556645D01*
G01X13506030Y-7561234D01*
G01X13450588Y-7561234D01*
G01X13451256Y-7558366D01*
G01X13452579Y-7551814D01*
G01X13454098Y-7544203D01*
G01X13456591Y-7536710D01*
G01X13459966Y-7529405D01*
G01X13464134Y-7522354D01*
G01X13469005Y-7515628D01*
G01X13474490Y-7509293D01*
G01X13480499Y-7503420D01*
G01X13486941Y-7498076D01*
G01X13493728Y-7493329D01*
G01X13500770Y-7489248D01*
G01X13507977Y-7485902D01*
G01X13515258Y-7483359D01*
G01X13522525Y-7481687D01*
G01X13529688Y-7480955D01*
G01X13536657Y-7481231D01*
G01X13543341Y-7482584D01*
G01X13546912Y-7483288D01*
G01X13551007Y-7483660D01*
G01X13554330Y-7484047D01*
G01X13556045Y-7484788D01*
G01X13557564Y-7485684D01*
G01X13560417Y-7486445D01*
G01X13565033Y-7487547D01*
G01X13569667Y-7489222D01*
G01X13574286Y-7491434D01*
G01X13578858Y-7494147D01*
G01X13583352Y-7497323D01*
G01X13587735Y-7500927D01*
G01X13596040Y-7509271D01*
G01X13603516Y-7518886D01*
G01X13609906Y-7529479D01*
G01X13612614Y-7535051D01*
G01X13614953Y-7540758D01*
G01X13616893Y-7546564D01*
G01X13618401Y-7552431D01*
G01X13619438Y-7558588D01*
G01X13620118Y-7565570D01*
G01X13620448Y-7580252D01*
G01X13620119Y-7587073D01*
G01X13619475Y-7592961D01*
G01X13618525Y-7597477D01*
G01X13617280Y-7600182D01*
G01X13616634Y-7601707D01*
G01X13616365Y-7603843D01*
G01X13616052Y-7605867D01*
G01X13615299Y-7607123D01*
G01X13614546Y-7608405D01*
G01X13614233Y-7610492D01*
G01X13613770Y-7612784D01*
G01X13612658Y-7614558D01*
G01X13610713Y-7617383D01*
G01X13608249Y-7622200D01*
G01X13604999Y-7628037D01*
G01X13600603Y-7633952D01*
G01X13595253Y-7639783D01*
G01X13589140Y-7645367D01*
G01X13582459Y-7650543D01*
G01X13575402Y-7655148D01*
G01X13568162Y-7659021D01*
G01X13560931Y-7661998D01*
G01X13552387Y-7664374D01*
G01X13542833Y-7666046D01*
G37*
G36*
G01X13750877Y-7663731D02*
G01X13749745Y-7664187D01*
G01X13744584Y-7664737D01*
G01X13713374Y-7664788D01*
G01X13676596Y-7664485D01*
G01X13676323Y-7578155D01*
G01X13676049Y-7491826D01*
G01X13643672Y-7491826D01*
G01X13621639Y-7491901D01*
G01X13615375Y-7491251D01*
G01X13613185Y-7490537D01*
G01X13611531Y-7489481D01*
G01X13610341Y-7488020D01*
G01X13609547Y-7486094D01*
G01X13608862Y-7480597D01*
G01X13609149Y-7461282D01*
G01X13609436Y-7433891D01*
G01X13818948Y-7433306D01*
G01X13818379Y-7491253D01*
G01X13785598Y-7491556D01*
G01X13752817Y-7491859D01*
G01X13752817Y-7576519D01*
G01X13752540Y-7643975D01*
G01X13752131Y-7658228D01*
G01X13751485Y-7663135D01*
G01X13750877Y-7663731D01*
G37*
G36*
G01X13900307Y-7662791D02*
G01X13892575Y-7666108D01*
G01X13887060Y-7667357D01*
G01X13880314Y-7667915D01*
G01X13872907Y-7667848D01*
G01X13865407Y-7667226D01*
G01X13858382Y-7666116D01*
G01X13852402Y-7664585D01*
G01X13848035Y-7662702D01*
G01X13846634Y-7661650D01*
G01X13845850Y-7660535D01*
G01X13843300Y-7654462D01*
G01X13842364Y-7651294D01*
G01X13840321Y-7645256D01*
G01X13835923Y-7632936D01*
G01X13832739Y-7624331D01*
G01X13831121Y-7621249D01*
G01X13831067Y-7620085D01*
G01X13831531Y-7619154D01*
G01X13832524Y-7618445D01*
G01X13834058Y-7617945D01*
G01X13838792Y-7617522D01*
G01X13844039Y-7617361D01*
G01X13846157Y-7617044D01*
G01X13847973Y-7616423D01*
G01X13849510Y-7615386D01*
G01X13850793Y-7613826D01*
G01X13851848Y-7611630D01*
G01X13852699Y-7608691D01*
G01X13853889Y-7600138D01*
G01X13854563Y-7587287D01*
G01X13855157Y-7545172D01*
G01X13855690Y-7485516D01*
G01X13920718Y-7485516D01*
G01X13920995Y-7539009D01*
G01X13921272Y-7592501D01*
G01X13926902Y-7598707D01*
G01X13931991Y-7603477D01*
G01X13937225Y-7606836D01*
G01X13942459Y-7608788D01*
G01X13947546Y-7609339D01*
G01X13952342Y-7608492D01*
G01X13956701Y-7606252D01*
G01X13960478Y-7602623D01*
G01X13963526Y-7597609D01*
G01X13964607Y-7593823D01*
G01X13965267Y-7585588D01*
G01X13966024Y-7539436D01*
G01X13966557Y-7485516D01*
G01X13998612Y-7485213D01*
G01X14021464Y-7485228D01*
G01X14031393Y-7485691D01*
G01X14031761Y-7490815D01*
G01X14031996Y-7503655D01*
G01X14032096Y-7542928D01*
G01X14031750Y-7584413D01*
G01X14031016Y-7609009D01*
G01X14029812Y-7617977D01*
G01X14027943Y-7626363D01*
G01X14025452Y-7634082D01*
G01X14022383Y-7641047D01*
G01X14018780Y-7647173D01*
G01X14014686Y-7652373D01*
G01X14010145Y-7656563D01*
G01X14005201Y-7659656D01*
G01X13995372Y-7664278D01*
G01X13989109Y-7666319D01*
G01X13985835Y-7666882D01*
G01X13981565Y-7667182D01*
G01X13971410Y-7667064D01*
G01X13961402Y-7666112D01*
G01X13957315Y-7665369D01*
G01X13954298Y-7664472D01*
G01X13943252Y-7659309D01*
G01X13939336Y-7657006D01*
G01X13937221Y-7655280D01*
G01X13935907Y-7654084D01*
G01X13934584Y-7653586D01*
G01X13931609Y-7651395D01*
G01X13926325Y-7646129D01*
G01X13921558Y-7641052D01*
G01X13920070Y-7639775D01*
G01X13918958Y-7639334D01*
G01X13918058Y-7639724D01*
G01X13917204Y-7640942D01*
G01X13914978Y-7645842D01*
G01X13911069Y-7653055D01*
G01X13908829Y-7656001D01*
G01X13906325Y-7658573D01*
G01X13903503Y-7660819D01*
G01X13900307Y-7662791D01*
G37*
G36*
G01X14200487Y-7664124D02*
G01X14197053Y-7665355D01*
G01X14189038Y-7666987D01*
G01X14179835Y-7667545D01*
G01X14169851Y-7667068D01*
G01X14159494Y-7665596D01*
G01X14149173Y-7663166D01*
G01X14139295Y-7659820D01*
G01X14130268Y-7655594D01*
G01X14122348Y-7651242D01*
G01X14119075Y-7654633D01*
G01X14115516Y-7657892D01*
G01X14111602Y-7660627D01*
G01X14107267Y-7662857D01*
G01X14102444Y-7664602D01*
G01X14097066Y-7665882D01*
G01X14091067Y-7666717D01*
G01X14084380Y-7667127D01*
G01X14076938Y-7667131D01*
G01X14062593Y-7666779D01*
G01X14060578Y-7658748D01*
G01X14058053Y-7647850D01*
G01X14056638Y-7642687D01*
G01X14053343Y-7630004D01*
G01X14051907Y-7622996D01*
G01X14051740Y-7621510D01*
G01X14130997Y-7621510D01*
G01X14131223Y-7625496D01*
G01X14131838Y-7628365D01*
G01X14132959Y-7630449D01*
G01X14134703Y-7632083D01*
G01X14140530Y-7635337D01*
G01X14145879Y-7637565D01*
G01X14145879Y-7637565D01*
G01X14151588Y-7639061D01*
G01X14157327Y-7639841D01*
G01X14162766Y-7639923D01*
G01X14167578Y-7639324D01*
G01X14171433Y-7638059D01*
G01X14174001Y-7636145D01*
G01X14174700Y-7634950D01*
G01X14174954Y-7633600D01*
G01X14175432Y-7632297D01*
G01X14176561Y-7630648D01*
G01X14178139Y-7628462D01*
G01X14179259Y-7626219D01*
G01X14179929Y-7623932D01*
G01X14180160Y-7621615D01*
G01X14179960Y-7619281D01*
G01X14179339Y-7616942D01*
G01X14176872Y-7612307D01*
G01X14172834Y-7607814D01*
G01X14167300Y-7603570D01*
G01X14160346Y-7599680D01*
G01X14152048Y-7596251D01*
G01X14141951Y-7592481D01*
G01X14137136Y-7590301D01*
G01X14135670Y-7589064D01*
G01X14134479Y-7588634D01*
G01X14133530Y-7589114D01*
G01X14132789Y-7590611D01*
G01X14131799Y-7597069D01*
G01X14131244Y-7608844D01*
G01X14130997Y-7621510D01*
G01X14051740Y-7621510D01*
G01X14051534Y-7619690D01*
G01X14058760Y-7617709D01*
G01X14062535Y-7616861D01*
G01X14065350Y-7615796D01*
G01X14067355Y-7613911D01*
G01X14068706Y-7610607D01*
G01X14069555Y-7605283D01*
G01X14070055Y-7597340D01*
G01X14070621Y-7571191D01*
G01X14071136Y-7547310D01*
G01X14071981Y-7533313D01*
G01X14072684Y-7528622D01*
G01X14073657Y-7524723D01*
G01X14076663Y-7517065D01*
G01X14079216Y-7512529D01*
G01X14082854Y-7507729D01*
G01X14087267Y-7502933D01*
G01X14092141Y-7498409D01*
G01X14097167Y-7494425D01*
G01X14102033Y-7491248D01*
G01X14106427Y-7489145D01*
G01X14110038Y-7488385D01*
G01X14111447Y-7488144D01*
G01X14112478Y-7487564D01*
G01X14114852Y-7486407D01*
G01X14119411Y-7485341D01*
G01X14132944Y-7483657D01*
G01X14148802Y-7482874D01*
G01X14156267Y-7482931D01*
G01X14162708Y-7483348D01*
G01X14169086Y-7484476D01*
G01X14180831Y-7487872D01*
G01X14189556Y-7491132D01*
G01X14203750Y-7497895D01*
G01X14207437Y-7500269D01*
G01X14212557Y-7504125D01*
G01X14217156Y-7507592D01*
G01X14219588Y-7509035D01*
G01X14220882Y-7509250D01*
G01X14221900Y-7510037D01*
G01X14222675Y-7511608D01*
G01X14223239Y-7514176D01*
G01X14223856Y-7523153D01*
G01X14224005Y-7538666D01*
G01X14223886Y-7554403D01*
G01X14223287Y-7562344D01*
G01X14222696Y-7563935D01*
G01X14221849Y-7564231D01*
G01X14220701Y-7563449D01*
G01X14219208Y-7561807D01*
G01X14217473Y-7560187D01*
G01X14214547Y-7558839D01*
G01X14212812Y-7557218D01*
G01X14211131Y-7555598D01*
G01X14209799Y-7554924D01*
G01X14208467Y-7554372D01*
G01X14206785Y-7553044D01*
G01X14203446Y-7550554D01*
G01X14197917Y-7547203D01*
G01X14184029Y-7540054D01*
G01X14176790Y-7537428D01*
G01X14169126Y-7535860D01*
G01X14161387Y-7535307D01*
G01X14153926Y-7535725D01*
G01X14147094Y-7537071D01*
G01X14141242Y-7539301D01*
G01X14138794Y-7540734D01*
G01X14136723Y-7542372D01*
G01X14135073Y-7544210D01*
G01X14133888Y-7546241D01*
G01X14132627Y-7550080D01*
G01X14132525Y-7553482D01*
G01X14133693Y-7556540D01*
G01X14136243Y-7559345D01*
G01X14140287Y-7561991D01*
G01X14145937Y-7564569D01*
G01X14153304Y-7567173D01*
G01X14162501Y-7569895D01*
G01X14186569Y-7577103D01*
G01X14194718Y-7580115D01*
G01X14201381Y-7583107D01*
G01X14207520Y-7585899D01*
G01X14209088Y-7586173D01*
G01X14210762Y-7586960D01*
G01X14214314Y-7589875D01*
G01X14217949Y-7594245D01*
G01X14221437Y-7599670D01*
G01X14224549Y-7605752D01*
G01X14227055Y-7612090D01*
G01X14228727Y-7618285D01*
G01X14229335Y-7623937D01*
G01X14228794Y-7629845D01*
G01X14227293Y-7636002D01*
G01X14225012Y-7642091D01*
G01X14222136Y-7647795D01*
G01X14218846Y-7652799D01*
G01X14215324Y-7656785D01*
G01X14211752Y-7659438D01*
G01X14210005Y-7660165D01*
G01X14208313Y-7660441D01*
G01X14206355Y-7661090D01*
G01X14203471Y-7662610D01*
G01X14200487Y-7664124D01*
G37*
G36*
G01X14386050Y-7663781D02*
G01X14385076Y-7664202D01*
G01X14380446Y-7664751D01*
G01X14353488Y-7665058D01*
G01X14321162Y-7665058D01*
G01X14320751Y-7625192D01*
G01X14320280Y-7599356D01*
G01X14319216Y-7583819D01*
G01X14318314Y-7578783D01*
G01X14317087Y-7574968D01*
G01X14315475Y-7571921D01*
G01X14313419Y-7569190D01*
G01X14311420Y-7565983D01*
G01X14310761Y-7564126D01*
G01X14308961Y-7562011D01*
G01X14306281Y-7559794D01*
G01X14302984Y-7557630D01*
G01X14295595Y-7554088D01*
G01X14292027Y-7553020D01*
G01X14288895Y-7552629D01*
G01X14286370Y-7552998D01*
G01X14283159Y-7554007D01*
G01X14275791Y-7557357D01*
G01X14269010Y-7561501D01*
G01X14266535Y-7563504D01*
G01X14265039Y-7565264D01*
G01X14263798Y-7566384D01*
G01X14262334Y-7565986D01*
G01X14260750Y-7564148D01*
G01X14259153Y-7560947D01*
G01X14256003Y-7553203D01*
G01X14251797Y-7543288D01*
G01X14245251Y-7526407D01*
G01X14241062Y-7516492D01*
G01X14236807Y-7506430D01*
G01X14234902Y-7501252D01*
G01X14234162Y-7497383D01*
G01X14234594Y-7494959D01*
G01X14235252Y-7494333D01*
G01X14236206Y-7494121D01*
G01X14237557Y-7493648D01*
G01X14238843Y-7492512D01*
G01X14240567Y-7491149D01*
G01X14242971Y-7490130D01*
G01X14249057Y-7487857D01*
G01X14253474Y-7485921D01*
G01X14257426Y-7484562D01*
G01X14266990Y-7482693D01*
G01X14275518Y-7481629D01*
G01X14281038Y-7482806D01*
G01X14287012Y-7484539D01*
G01X14292936Y-7487331D01*
G01X14298715Y-7491094D01*
G01X14304255Y-7495738D01*
G01X14309460Y-7501174D01*
G01X14314235Y-7507313D01*
G01X14318486Y-7514067D01*
G01X14322117Y-7521345D01*
G01X14324571Y-7526044D01*
G01X14325412Y-7526560D01*
G01X14326043Y-7525716D01*
G01X14326815Y-7519540D01*
G01X14327170Y-7506696D01*
G01X14327699Y-7491202D01*
G01X14328156Y-7487398D01*
G01X14328769Y-7485871D01*
G01X14331810Y-7485382D01*
G01X14338433Y-7485067D01*
G01X14357598Y-7484924D01*
G01X14376614Y-7485367D01*
G01X14383050Y-7485784D01*
G01X14385829Y-7486320D01*
G01X14386301Y-7494187D01*
G01X14386688Y-7514052D01*
G01X14387155Y-7573922D01*
G01X14387117Y-7634222D01*
G01X14386874Y-7654624D01*
G01X14386461Y-7663243D01*
G01X14386050Y-7663781D01*
G37*
G36*
G01X14456810Y-7666079D02*
G01X14453550Y-7666670D01*
G01X14448840Y-7667082D01*
G01X14437315Y-7667375D01*
G01X14426721Y-7666981D01*
G01X14423174Y-7666532D01*
G01X14421543Y-7665919D01*
G01X14420096Y-7661536D01*
G01X14418030Y-7653012D01*
G01X14416000Y-7644590D01*
G01X14414641Y-7640450D01*
G01X14414018Y-7638624D01*
G01X14413759Y-7635766D01*
G01X14413535Y-7632986D01*
G01X14412997Y-7631350D01*
G01X14412109Y-7629184D01*
G01X14410997Y-7625248D01*
G01X14410129Y-7621382D01*
G01X14409972Y-7619427D01*
G01X14416540Y-7617913D01*
G01X14420703Y-7617054D01*
G01X14423827Y-7615890D01*
G01X14426075Y-7613827D01*
G01X14427000Y-7611680D01*
G01X14490132Y-7611680D01*
G01X14490557Y-7624456D01*
G01X14490968Y-7628641D01*
G01X14491501Y-7630352D01*
G01X14495311Y-7632970D01*
G01X14498716Y-7635382D01*
G01X14503061Y-7637325D01*
G01X14508017Y-7638763D01*
G01X14508017Y-7638763D01*
G01X14513257Y-7639658D01*
G01X14518452Y-7639971D01*
G01X14523273Y-7639664D01*
G01X14527391Y-7638699D01*
G01X14530478Y-7637039D01*
G01X14532734Y-7634790D01*
G01X14534478Y-7632219D01*
G01X14535734Y-7629391D01*
G01X14536523Y-7626370D01*
G01X14536866Y-7623221D01*
G01X14536786Y-7620007D01*
G01X14536304Y-7616794D01*
G01X14535442Y-7613645D01*
G01X14534222Y-7610626D01*
G01X14532665Y-7607800D01*
G01X14530794Y-7605233D01*
G01X14528629Y-7602988D01*
G01X14526193Y-7601129D01*
G01X14523507Y-7599722D01*
G01X14520594Y-7598830D01*
G01X14517474Y-7598519D01*
G01X14514219Y-7597483D01*
G01X14507571Y-7594989D01*
G01X14503885Y-7593681D01*
G01X14501761Y-7592583D01*
G01X14500363Y-7591914D01*
G01X14498426Y-7591635D01*
G01X14496397Y-7591130D01*
G01X14494778Y-7589915D01*
G01X14493600Y-7588715D01*
G01X14492541Y-7588263D01*
G01X14491677Y-7588565D01*
G01X14491086Y-7589628D01*
G01X14490603Y-7592818D01*
G01X14490288Y-7598059D01*
G01X14490132Y-7611680D01*
G01X14427000Y-7611680D01*
G01X14427607Y-7610273D01*
G01X14428587Y-7604632D01*
G01X14429176Y-7596313D01*
G01X14429831Y-7569264D01*
G01X14430278Y-7547258D01*
G01X14430792Y-7534709D01*
G01X14431639Y-7527822D01*
G01X14433084Y-7522801D01*
G01X14435767Y-7516678D01*
G01X14439508Y-7509903D01*
G01X14443144Y-7504413D01*
G01X14444557Y-7502755D01*
G01X14445508Y-7502146D01*
G01X14446988Y-7501217D01*
G01X14449472Y-7498991D01*
G01X14453555Y-7495808D01*
G01X14459158Y-7492331D01*
G01X14464575Y-7489533D01*
G01X14468099Y-7488385D01*
G01X14469608Y-7488132D01*
G01X14470703Y-7487525D01*
G01X14473080Y-7486416D01*
G01X14477727Y-7485379D01*
G01X14491518Y-7483714D01*
G01X14507450Y-7482914D01*
G01X14514773Y-7482958D01*
G01X14520896Y-7483362D01*
G01X14533796Y-7486108D01*
G01X14540930Y-7488038D01*
G01X14545415Y-7489556D01*
G01X14552877Y-7492976D01*
G01X14563384Y-7498202D01*
G01X14566262Y-7500035D01*
G01X14567269Y-7501184D01*
G01X14567690Y-7501867D01*
G01X14568702Y-7502151D01*
G01X14570282Y-7502825D01*
G01X14572066Y-7504446D01*
G01X14573710Y-7506066D01*
G01X14574953Y-7506740D01*
G01X14576709Y-7507667D01*
G01X14579585Y-7509895D01*
G01X14583259Y-7513050D01*
G01X14583259Y-7538038D01*
G01X14583101Y-7554437D01*
G01X14582803Y-7559403D01*
G01X14582271Y-7562511D01*
G01X14581439Y-7563983D01*
G01X14580240Y-7564041D01*
G01X14578607Y-7562910D01*
G01X14576475Y-7560812D01*
G01X14573704Y-7558274D01*
G01X14571879Y-7557218D01*
G01X14570671Y-7556707D01*
G01X14569384Y-7555476D01*
G01X14567304Y-7553690D01*
G01X14564190Y-7551842D01*
G01X14558524Y-7548293D01*
G01X14555639Y-7546217D01*
G01X14551593Y-7543871D01*
G01X14547687Y-7541952D01*
G01X14545220Y-7541157D01*
G01X14541936Y-7540122D01*
G01X14538673Y-7538537D01*
G01X14535166Y-7537269D01*
G01X14527643Y-7535652D01*
G01X14519816Y-7535199D01*
G01X14512131Y-7535841D01*
G01X14505036Y-7537508D01*
G01X14498978Y-7540130D01*
G01X14496479Y-7541777D01*
G01X14494406Y-7543637D01*
G01X14492816Y-7545701D01*
G01X14491766Y-7547959D01*
G01X14491035Y-7550720D01*
G01X14490768Y-7553127D01*
G01X14490990Y-7555221D01*
G01X14491724Y-7557041D01*
G01X14492992Y-7558628D01*
G01X14494819Y-7560021D01*
G01X14500243Y-7562386D01*
G01X14505971Y-7564669D01*
G01X14515706Y-7568129D01*
G01X14529424Y-7572161D01*
G01X14540100Y-7575266D01*
G01X14549662Y-7578605D01*
G01X14558097Y-7582171D01*
G01X14565391Y-7585954D01*
G01X14571530Y-7589947D01*
G01X14576501Y-7594142D01*
G01X14580290Y-7598532D01*
G01X14582884Y-7603108D01*
G01X14586813Y-7613174D01*
G01X14587717Y-7616679D01*
G01X14588244Y-7620217D01*
G01X14588167Y-7626240D01*
G01X14587128Y-7633392D01*
G01X14585508Y-7639740D01*
G01X14584599Y-7642010D01*
G01X14583688Y-7643354D01*
G01X14582632Y-7644718D01*
G01X14582193Y-7646123D01*
G01X14580837Y-7648443D01*
G01X14577575Y-7652006D01*
G01X14572173Y-7656987D01*
G01X14567974Y-7660319D01*
G01X14564714Y-7662183D01*
G01X14562130Y-7662764D01*
G01X14560516Y-7663005D01*
G01X14559399Y-7663584D01*
G01X14557982Y-7664540D01*
G01X14555736Y-7665334D01*
G01X14549216Y-7666452D01*
G01X14540761Y-7666970D01*
G01X14531293Y-7666918D01*
G01X14521732Y-7666329D01*
G01X14513000Y-7665232D01*
G01X14506018Y-7663659D01*
G01X14503471Y-7662704D01*
G01X14501707Y-7661641D01*
G01X14497976Y-7659899D01*
G01X14490293Y-7656575D01*
G01X14487119Y-7654677D01*
G01X14485228Y-7653069D01*
G01X14483532Y-7651632D01*
G01X14481599Y-7651519D01*
G01X14479322Y-7652760D01*
G01X14476598Y-7655382D01*
G01X14473086Y-7658634D01*
G01X14468733Y-7661438D01*
G01X14463366Y-7663888D01*
G01X14456810Y-7666079D01*
G37*
G36*
G01X14887752Y-7663786D02*
G01X14885065Y-7664365D01*
G01X14878236Y-7664716D01*
G01X14850174Y-7664787D01*
G01X14814056Y-7664485D01*
G01X14814454Y-7603394D01*
G01X14814525Y-7560250D01*
G01X14814137Y-7542304D01*
G01X14812768Y-7543283D01*
G01X14810796Y-7545541D01*
G01X14809016Y-7548063D01*
G01X14808226Y-7549834D01*
G01X14807263Y-7551663D01*
G01X14804994Y-7554350D01*
G01X14802736Y-7556963D01*
G01X14801796Y-7558613D01*
G01X14800231Y-7561466D01*
G01X14792702Y-7572474D01*
G01X14791136Y-7575327D01*
G01X14790197Y-7576977D01*
G01X14787938Y-7579589D01*
G01X14785679Y-7582298D01*
G01X14783800Y-7586059D01*
G01X14781542Y-7588767D01*
G01X14779283Y-7591380D01*
G01X14778344Y-7593030D01*
G01X14776778Y-7595883D01*
G01X14773013Y-7601387D01*
G01X14767683Y-7609609D01*
G01X14766861Y-7611119D01*
G01X14764884Y-7613584D01*
G01X14762547Y-7616584D01*
G01X14760860Y-7619383D01*
G01X14759068Y-7621891D01*
G01X14758047Y-7622333D01*
G01X14756926Y-7622227D01*
G01X14754326Y-7620358D01*
G01X14751160Y-7616246D01*
G01X14745100Y-7607330D01*
G01X14738437Y-7597658D01*
G01X14721828Y-7573280D01*
G01X14705320Y-7548761D01*
G01X14702033Y-7544208D01*
G01X14700117Y-7542311D01*
G01X14699775Y-7546959D01*
G01X14699562Y-7559798D01*
G01X14699584Y-7603394D01*
G01X14699990Y-7664485D01*
G01X14663620Y-7664786D01*
G01X14634038Y-7664726D01*
G01X14628142Y-7664291D01*
G01X14626037Y-7663515D01*
G01X14625485Y-7656767D01*
G01X14625157Y-7636757D01*
G01X14625096Y-7547916D01*
G01X14625367Y-7433891D01*
G01X14659084Y-7433588D01*
G01X14692801Y-7433286D01*
G01X14695524Y-7437030D01*
G01X14703382Y-7448231D01*
G01X14709791Y-7457409D01*
G01X14715921Y-7466300D01*
G01X14725634Y-7480641D01*
G01X14731779Y-7489532D01*
G01X14735682Y-7495268D01*
G01X14739398Y-7500605D01*
G01X14748401Y-7513512D01*
G01X14753038Y-7519966D01*
G01X14756406Y-7523889D01*
G01X14758460Y-7525236D01*
G01X14758980Y-7524930D01*
G01X14759155Y-7523964D01*
G01X14761660Y-7519617D01*
G01X14767683Y-7510756D01*
G01X14773706Y-7501957D01*
G01X14776211Y-7497762D01*
G01X14777151Y-7496145D01*
G01X14779410Y-7493547D01*
G01X14781668Y-7490839D01*
G01X14783547Y-7487077D01*
G01X14788064Y-7481661D01*
G01X14789943Y-7477900D01*
G01X14792202Y-7475191D01*
G01X14794461Y-7472593D01*
G01X14795400Y-7470977D01*
G01X14797905Y-7466782D01*
G01X14803928Y-7457983D01*
G01X14809952Y-7449180D01*
G01X14812457Y-7444974D01*
G01X14813273Y-7443499D01*
G01X14815235Y-7441261D01*
G01X14817469Y-7438539D01*
G01X14818940Y-7435899D01*
G01X14819866Y-7433317D01*
G01X14853828Y-7433317D01*
G01X14878022Y-7433542D01*
G01X14888501Y-7434082D01*
G01X14888977Y-7444373D01*
G01X14889255Y-7470480D01*
G01X14889291Y-7549037D01*
G01X14888744Y-7627542D01*
G01X14888295Y-7653585D01*
G01X14887752Y-7663786D01*
G37*
G36*
G01X15102824Y-7532698D02*
G01X15096709Y-7536651D01*
G01X15092116Y-7538602D01*
G01X15090768Y-7538498D01*
G01X15088840Y-7537791D01*
G01X15083570Y-7534835D01*
G01X15076953Y-7530258D01*
G01X15069638Y-7524587D01*
G01X15062274Y-7518348D01*
G01X15055510Y-7512069D01*
G01X15049995Y-7506275D01*
G01X15046376Y-7501492D01*
G01X15045052Y-7498727D01*
G01X15044473Y-7497040D01*
G01X15084835Y-7497040D01*
G01X15085011Y-7498871D01*
G01X15085574Y-7500602D01*
G01X15086478Y-7502128D01*
G01X15086478Y-7502128D01*
G01X15087677Y-7503347D01*
G01X15089122Y-7504154D01*
G01X15090768Y-7504446D01*
G01X15092918Y-7503774D01*
G01X15094961Y-7502063D01*
G01X15096488Y-7499774D01*
G01X15097088Y-7497366D01*
G01X15096736Y-7495155D01*
G01X15095780Y-7493333D01*
G01X15094372Y-7491953D01*
G01X15092662Y-7491066D01*
G01X15090802Y-7490724D01*
G01X15088942Y-7490980D01*
G01X15087235Y-7491885D01*
G01X15085831Y-7493491D01*
G01X15085092Y-7495212D01*
G01X15084835Y-7497040D01*
G01X15044473Y-7497040D01*
G01X15043786Y-7495039D01*
G01X15041483Y-7485479D01*
G01X15039575Y-7473977D01*
G01X15038167Y-7461697D01*
G01X15037917Y-7457983D01*
G01X15084829Y-7457983D01*
G01X15085005Y-7469535D01*
G01X15085843Y-7475915D01*
G01X15086656Y-7477639D01*
G01X15087809Y-7478636D01*
G01X15087809Y-7478636D01*
G01X15089360Y-7479095D01*
G01X15091368Y-7479207D01*
G01X15092970Y-7479013D01*
G01X15094254Y-7478354D01*
G01X15095253Y-7477111D01*
G01X15095999Y-7475164D01*
G01X15096858Y-7468690D01*
G01X15097088Y-7457983D01*
G01X15096544Y-7445574D01*
G01X15095830Y-7441358D01*
G01X15094789Y-7438410D01*
G01X15093398Y-7436683D01*
G01X15091635Y-7436134D01*
G01X15089476Y-7436717D01*
G01X15086898Y-7438388D01*
G01X15085775Y-7439764D01*
G01X15085152Y-7442572D01*
G01X15084829Y-7457983D01*
G01X15037917Y-7457983D01*
G01X15037366Y-7449801D01*
G01X15037279Y-7439453D01*
G01X15038011Y-7431818D01*
G01X15038717Y-7429381D01*
G01X15039668Y-7428058D01*
G01X15047368Y-7425871D01*
G01X15062975Y-7422460D01*
G01X15071503Y-7420549D01*
G01X15082863Y-7417886D01*
G01X15088560Y-7416889D01*
G01X15092448Y-7416800D01*
G01X15096555Y-7417269D01*
G01X15105616Y-7419295D01*
G01X15137598Y-7426563D01*
G01X15139389Y-7427472D01*
G01X15140965Y-7429313D01*
G01X15142322Y-7431983D01*
G01X15143459Y-7435382D01*
G01X15145061Y-7443962D01*
G01X15145755Y-7454243D01*
G01X15145523Y-7465413D01*
G01X15144348Y-7476663D01*
G01X15142212Y-7487183D01*
G01X15140778Y-7491916D01*
G01X15139097Y-7496163D01*
G01X15135992Y-7501166D01*
G01X15130940Y-7507301D01*
G01X15124519Y-7514043D01*
G01X15117307Y-7520872D01*
G01X15109883Y-7527264D01*
G01X15102824Y-7532698D01*
G37*
G36*
G01X15386409Y-7576384D02*
G01X15384194Y-7577556D01*
G01X15381916Y-7577898D01*
G01X15379457Y-7577366D01*
G01X15376702Y-7575916D01*
G01X15373535Y-7573505D01*
G01X15365498Y-7565618D01*
G01X15353987Y-7554425D01*
G01X15341910Y-7544705D01*
G01X15329350Y-7536459D01*
G01X15316391Y-7529688D01*
G01X15303116Y-7524392D01*
G01X15289609Y-7520572D01*
G01X15275954Y-7518230D01*
G01X15262234Y-7517365D01*
G01X15248534Y-7517978D01*
G01X15234936Y-7520071D01*
G01X15221524Y-7523644D01*
G01X15208383Y-7528698D01*
G01X15195595Y-7535233D01*
G01X15183245Y-7543251D01*
G01X15171416Y-7552751D01*
G01X15160191Y-7563736D01*
G01X15151263Y-7572628D01*
G01X15147814Y-7575278D01*
G01X15144841Y-7576800D01*
G01X15142194Y-7577248D01*
G01X15139720Y-7576675D01*
G01X15137269Y-7575133D01*
G01X15134690Y-7572675D01*
G01X15132994Y-7570042D01*
G01X15132291Y-7566938D01*
G01X15132526Y-7563420D01*
G01X15133648Y-7559547D01*
G01X15135603Y-7555375D01*
G01X15138336Y-7550961D01*
G01X15141795Y-7546364D01*
G01X15145927Y-7541639D01*
G01X15150677Y-7536845D01*
G01X15155992Y-7532038D01*
G01X15168105Y-7522618D01*
G01X15181838Y-7513835D01*
G01X15189178Y-7509826D01*
G01X15196763Y-7506149D01*
G01X15203159Y-7503257D01*
G01X15209555Y-7500920D01*
G01X15216484Y-7498583D01*
G01X15222667Y-7496793D01*
G01X15230317Y-7495236D01*
G01X15238979Y-7493952D01*
G01X15248197Y-7492980D01*
G01X15266477Y-7492129D01*
G01X15274628Y-7492328D01*
G01X15281512Y-7492997D01*
G01X15292715Y-7495152D01*
G01X15303986Y-7498209D01*
G01X15315183Y-7502056D01*
G01X15326163Y-7506585D01*
G01X15336781Y-7511687D01*
G01X15346895Y-7517254D01*
G01X15356360Y-7523174D01*
G01X15365032Y-7529341D01*
G01X15372770Y-7535644D01*
G01X15379428Y-7541975D01*
G01X15384864Y-7548224D01*
G01X15388933Y-7554282D01*
G01X15391492Y-7560041D01*
G01X15392161Y-7562773D01*
G01X15392398Y-7565390D01*
G01X15392187Y-7567878D01*
G01X15391508Y-7570222D01*
G01X15390343Y-7572410D01*
G01X15388676Y-7574427D01*
G01X15386409Y-7576384D01*
G37*
G36*
G01X15439567Y-7523237D02*
G01X15437121Y-7525183D01*
G01X15434500Y-7526085D01*
G01X15431654Y-7525933D01*
G01X15428534Y-7524715D01*
G01X15425091Y-7522419D01*
G01X15421277Y-7519035D01*
G01X15417041Y-7514551D01*
G01X15409072Y-7506100D01*
G01X15400308Y-7497793D01*
G01X15390961Y-7489784D01*
G01X15381239Y-7482229D01*
G01X15371353Y-7475283D01*
G01X15361513Y-7469101D01*
G01X15351928Y-7463838D01*
G01X15342809Y-7459651D01*
G01X15326613Y-7453518D01*
G01X15311775Y-7449006D01*
G01X15297167Y-7445821D01*
G01X15281666Y-7443668D01*
G01X15267658Y-7442758D01*
G01X15253327Y-7442935D01*
G01X15238839Y-7444169D01*
G01X15224360Y-7446427D01*
G01X15210057Y-7449678D01*
G01X15196095Y-7453891D01*
G01X15182640Y-7459032D01*
G01X15169858Y-7465071D01*
G01X15164980Y-7467269D01*
G01X15163424Y-7467427D01*
G01X15162343Y-7466827D01*
G01X15161651Y-7465369D01*
G01X15161265Y-7462955D01*
G01X15161067Y-7454864D01*
G01X15161188Y-7446727D01*
G01X15161488Y-7444128D01*
G01X15162088Y-7442212D01*
G01X15163096Y-7440757D01*
G01X15164616Y-7439540D01*
G01X15169620Y-7436932D01*
G01X15183132Y-7431200D01*
G01X15198604Y-7426103D01*
G01X15215482Y-7421801D01*
G01X15233213Y-7418456D01*
G01X15244893Y-7417668D01*
G01X15262396Y-7417422D01*
G01X15279780Y-7417713D01*
G01X15291107Y-7418531D01*
G01X15314051Y-7422962D01*
G01X15322981Y-7425306D01*
G01X15332682Y-7428317D01*
G01X15342974Y-7432063D01*
G01X15353426Y-7436600D01*
G01X15363905Y-7441815D01*
G01X15374277Y-7447596D01*
G01X15384409Y-7453831D01*
G01X15394167Y-7460408D01*
G01X15403419Y-7467213D01*
G01X15412031Y-7474136D01*
G01X15419870Y-7481063D01*
G01X15426802Y-7487883D01*
G01X15432694Y-7494483D01*
G01X15437412Y-7500751D01*
G01X15440824Y-7506575D01*
G01X15442796Y-7511843D01*
G01X15443200Y-7514232D01*
G01X15443194Y-7516441D01*
G01X15442762Y-7518454D01*
G01X15441886Y-7520258D01*
G01X15439567Y-7523237D01*
G37*
G36*
G01X15342975Y-7624138D02*
G01X15340514Y-7626669D01*
G01X15337728Y-7628086D01*
G01X15334681Y-7628394D01*
G01X15331435Y-7627597D01*
G01X15328055Y-7625702D01*
G01X15324603Y-7622713D01*
G01X15321144Y-7618634D01*
G01X15317696Y-7614408D01*
G01X15313787Y-7610335D01*
G01X15309508Y-7606482D01*
G01X15304951Y-7602917D01*
G01X15300208Y-7599704D01*
G01X15295370Y-7596913D01*
G01X15290529Y-7594608D01*
G01X15285776Y-7592857D01*
G01X15277889Y-7590354D01*
G01X15273600Y-7589399D01*
G01X15268354Y-7588955D01*
G01X15262420Y-7588993D01*
G01X15256066Y-7589483D01*
G01X15249559Y-7590396D01*
G01X15243167Y-7591703D01*
G01X15237159Y-7593375D01*
G01X15231803Y-7595382D01*
G01X15227415Y-7597671D01*
G01X15222439Y-7600850D01*
G01X15212173Y-7608667D01*
G01X15203895Y-7616410D01*
G01X15201404Y-7619496D01*
G01X15200494Y-7621655D01*
G01X15200301Y-7623035D01*
G01X15199752Y-7624195D01*
G01X15197765Y-7625866D01*
G01X15194890Y-7626705D01*
G01X15191486Y-7626746D01*
G01X15187910Y-7626024D01*
G01X15184519Y-7624574D01*
G01X15181672Y-7622430D01*
G01X15179727Y-7619628D01*
G01X15178904Y-7617204D01*
G01X15178528Y-7614716D01*
G01X15178580Y-7612176D01*
G01X15179041Y-7609594D01*
G01X15181111Y-7604348D01*
G01X15184582Y-7599064D01*
G01X15189301Y-7593829D01*
G01X15195113Y-7588729D01*
G01X15201861Y-7583850D01*
G01X15209391Y-7579280D01*
G01X15217549Y-7575103D01*
G01X15226180Y-7571407D01*
G01X15235127Y-7568278D01*
G01X15244238Y-7565802D01*
G01X15253356Y-7564066D01*
G01X15262326Y-7563157D01*
G01X15270994Y-7563159D01*
G01X15279206Y-7564161D01*
G01X15285489Y-7565673D01*
G01X15291847Y-7567764D01*
G01X15298203Y-7570368D01*
G01X15304477Y-7573418D01*
G01X15310593Y-7576847D01*
G01X15316471Y-7580588D01*
G01X15322035Y-7584575D01*
G01X15327205Y-7588740D01*
G01X15331904Y-7593017D01*
G01X15336053Y-7597340D01*
G01X15339576Y-7601641D01*
G01X15342393Y-7605854D01*
G01X15344427Y-7609912D01*
G01X15345599Y-7613749D01*
G01X15345832Y-7617296D01*
G01X15345047Y-7620488D01*
G01X15342975Y-7624138D01*
G37*
G36*
G01X15267993Y-7680792D02*
G01X15264702Y-7682360D01*
G01X15261673Y-7683290D01*
G01X15258990Y-7683500D01*
G01X15256737Y-7682905D01*
G01X15254036Y-7680909D01*
G01X15250034Y-7677212D01*
G01X15240120Y-7666896D01*
G01X15230975Y-7656320D01*
G01X15227935Y-7652298D01*
G01X15226581Y-7649847D01*
G01X15226260Y-7646894D01*
G01X15226639Y-7643973D01*
G01X15227659Y-7641114D01*
G01X15229261Y-7638351D01*
G01X15231388Y-7635716D01*
G01X15233981Y-7633241D01*
G01X15236982Y-7630958D01*
G01X15240332Y-7628899D01*
G01X15247846Y-7625585D01*
G01X15256057Y-7623555D01*
G01X15260278Y-7623102D01*
G01X15264498Y-7623067D01*
G01X15268659Y-7623482D01*
G01X15272702Y-7624379D01*
G01X15276937Y-7625851D01*
G01X15281077Y-7627745D01*
G01X15284999Y-7629970D01*
G01X15288583Y-7632434D01*
G01X15291706Y-7635045D01*
G01X15294248Y-7637711D01*
G01X15296087Y-7640340D01*
G01X15297101Y-7642840D01*
G01X15297268Y-7645505D01*
G01X15296682Y-7648541D01*
G01X15295427Y-7651863D01*
G01X15293587Y-7655387D01*
G01X15288495Y-7662707D01*
G01X15282081Y-7669829D01*
G01X15275021Y-7676081D01*
G01X15267993Y-7680792D01*
G37*
G04 Image End*

G04 Text Start*
G36*
G01X12493452Y-7577474D02*
G01X12490758Y-7578013D01*
G01X12487525Y-7578552D01*
G01X12485101Y-7579091D01*
G01X12472978Y-7579360D01*
G01X12461124Y-7579091D01*
G01X12455198Y-7578552D01*
G01X12452504Y-7578013D01*
G01X12449271Y-7577474D01*
G01X12446039Y-7576666D01*
G01X12442267Y-7575589D01*
G01X12438765Y-7574511D01*
G01X12436071Y-7573433D01*
G01X12433916Y-7572625D01*
G01X12432030Y-7571817D01*
G01X12425564Y-7568584D01*
G01X12419907Y-7565351D01*
G01X12418291Y-7564274D01*
G01X12416136Y-7562927D01*
G01X12411287Y-7559694D01*
G01X12410479Y-7552353D01*
G01X12410209Y-7531947D01*
G01X12410209Y-7505007D01*
G01X12470553Y-7505007D01*
G01X12470823Y-7506354D01*
G01X12471092Y-7519554D01*
G01X12471092Y-7531408D01*
G01X12444691Y-7531408D01*
G01X12444691Y-7537604D01*
G01X12444894Y-7542318D01*
G01X12445500Y-7544069D01*
G01X12453581Y-7548110D01*
G01X12456545Y-7549188D01*
G01X12460047Y-7550266D01*
G01X12463819Y-7551074D01*
G01X12466782Y-7551343D01*
G01X12468667Y-7551613D01*
G01X12472170Y-7551882D01*
G01X12475672Y-7551613D01*
G01X12479443Y-7551074D01*
G01X12481868Y-7550266D01*
G01X12484831Y-7549188D01*
G01X12486717Y-7548110D01*
G01X12488603Y-7546763D01*
G01X12490489Y-7545147D01*
G01X12491836Y-7543800D01*
G01X12493452Y-7541914D01*
G01X12494799Y-7539759D01*
G01X12496954Y-7535449D01*
G01X12497762Y-7533294D01*
G01X12498301Y-7531139D01*
G01X12499379Y-7525751D01*
G01X12499917Y-7521440D01*
G01X12500187Y-7512820D01*
G01X12499917Y-7504199D01*
G01X12499379Y-7499889D01*
G01X12498840Y-7497464D01*
G01X12498031Y-7494770D01*
G01X12497223Y-7492615D01*
G01X12496415Y-7490729D01*
G01X12495337Y-7488574D01*
G01X12494260Y-7486689D01*
G01X12493183Y-7485341D01*
G01X12490489Y-7482647D01*
G01X12488603Y-7481031D01*
G01X12486447Y-7479684D01*
G01X12484293Y-7478607D01*
G01X12481868Y-7477529D01*
G01X12478635Y-7476721D01*
G01X12475672Y-7476182D01*
G01X12471361Y-7475913D01*
G01X12467051Y-7476182D01*
G01X12464627Y-7476721D01*
G01X12461933Y-7477529D01*
G01X12459508Y-7478607D01*
G01X12457623Y-7479684D01*
G01X12456276Y-7480762D01*
G01X12453581Y-7483456D01*
G01X12452504Y-7485072D01*
G01X12450618Y-7488844D01*
G01X12449810Y-7490056D01*
G01X12448463Y-7490460D01*
G01X12446039Y-7490191D01*
G01X12434185Y-7488036D01*
G01X12427720Y-7486958D01*
G01X12425026Y-7486419D01*
G01X12421793Y-7485880D01*
G01X12419099Y-7485341D01*
G01X12415866Y-7484803D01*
G01X12412903Y-7483994D01*
G01X12412229Y-7483321D01*
G01X12412364Y-7482378D01*
G01X12413173Y-7479954D01*
G01X12413981Y-7477799D01*
G01X12416136Y-7472949D01*
G01X12417483Y-7470794D01*
G01X12418830Y-7468370D01*
G01X12419907Y-7466753D01*
G01X12420985Y-7465406D01*
G01X12422601Y-7463251D01*
G01X12424487Y-7461366D01*
G01X12428528Y-7458133D01*
G01X12430414Y-7456786D01*
G01X12432569Y-7455439D01*
G01X12436879Y-7453284D01*
G01X12439304Y-7452206D01*
G01X12442536Y-7451129D01*
G01X12446039Y-7450320D01*
G01X12448733Y-7449781D01*
G01X12452504Y-7449243D01*
G01X12456814Y-7448704D01*
G01X12465974Y-7448165D01*
G01X12471631Y-7447896D01*
G01X12477288Y-7448165D01*
G01X12484831Y-7448704D01*
G01X12489141Y-7449243D01*
G01X12495068Y-7450320D01*
G01X12497493Y-7451129D01*
G01X12500187Y-7451937D01*
G01X12502342Y-7452745D01*
G01X12505036Y-7453823D01*
G01X12507460Y-7454900D01*
G01X12509616Y-7456247D01*
G01X12512309Y-7457863D01*
G01X12514734Y-7459480D01*
G01X12516620Y-7460827D01*
G01X12517967Y-7462174D01*
G01X12520661Y-7464329D01*
G01X12523354Y-7467023D01*
G01X12524971Y-7469178D01*
G01X12527126Y-7471872D01*
G01X12529012Y-7474566D01*
G01X12530628Y-7477260D01*
G01X12533053Y-7482109D01*
G01X12534130Y-7484533D01*
G01X12535208Y-7487227D01*
G01X12536824Y-7492615D01*
G01X12537633Y-7495848D01*
G01X12538171Y-7498811D01*
G01X12538710Y-7502044D01*
G01X12539249Y-7506354D01*
G01X12539518Y-7515514D01*
G01X12539249Y-7523596D01*
G01X12538710Y-7527906D01*
G01X12538171Y-7530869D01*
G01X12537363Y-7534102D01*
G01X12535747Y-7539490D01*
G01X12534939Y-7541914D01*
G01X12534130Y-7544069D01*
G01X12532514Y-7547841D01*
G01X12530359Y-7551613D01*
G01X12529012Y-7553767D01*
G01X12527396Y-7556192D01*
G01X12526049Y-7558078D01*
G01X12523893Y-7560772D01*
G01X12521199Y-7563466D01*
G01X12517428Y-7566699D01*
G01X12515811Y-7568046D01*
G01X12511501Y-7570739D01*
G01X12509616Y-7571817D01*
G01X12507460Y-7572894D01*
G01X12505036Y-7573972D01*
G01X12502342Y-7575050D01*
G01X12499109Y-7576127D01*
G01X12495876Y-7576936D01*
G01X12493452Y-7577474D01*
G37*
G36*
G01X12386503Y-7513628D02*
G01X12386503Y-7577205D01*
G01X12349326Y-7577205D01*
G01X12349326Y-7542992D01*
G01X12349191Y-7517399D01*
G01X12348787Y-7509048D01*
G01X12347440Y-7510664D01*
G01X12345824Y-7513089D01*
G01X12343130Y-7516861D01*
G01X12338281Y-7524134D01*
G01X12334509Y-7529522D01*
G01X12329660Y-7536796D01*
G01X12326966Y-7540567D01*
G01X12322117Y-7547841D01*
G01X12318346Y-7553229D01*
G01X12313497Y-7560503D01*
G01X12310803Y-7564274D01*
G01X12305954Y-7571547D01*
G01X12304068Y-7574241D01*
G01X12302451Y-7576397D01*
G01X12297400Y-7577003D01*
G01X12283324Y-7577205D01*
G01X12264736Y-7577205D01*
G01X12264736Y-7450051D01*
G01X12301913Y-7450051D01*
G01X12301913Y-7484803D01*
G01X12302115Y-7510799D01*
G01X12302721Y-7519285D01*
G01X12303799Y-7518207D01*
G01X12304876Y-7516322D01*
G01X12309725Y-7509048D01*
G01X12312419Y-7505277D01*
G01X12318884Y-7495579D01*
G01X12321579Y-7491807D01*
G01X12328044Y-7482109D01*
G01X12330738Y-7478337D01*
G01X12335587Y-7471064D01*
G01X12338281Y-7467292D01*
G01X12344746Y-7457594D01*
G01X12347440Y-7453823D01*
G01X12349057Y-7451398D01*
G01X12349865Y-7450051D01*
G01X12386503Y-7450051D01*
G01X12386503Y-7513628D01*
G37*
G36*
G01X12208433Y-7450051D02*
G01X12237797Y-7450051D01*
G01X12238066Y-7451398D01*
G01X12238336Y-7514975D01*
G01X12238336Y-7577205D01*
G01X12205200Y-7577205D01*
G01X12171257Y-7576936D01*
G01X12167485Y-7576397D01*
G01X12161559Y-7575319D01*
G01X12158864Y-7574511D01*
G01X12155632Y-7573703D01*
G01X12153207Y-7572894D01*
G01X12151052Y-7572086D01*
G01X12149166Y-7571278D01*
G01X12147281Y-7570201D01*
G01X12145126Y-7568854D01*
G01X12143240Y-7567507D01*
G01X12141084Y-7565890D01*
G01X12139199Y-7564274D01*
G01X12137583Y-7562388D01*
G01X12134350Y-7559156D01*
G01X12132733Y-7557000D01*
G01X12130847Y-7554306D01*
G01X12128154Y-7549996D01*
G01X12127076Y-7547571D01*
G01X12126268Y-7545686D01*
G01X12125190Y-7543261D01*
G01X12124113Y-7540029D01*
G01X12123304Y-7536526D01*
G01X12122766Y-7533833D01*
G01X12122227Y-7530600D01*
G01X12121688Y-7526289D01*
G01X12121419Y-7521710D01*
G01X12121149Y-7518207D01*
G01X12120896Y-7513897D01*
G01X12160481Y-7513897D01*
G01X12160481Y-7517130D01*
G01X12160750Y-7522787D01*
G01X12161020Y-7526828D01*
G01X12161559Y-7531139D01*
G01X12162367Y-7533833D01*
G01X12163444Y-7537065D01*
G01X12165061Y-7539759D01*
G01X12166677Y-7541914D01*
G01X12168024Y-7543261D01*
G01X12169371Y-7544339D01*
G01X12170987Y-7545416D01*
G01X12173412Y-7546494D01*
G01X12176375Y-7547302D01*
G01X12178800Y-7547841D01*
G01X12178800Y-7547841D01*
G01X12183649Y-7548380D01*
G01X12191461Y-7548649D01*
G01X12198735Y-7548380D01*
G01X12199004Y-7513628D01*
G01X12199004Y-7479146D01*
G01X12190653Y-7479146D01*
G01X12181494Y-7479415D01*
G01X12178800Y-7479954D01*
G01X12175836Y-7480762D01*
G01X12173412Y-7481839D01*
G01X12171257Y-7482917D01*
G01X12169640Y-7483994D01*
G01X12166946Y-7486689D01*
G01X12165869Y-7488036D01*
G01X12163983Y-7491807D01*
G01X12162906Y-7494770D01*
G01X12162097Y-7497734D01*
G01X12161559Y-7500966D01*
G01X12161020Y-7504738D01*
G01X12160750Y-7509856D01*
G01X12160481Y-7513897D01*
G01X12120896Y-7513897D01*
G01X12120880Y-7513628D01*
G01X12121149Y-7509048D01*
G01X12121688Y-7501505D01*
G01X12122227Y-7497734D01*
G01X12123304Y-7491807D01*
G01X12124113Y-7489113D01*
G01X12125190Y-7485611D01*
G01X12126268Y-7482378D01*
G01X12127346Y-7479954D01*
G01X12128154Y-7478068D01*
G01X12128962Y-7476451D01*
G01X12131117Y-7472680D01*
G01X12132194Y-7471333D01*
G01X12134889Y-7467561D01*
G01X12140276Y-7462174D01*
G01X12141623Y-7461096D01*
G01X12142970Y-7460288D01*
G01X12144856Y-7458941D01*
G01X12147011Y-7457594D01*
G01X12151321Y-7455439D01*
G01X12153746Y-7454361D01*
G01X12156979Y-7453284D01*
G01X12160211Y-7452476D01*
G01X12162636Y-7451937D01*
G01X12165330Y-7451398D01*
G01X12169640Y-7450859D01*
G01X12174759Y-7450590D01*
G01X12178261Y-7450320D01*
G01X12208433Y-7450051D01*
G37*
G36*
G01X12382615Y-7828934D02*
G01X12361064Y-7829473D01*
G01X12344833Y-7829204D01*
G01X12339243Y-7828396D01*
G01X12336818Y-7821930D01*
G01X12336010Y-7819506D01*
G01X12329545Y-7802264D01*
G01X12328737Y-7799840D01*
G01X12327659Y-7797146D01*
G01X12325504Y-7791219D01*
G01X12324426Y-7788525D01*
G01X12323618Y-7786101D01*
G01X12317153Y-7768859D01*
G01X12316344Y-7766435D01*
G01X12315267Y-7763741D01*
G01X12313112Y-7757814D01*
G01X12312034Y-7755120D01*
G01X12310418Y-7750810D01*
G01X12309610Y-7748386D01*
G01X12303144Y-7731144D01*
G01X12302336Y-7728720D01*
G01X12301258Y-7726026D01*
G01X12299103Y-7720099D01*
G01X12298026Y-7717405D01*
G01X12296409Y-7713095D01*
G01X12295601Y-7710670D01*
G01X12293177Y-7704205D01*
G01X12292907Y-7702858D01*
G01X12312573Y-7702319D01*
G01X12331969Y-7702319D01*
G01X12332508Y-7704205D01*
G01X12340051Y-7728720D01*
G01X12341129Y-7731953D01*
G01X12341937Y-7734916D01*
G01X12342745Y-7737340D01*
G01X12344361Y-7742728D01*
G01X12345170Y-7745153D01*
G01X12345708Y-7747308D01*
G01X12347594Y-7752965D01*
G01X12348402Y-7755929D01*
G01X12349211Y-7758353D01*
G01X12350827Y-7763741D01*
G01X12352443Y-7768590D01*
G01X12355676Y-7779366D01*
G01X12356484Y-7781790D01*
G01X12357023Y-7783946D01*
G01X12358909Y-7789603D01*
G01X12359717Y-7792297D01*
G01X12360054Y-7793037D01*
G01X12360525Y-7793105D01*
G01X12361333Y-7791489D01*
G01X12362141Y-7789064D01*
G01X12363758Y-7783676D01*
G01X12365374Y-7778827D01*
G01X12366991Y-7773439D01*
G01X12367799Y-7771015D01*
G01X12368337Y-7768859D01*
G01X12370223Y-7763202D01*
G01X12372378Y-7756198D01*
G01X12373456Y-7752965D01*
G01X12374264Y-7750002D01*
G01X12375881Y-7745153D01*
G01X12376419Y-7742998D01*
G01X12378305Y-7737340D01*
G01X12380460Y-7730336D01*
G01X12381538Y-7727103D01*
G01X12382346Y-7724140D01*
G01X12383962Y-7719291D01*
G01X12384501Y-7717136D01*
G01X12386387Y-7711479D01*
G01X12388542Y-7704474D01*
G01X12389889Y-7702589D01*
G01X12410363Y-7702319D01*
G01X12430029Y-7702319D01*
G01X12429759Y-7703666D01*
G01X12428951Y-7706091D01*
G01X12427874Y-7708785D01*
G01X12425718Y-7714711D01*
G01X12424641Y-7717405D01*
G01X12419792Y-7730336D01*
G01X12418714Y-7733030D01*
G01X12416559Y-7738957D01*
G01X12415481Y-7741651D01*
G01X12410632Y-7754582D01*
G01X12409555Y-7757276D01*
G01X12407400Y-7763202D01*
G01X12406322Y-7765896D01*
G01X12401473Y-7778827D01*
G01X12400395Y-7781521D01*
G01X12398240Y-7787448D01*
G01X12397163Y-7790142D01*
G01X12390697Y-7807383D01*
G01X12389620Y-7810077D01*
G01X12387464Y-7816003D01*
G01X12386387Y-7818697D01*
G01X12383154Y-7827318D01*
G01X12382615Y-7828934D01*
G37*
G36*
G01X12244147Y-7831359D02*
G01X12232832Y-7831628D01*
G01X12221787Y-7831359D01*
G01X12218016Y-7830820D01*
G01X12212628Y-7829743D01*
G01X12206971Y-7827857D01*
G01X12204546Y-7826779D01*
G01X12200774Y-7824624D01*
G01X12198619Y-7823277D01*
G01X12196734Y-7821661D01*
G01X12194040Y-7819506D01*
G01X12192693Y-7818159D01*
G01X12189999Y-7814926D01*
G01X12188921Y-7813579D01*
G01X12187844Y-7811693D01*
G01X12186497Y-7809269D01*
G01X12185419Y-7807113D01*
G01X12184341Y-7804689D01*
G01X12183264Y-7801726D01*
G01X12182456Y-7798493D01*
G01X12181917Y-7795799D01*
G01X12181378Y-7792027D01*
G01X12181109Y-7788256D01*
G01X12181378Y-7784484D01*
G01X12181917Y-7781790D01*
G01X12182725Y-7778827D01*
G01X12183533Y-7776672D01*
G01X12184341Y-7774786D01*
G01X12185688Y-7772631D01*
G01X12187574Y-7769937D01*
G01X12190807Y-7766704D01*
G01X12192154Y-7765627D01*
G01X12193501Y-7764819D01*
G01X12195117Y-7763741D01*
G01X12197272Y-7762663D01*
G01X12199966Y-7761586D01*
G01X12203199Y-7760508D01*
G01X12205085Y-7759431D01*
G01X12204546Y-7758623D01*
G01X12202660Y-7757545D01*
G01X12200774Y-7756198D01*
G01X12198619Y-7754582D01*
G01X12194040Y-7750002D01*
G01X12192693Y-7748116D01*
G01X12191076Y-7745692D01*
G01X12189729Y-7742728D01*
G01X12188921Y-7740304D01*
G01X12188382Y-7738149D01*
G01X12187844Y-7734916D01*
G01X12187574Y-7731414D01*
G01X12187844Y-7728989D01*
G01X12188382Y-7726295D01*
G01X12189191Y-7723332D01*
G01X12189999Y-7721177D01*
G01X12190807Y-7719291D01*
G01X12192154Y-7717136D01*
G01X12194040Y-7714442D01*
G01X12198619Y-7709862D01*
G01X12200505Y-7708515D01*
G01X12202930Y-7706899D01*
G01X12205624Y-7705552D01*
G01X12208317Y-7704474D01*
G01X12211281Y-7703397D01*
G01X12214783Y-7702589D01*
G01X12220171Y-7701511D01*
G01X12223942Y-7700972D01*
G01X12228253Y-7700703D01*
G01X12231485Y-7700433D01*
G01X12235526Y-7700164D01*
G01X12239567Y-7700433D01*
G01X12246571Y-7700972D01*
G01X12250343Y-7701511D01*
G01X12252498Y-7702050D01*
G01X12255461Y-7702858D01*
G01X12258155Y-7703666D01*
G01X12260311Y-7704474D01*
G01X12262735Y-7705552D01*
G01X12265160Y-7706899D01*
G01X12267315Y-7708246D01*
G01X12268931Y-7709323D01*
G01X12270278Y-7710401D01*
G01X12274319Y-7714442D01*
G01X12276474Y-7717136D01*
G01X12277821Y-7719022D01*
G01X12279168Y-7721177D01*
G01X12280246Y-7723063D01*
G01X12281862Y-7726834D01*
G01X12282670Y-7728989D01*
G01X12283478Y-7731414D01*
G01X12283748Y-7733030D01*
G01X12282131Y-7733569D01*
G01X12279976Y-7733838D01*
G01X12277282Y-7734377D01*
G01X12274050Y-7734916D01*
G01X12271356Y-7735455D01*
G01X12268123Y-7735993D01*
G01X12265429Y-7736532D01*
G01X12258964Y-7737610D01*
G01X12256270Y-7738149D01*
G01X12253037Y-7738687D01*
G01X12251151Y-7738957D01*
G01X12250612Y-7737610D01*
G01X12250343Y-7735455D01*
G01X12249804Y-7733299D01*
G01X12248996Y-7731144D01*
G01X12247918Y-7728989D01*
G01X12246571Y-7727103D01*
G01X12244416Y-7724948D01*
G01X12242800Y-7723871D01*
G01X12240645Y-7723063D01*
G01X12238490Y-7722524D01*
G01X12234987Y-7722254D01*
G01X12231485Y-7722524D01*
G01X12229330Y-7723332D01*
G01X12226636Y-7724948D01*
G01X12224751Y-7727103D01*
G01X12223673Y-7728989D01*
G01X12222865Y-7732222D01*
G01X12222595Y-7736802D01*
G01X12223134Y-7740034D01*
G01X12224212Y-7742189D01*
G01X12225289Y-7743806D01*
G01X12226367Y-7745153D01*
G01X12227714Y-7746230D01*
G01X12229061Y-7747039D01*
G01X12230947Y-7748116D01*
G01X12233102Y-7748924D01*
G01X12235257Y-7749463D01*
G01X12239837Y-7749733D01*
G01X12242261Y-7750002D01*
G01X12243069Y-7750810D01*
G01X12243339Y-7752696D01*
G01X12243877Y-7759700D01*
G01X12244416Y-7767243D01*
G01X12244686Y-7771284D01*
G01X12244686Y-7774517D01*
G01X12243069Y-7774247D01*
G01X12240645Y-7773709D01*
G01X12237951Y-7773170D01*
G01X12232563Y-7772900D01*
G01X12227983Y-7773439D01*
G01X12225828Y-7774247D01*
G01X12223404Y-7775594D01*
G01X12221518Y-7777480D01*
G01X12220440Y-7778827D01*
G01X12219093Y-7780713D01*
G01X12218016Y-7783407D01*
G01X12216938Y-7787717D01*
G01X12216669Y-7792297D01*
G01X12216938Y-7796338D01*
G01X12217477Y-7798493D01*
G01X12218285Y-7800648D01*
G01X12219363Y-7802534D01*
G01X12220979Y-7804958D01*
G01X12223404Y-7807113D01*
G01X12225559Y-7808460D01*
G01X12227983Y-7809538D01*
G01X12230947Y-7810077D01*
G01X12233102Y-7810346D01*
G01X12235257Y-7810346D01*
G01X12238220Y-7809807D01*
G01X12240645Y-7808999D01*
G01X12242531Y-7807922D01*
G01X12244147Y-7806575D01*
G01X12245494Y-7805228D01*
G01X12246841Y-7803342D01*
G01X12247918Y-7801187D01*
G01X12248727Y-7799301D01*
G01X12249535Y-7797146D01*
G01X12250343Y-7793913D01*
G01X12250612Y-7791758D01*
G01X12252767Y-7791758D01*
G01X12255731Y-7792027D01*
G01X12259502Y-7792566D01*
G01X12263813Y-7793105D01*
G01X12267584Y-7793644D01*
G01X12271894Y-7794183D01*
G01X12275666Y-7794721D01*
G01X12279976Y-7795260D01*
G01X12283748Y-7795799D01*
G01X12285364Y-7796338D01*
G01X12285836Y-7796944D01*
G01X12285634Y-7798223D01*
G01X12284556Y-7801456D01*
G01X12282401Y-7806305D01*
G01X12281323Y-7808460D01*
G01X12280246Y-7810346D01*
G01X12278899Y-7812232D01*
G01X12277821Y-7813579D01*
G01X12277013Y-7814926D01*
G01X12275935Y-7816273D01*
G01X12271894Y-7820314D01*
G01X12269739Y-7821930D01*
G01X12267045Y-7823816D01*
G01X12264890Y-7825163D01*
G01X12260580Y-7827318D01*
G01X12258425Y-7828126D01*
G01X12256000Y-7828934D01*
G01X12252767Y-7829743D01*
G01X12249804Y-7830281D01*
G01X12247110Y-7830820D01*
G01X12244147Y-7831359D01*
G37*
G36*
G01X12501149Y-7831359D02*
G01X12489834Y-7831628D01*
G01X12478789Y-7831359D01*
G01X12475017Y-7830820D01*
G01X12469630Y-7829743D01*
G01X12463972Y-7827857D01*
G01X12461548Y-7826779D01*
G01X12457776Y-7824624D01*
G01X12455621Y-7823277D01*
G01X12453735Y-7821661D01*
G01X12451041Y-7819506D01*
G01X12448347Y-7816812D01*
G01X12447001Y-7814926D01*
G01X12445384Y-7812501D01*
G01X12444037Y-7810346D01*
G01X12441882Y-7806036D01*
G01X12440804Y-7803611D01*
G01X12439727Y-7800379D01*
G01X12438919Y-7796607D01*
G01X12438380Y-7793644D01*
G01X12438111Y-7788795D01*
G01X12438380Y-7783946D01*
G01X12438919Y-7781252D01*
G01X12439727Y-7778288D01*
G01X12440804Y-7775864D01*
G01X12442151Y-7773170D01*
G01X12444037Y-7770476D01*
G01X12447270Y-7767243D01*
G01X12449156Y-7765627D01*
G01X12451580Y-7764010D01*
G01X12454005Y-7762663D01*
G01X12456968Y-7761586D01*
G01X12460201Y-7760508D01*
G01X12462087Y-7759431D01*
G01X12461548Y-7758623D01*
G01X12459931Y-7757814D01*
G01X12458315Y-7756737D01*
G01X12456160Y-7755120D01*
G01X12454274Y-7753504D01*
G01X12452927Y-7752426D01*
G01X12450233Y-7749194D01*
G01X12449156Y-7747847D01*
G01X12447270Y-7744075D01*
G01X12446192Y-7741651D01*
G01X12445384Y-7738687D01*
G01X12444845Y-7735993D01*
G01X12444576Y-7731953D01*
G01X12444845Y-7727912D01*
G01X12445384Y-7725487D01*
G01X12446192Y-7722793D01*
G01X12447270Y-7720369D01*
G01X12448347Y-7718213D01*
G01X12449694Y-7716058D01*
G01X12451311Y-7714173D01*
G01X12455352Y-7710132D01*
G01X12456968Y-7708785D01*
G01X12458584Y-7707707D01*
G01X12460470Y-7706629D01*
G01X12462625Y-7705552D01*
G01X12464511Y-7704744D01*
G01X12466666Y-7703936D01*
G01X12469360Y-7703127D01*
G01X12471785Y-7702589D01*
G01X12473940Y-7702050D01*
G01X12477173Y-7701511D01*
G01X12480944Y-7700972D01*
G01X12485254Y-7700703D01*
G01X12488487Y-7700433D01*
G01X12492259Y-7700164D01*
G01X12496030Y-7700433D01*
G01X12503034Y-7700972D01*
G01X12506806Y-7701511D01*
G01X12509500Y-7702050D01*
G01X12512463Y-7702858D01*
G01X12514888Y-7703666D01*
G01X12517043Y-7704474D01*
G01X12520814Y-7706091D01*
G01X12522970Y-7707438D01*
G01X12525664Y-7709323D01*
G01X12527819Y-7710940D01*
G01X12530513Y-7713634D01*
G01X12532129Y-7715519D01*
G01X12534823Y-7719291D01*
G01X12536170Y-7721446D01*
G01X12538325Y-7725756D01*
G01X12539133Y-7727642D01*
G01X12539941Y-7729797D01*
G01X12540750Y-7732222D01*
G01X12541019Y-7733569D01*
G01X12539403Y-7733569D01*
G01X12536978Y-7733838D01*
G01X12534284Y-7734377D01*
G01X12531051Y-7734916D01*
G01X12528357Y-7735455D01*
G01X12521892Y-7736532D01*
G01X12519198Y-7737071D01*
G01X12515965Y-7737610D01*
G01X12513271Y-7738149D01*
G01X12510039Y-7738687D01*
G01X12508220Y-7738620D01*
G01X12507614Y-7737879D01*
G01X12507345Y-7735993D01*
G01X12506806Y-7733838D01*
G01X12505998Y-7731414D01*
G01X12504920Y-7728989D01*
G01X12503573Y-7727103D01*
G01X12502226Y-7725756D01*
G01X12500341Y-7724409D01*
G01X12498185Y-7723332D01*
G01X12494953Y-7722524D01*
G01X12490912Y-7722254D01*
G01X12488487Y-7722524D01*
G01X12486332Y-7723332D01*
G01X12483638Y-7724948D01*
G01X12481483Y-7727373D01*
G01X12480136Y-7730336D01*
G01X12479597Y-7733030D01*
G01X12479328Y-7734916D01*
G01X12479328Y-7737071D01*
G01X12479867Y-7739765D01*
G01X12480675Y-7741651D01*
G01X12481752Y-7743267D01*
G01X12483099Y-7744883D01*
G01X12484446Y-7745961D01*
G01X12486332Y-7747308D01*
G01X12489026Y-7748655D01*
G01X12491720Y-7749463D01*
G01X12496569Y-7749733D01*
G01X12500071Y-7749733D01*
G01X12500071Y-7751349D01*
G01X12500341Y-7753773D01*
G01X12501418Y-7768859D01*
G01X12501687Y-7772092D01*
G01X12501687Y-7774517D01*
G01X12500071Y-7774247D01*
G01X12497647Y-7773709D01*
G01X12494953Y-7773170D01*
G01X12489565Y-7772900D01*
G01X12485254Y-7773170D01*
G01X12483099Y-7773978D01*
G01X12480405Y-7775594D01*
G01X12477981Y-7778019D01*
G01X12476364Y-7780174D01*
G01X12475287Y-7782329D01*
G01X12474209Y-7785562D01*
G01X12473671Y-7791758D01*
G01X12473940Y-7796876D01*
G01X12474479Y-7798762D01*
G01X12475287Y-7800917D01*
G01X12476634Y-7803342D01*
G01X12478250Y-7805228D01*
G01X12479597Y-7806575D01*
G01X12480944Y-7807652D01*
G01X12482561Y-7808460D01*
G01X12484985Y-7809538D01*
G01X12487948Y-7810077D01*
G01X12490104Y-7810346D01*
G01X12492259Y-7810346D01*
G01X12495222Y-7809807D01*
G01X12497647Y-7808999D01*
G01X12499802Y-7807652D01*
G01X12501687Y-7806036D01*
G01X12503034Y-7804150D01*
G01X12504381Y-7801995D01*
G01X12505459Y-7799840D01*
G01X12506267Y-7797415D01*
G01X12506806Y-7795260D01*
G01X12507614Y-7793105D01*
G01X12508490Y-7792095D01*
G01X12510039Y-7791758D01*
G01X12512733Y-7792027D01*
G01X12516504Y-7792566D01*
G01X12520814Y-7793105D01*
G01X12524586Y-7793644D01*
G01X12528896Y-7794183D01*
G01X12532668Y-7794721D01*
G01X12536978Y-7795260D01*
G01X12540750Y-7795799D01*
G01X12542097Y-7796338D01*
G01X12542366Y-7798223D01*
G01X12541558Y-7800917D01*
G01X12540480Y-7803611D01*
G01X12539403Y-7806036D01*
G01X12538325Y-7808191D01*
G01X12537247Y-7810077D01*
G01X12535092Y-7813309D01*
G01X12533745Y-7815195D01*
G01X12532129Y-7817081D01*
G01X12529435Y-7819775D01*
G01X12527280Y-7821391D01*
G01X12524855Y-7823277D01*
G01X12522431Y-7824893D01*
G01X12517582Y-7827318D01*
G01X12515427Y-7828126D01*
G01X12513002Y-7828934D01*
G01X12509769Y-7829743D01*
G01X12506806Y-7830281D01*
G01X12504112Y-7830820D01*
G01X12501149Y-7831359D01*
G37*
G36*
G01X12598708Y-8008928D02*
G01X12598708Y-8072505D01*
G01X12566381Y-8072505D01*
G01X12566381Y-8025900D01*
G01X12566246Y-7991013D01*
G01X12565842Y-7979564D01*
G01X12565034Y-7981719D01*
G01X12564495Y-7984413D01*
G01X12563687Y-7987107D01*
G01X12562879Y-7990609D01*
G01X12562340Y-7993034D01*
G01X12561531Y-7995727D01*
G01X12560184Y-8001116D01*
G01X12559376Y-8003809D01*
G01X12558568Y-8007311D01*
G01X12558029Y-8009736D01*
G01X12557221Y-8012430D01*
G01X12556413Y-8015932D01*
G01X12555874Y-8018357D01*
G01X12555066Y-8021051D01*
G01X12554258Y-8024553D01*
G01X12553450Y-8027247D01*
G01X12552641Y-8030210D01*
G01X12552103Y-8032904D01*
G01X12551294Y-8035598D01*
G01X12550486Y-8039100D01*
G01X12549947Y-8041524D01*
G01X12549139Y-8044219D01*
G01X12548331Y-8047721D01*
G01X12547793Y-8050145D01*
G01X12546984Y-8052570D01*
G01X12546176Y-8055803D01*
G01X12545637Y-8058227D01*
G01X12544829Y-8060921D01*
G01X12544021Y-8064423D01*
G01X12543482Y-8066847D01*
G01X12542674Y-8069541D01*
G01X12541866Y-8071966D01*
G01X12527049Y-8072505D01*
G01X12512502Y-8072505D01*
G01X12512233Y-8070619D01*
G01X12511694Y-8067925D01*
G01X12510886Y-8065231D01*
G01X12510077Y-8061729D01*
G01X12509539Y-8059304D01*
G01X12508730Y-8056611D01*
G01X12507653Y-8052839D01*
G01X12506844Y-8049337D01*
G01X12506306Y-8046913D01*
G01X12505497Y-8044219D01*
G01X12504689Y-8040716D01*
G01X12504151Y-8038292D01*
G01X12503343Y-8035598D01*
G01X12501996Y-8030210D01*
G01X12501187Y-8027516D01*
G01X12500379Y-8024014D01*
G01X12499840Y-8021589D01*
G01X12499032Y-8018896D01*
G01X12498224Y-8015393D01*
G01X12497685Y-8012969D01*
G01X12496877Y-8010275D01*
G01X12495530Y-8004887D01*
G01X12494722Y-8002193D01*
G01X12493914Y-7998691D01*
G01X12493375Y-7996266D01*
G01X12492567Y-7993573D01*
G01X12491759Y-7990070D01*
G01X12491220Y-7987646D01*
G01X12490411Y-7984952D01*
G01X12489334Y-7981180D01*
G01X12488526Y-7978756D01*
G01X12488256Y-7978554D01*
G01X12487987Y-7979025D01*
G01X12487717Y-8026169D01*
G01X12487717Y-8072505D01*
G01X12455390Y-8072505D01*
G01X12455390Y-7945890D01*
G01X12456737Y-7945620D01*
G01X12482599Y-7945351D01*
G01X12507114Y-7945351D01*
G01X12507383Y-7946967D01*
G01X12507922Y-7949392D01*
G01X12508730Y-7952086D01*
G01X12509539Y-7955588D01*
G01X12510347Y-7958282D01*
G01X12511155Y-7961245D01*
G01X12511694Y-7963939D01*
G01X12512502Y-7966633D01*
G01X12513310Y-7970135D01*
G01X12513849Y-7972560D01*
G01X12514657Y-7975254D01*
G01X12515465Y-7978756D01*
G01X12516273Y-7981450D01*
G01X12517081Y-7984413D01*
G01X12517620Y-7987107D01*
G01X12518429Y-7989801D01*
G01X12519237Y-7993303D01*
G01X12519776Y-7995727D01*
G01X12520584Y-7998421D01*
G01X12521392Y-8001924D01*
G01X12522200Y-8004617D01*
G01X12523008Y-8007581D01*
G01X12523547Y-8010275D01*
G01X12524355Y-8012969D01*
G01X12525163Y-8016471D01*
G01X12525702Y-8018896D01*
G01X12526510Y-8021051D01*
G01X12526982Y-8021859D01*
G01X12527319Y-8021589D01*
G01X12528127Y-8019165D01*
G01X12528935Y-8015932D01*
G01X12529474Y-8013507D01*
G01X12530282Y-8010814D01*
G01X12531090Y-8007311D01*
G01X12531629Y-8004887D01*
G01X12532437Y-8002463D01*
G01X12533245Y-7999230D01*
G01X12533784Y-7996805D01*
G01X12534592Y-7994111D01*
G01X12535400Y-7990609D01*
G01X12535939Y-7988184D01*
G01X12536747Y-7985491D01*
G01X12537825Y-7981719D01*
G01X12538633Y-7978217D01*
G01X12539172Y-7975793D01*
G01X12539980Y-7973099D01*
G01X12540788Y-7969596D01*
G01X12541596Y-7966903D01*
G01X12542404Y-7963939D01*
G01X12542943Y-7961245D01*
G01X12543751Y-7958551D01*
G01X12544560Y-7955049D01*
G01X12545099Y-7952624D01*
G01X12545907Y-7949931D01*
G01X12546984Y-7946698D01*
G01X12547523Y-7945351D01*
G01X12598708Y-7945351D01*
G01X12598708Y-8008928D01*
G37*
G36*
G01X12391544Y-8072236D02*
G01X12386156Y-8073313D01*
G01X12382923Y-8073852D01*
G01X12379960Y-8074391D01*
G01X12368915Y-8074660D01*
G01X12357600Y-8074391D01*
G01X12353290Y-8073852D01*
G01X12347902Y-8072774D01*
G01X12345208Y-8071966D01*
G01X12341706Y-8070889D01*
G01X12338743Y-8069811D01*
G01X12332277Y-8066578D01*
G01X12330122Y-8065231D01*
G01X12327697Y-8063615D01*
G01X12325812Y-8062268D01*
G01X12324465Y-8060921D01*
G01X12321771Y-8058766D01*
G01X12320424Y-8057419D01*
G01X12317191Y-8053647D01*
G01X12315844Y-8052031D01*
G01X12314497Y-8049876D01*
G01X12312881Y-8047451D01*
G01X12309379Y-8040447D01*
G01X12308301Y-8037753D01*
G01X12307224Y-8034520D01*
G01X12306146Y-8030749D01*
G01X12305338Y-8026439D01*
G01X12304799Y-8023206D01*
G01X12304260Y-8018896D01*
G01X12303721Y-8010814D01*
G01X12303560Y-8009197D01*
G01X12342784Y-8009197D01*
G01X12343053Y-8014585D01*
G01X12343592Y-8021051D01*
G01X12344669Y-8026977D01*
G01X12345477Y-8029402D01*
G01X12346555Y-8032365D01*
G01X12347902Y-8034790D01*
G01X12349249Y-8036676D01*
G01X12351943Y-8039369D01*
G01X12353829Y-8040986D01*
G01X12355984Y-8042333D01*
G01X12358139Y-8043410D01*
G01X12361372Y-8044488D01*
G01X12364335Y-8045027D01*
G01X12364335Y-8045027D01*
G01X12366221Y-8045296D01*
G01X12369993Y-8045566D01*
G01X12373225Y-8045296D01*
G01X12375111Y-8045027D01*
G01X12377536Y-8044757D01*
G01X12379691Y-8043949D01*
G01X12382115Y-8042871D01*
G01X12384270Y-8041524D01*
G01X12386156Y-8040177D01*
G01X12388850Y-8037484D01*
G01X12389927Y-8036137D01*
G01X12391005Y-8034251D01*
G01X12392352Y-8031826D01*
G01X12393430Y-8028863D01*
G01X12394507Y-8025361D01*
G01X12395316Y-8021051D01*
G01X12395854Y-8016201D01*
G01X12396124Y-8007850D01*
G01X12395854Y-8001116D01*
G01X12395316Y-7996266D01*
G01X12394238Y-7991417D01*
G01X12393430Y-7988993D01*
G01X12392352Y-7986568D01*
G01X12391274Y-7984413D01*
G01X12389927Y-7982527D01*
G01X12387773Y-7979833D01*
G01X12385617Y-7978217D01*
G01X12382923Y-7976331D01*
G01X12379960Y-7974984D01*
G01X12377536Y-7974176D01*
G01X12375380Y-7973637D01*
G01X12372417Y-7973368D01*
G01X12369993Y-7973099D01*
G01X12368376Y-7973099D01*
G01X12362988Y-7973637D01*
G01X12360564Y-7974446D01*
G01X12357600Y-7975523D01*
G01X12355714Y-7976601D01*
G01X12353829Y-7977947D01*
G01X12351943Y-7979564D01*
G01X12350596Y-7980911D01*
G01X12349249Y-7982527D01*
G01X12347902Y-7984683D01*
G01X12346555Y-7987376D01*
G01X12345477Y-7990070D01*
G01X12344669Y-7992764D01*
G01X12344131Y-7995189D01*
G01X12343592Y-7998421D01*
G01X12343323Y-8001924D01*
G01X12343053Y-8003809D01*
G01X12342784Y-8009197D01*
G01X12303560Y-8009197D01*
G01X12303452Y-8008120D01*
G01X12303721Y-8005426D01*
G01X12304260Y-7997344D01*
G01X12304799Y-7992495D01*
G01X12306954Y-7983874D01*
G01X12307763Y-7981450D01*
G01X12309917Y-7976062D01*
G01X12311264Y-7973637D01*
G01X12312611Y-7970943D01*
G01X12313959Y-7969057D01*
G01X12315036Y-7967711D01*
G01X12316383Y-7965556D01*
G01X12317999Y-7963670D01*
G01X12319077Y-7962323D01*
G01X12321771Y-7959629D01*
G01X12326620Y-7955588D01*
G01X12328775Y-7954241D01*
G01X12331200Y-7952624D01*
G01X12336049Y-7950200D01*
G01X12338473Y-7949123D01*
G01X12341167Y-7948045D01*
G01X12343592Y-7947237D01*
G01X12345747Y-7946698D01*
G01X12348441Y-7945890D01*
G01X12352482Y-7945081D01*
G01X12355445Y-7944543D01*
G01X12359756Y-7944004D01*
G01X12367837Y-7943465D01*
G01X12370531Y-7943196D01*
G01X12373225Y-7943465D01*
G01X12381307Y-7944004D01*
G01X12385617Y-7944543D01*
G01X12391005Y-7945620D01*
G01X12396663Y-7947506D01*
G01X12399626Y-7948584D01*
G01X12402050Y-7949661D01*
G01X12404206Y-7950739D01*
G01X12407977Y-7952894D01*
G01X12410132Y-7954241D01*
G01X12412018Y-7955588D01*
G01X12414173Y-7957204D01*
G01X12420100Y-7963131D01*
G01X12421716Y-7965017D01*
G01X12424410Y-7968788D01*
G01X12425757Y-7970943D01*
G01X12427912Y-7974715D01*
G01X12430067Y-7979564D01*
G01X12430876Y-7981719D01*
G01X12431684Y-7984144D01*
G01X12432492Y-7986837D01*
G01X12433031Y-7989262D01*
G01X12434108Y-7994650D01*
G01X12434647Y-7998421D01*
G01X12435186Y-8003271D01*
G01X12435455Y-8010275D01*
G01X12435186Y-8017279D01*
G01X12434647Y-8022667D01*
G01X12434108Y-8026439D01*
G01X12433031Y-8031287D01*
G01X12431145Y-8036945D01*
G01X12430067Y-8039908D01*
G01X12427912Y-8044219D01*
G01X12426565Y-8046643D01*
G01X12425218Y-8048798D01*
G01X12424141Y-8050414D01*
G01X12422794Y-8052300D01*
G01X12421177Y-8054186D01*
G01X12418483Y-8057419D01*
G01X12417136Y-8058766D01*
G01X12412287Y-8062807D01*
G01X12410671Y-8063884D01*
G01X12408785Y-8065231D01*
G01X12406361Y-8066578D01*
G01X12404475Y-8067656D01*
G01X12402050Y-8068733D01*
G01X12396663Y-8070889D01*
G01X12393699Y-8071697D01*
G01X12391544Y-8072236D01*
G37*
G36*
G01X12252537Y-8072774D02*
G01X12249843Y-8073313D01*
G01X12246071Y-8073852D01*
G01X12242839Y-8074391D01*
G01X12231254Y-8074660D01*
G01X12219671Y-8074391D01*
G01X12215360Y-8073852D01*
G01X12211589Y-8073313D01*
G01X12208895Y-8072505D01*
G01X12205662Y-8071697D01*
G01X12203237Y-8070889D01*
G01X12201083Y-8070080D01*
G01X12199197Y-8069272D01*
G01X12194886Y-8067117D01*
G01X12192731Y-8065770D01*
G01X12190846Y-8064423D01*
G01X12189499Y-8063346D01*
G01X12188151Y-8061999D01*
G01X12185457Y-8059843D01*
G01X12183303Y-8057149D01*
G01X12181686Y-8054994D01*
G01X12180070Y-8052570D01*
G01X12178992Y-8050684D01*
G01X12177914Y-8048529D01*
G01X12176837Y-8046104D01*
G01X12176029Y-8043949D01*
G01X12175490Y-8042063D01*
G01X12174413Y-8037214D01*
G01X12174143Y-8030749D01*
G01X12174413Y-8024283D01*
G01X12174951Y-8022128D01*
G01X12175759Y-8019704D01*
G01X12176567Y-8017549D01*
G01X12177376Y-8015663D01*
G01X12178453Y-8013507D01*
G01X12179531Y-8011622D01*
G01X12180609Y-8010275D01*
G01X12182225Y-8008120D01*
G01X12184111Y-8006234D01*
G01X12186804Y-8004079D01*
G01X12188960Y-8002463D01*
G01X12191384Y-8000846D01*
G01X12193270Y-7999769D01*
G01X12197580Y-7997613D01*
G01X12200005Y-7996536D01*
G01X12202699Y-7995458D01*
G01X12204854Y-7994650D01*
G01X12206740Y-7994111D01*
G01X12212397Y-7992226D01*
G01X12215630Y-7991417D01*
G01X12218054Y-7990879D01*
G01X12220479Y-7990070D01*
G01X12223981Y-7989262D01*
G01X12226675Y-7988723D01*
G01X12232063Y-7987376D01*
G01X12235565Y-7986568D01*
G01X12237989Y-7986029D01*
G01X12240414Y-7985221D01*
G01X12243377Y-7983874D01*
G01X12245533Y-7982527D01*
G01X12246879Y-7980641D01*
G01X12247687Y-7978486D01*
G01X12247957Y-7975793D01*
G01X12247418Y-7973099D01*
G01X12246341Y-7971482D01*
G01X12244994Y-7970135D01*
G01X12243377Y-7969057D01*
G01X12240953Y-7967980D01*
G01X12236912Y-7967172D01*
G01X12232871Y-7966903D01*
G01X12230446Y-7967172D01*
G01X12228022Y-7967711D01*
G01X12225328Y-7968519D01*
G01X12223173Y-7969596D01*
G01X12220748Y-7971213D01*
G01X12218863Y-7973637D01*
G01X12217785Y-7975523D01*
G01X12216707Y-7977678D01*
G01X12215630Y-7981180D01*
G01X12215091Y-7983066D01*
G01X12210242Y-7983066D01*
G01X12204584Y-7982797D01*
G01X12194886Y-7982258D01*
G01X12185727Y-7981719D01*
G01X12181686Y-7981450D01*
G01X12178453Y-7981450D01*
G01X12178453Y-7979294D01*
G01X12178723Y-7976331D01*
G01X12179531Y-7973637D01*
G01X12180609Y-7970135D01*
G01X12181686Y-7967172D01*
G01X12183033Y-7964478D01*
G01X12184380Y-7962053D01*
G01X12185996Y-7959629D01*
G01X12187613Y-7957474D01*
G01X12188960Y-7956127D01*
G01X12193001Y-7952894D01*
G01X12194886Y-7951547D01*
G01X12199736Y-7949123D01*
G01X12202160Y-7948045D01*
G01X12204854Y-7946967D01*
G01X12207548Y-7946159D01*
G01X12209973Y-7945620D01*
G01X12212666Y-7945081D01*
G01X12215899Y-7944543D01*
G01X12219671Y-7944004D01*
G01X12224250Y-7943734D01*
G01X12227214Y-7943465D01*
G01X12231793Y-7943196D01*
G01X12236373Y-7943465D01*
G01X12243916Y-7944004D01*
G01X12248226Y-7944543D01*
G01X12253614Y-7945620D01*
G01X12255769Y-7946159D01*
G01X12258194Y-7946967D01*
G01X12260888Y-7948045D01*
G01X12263313Y-7949123D01*
G01X12265467Y-7950200D01*
G01X12267353Y-7951277D01*
G01X12269239Y-7952624D01*
G01X12271933Y-7954510D01*
G01X12275166Y-7957743D01*
G01X12277860Y-7960976D01*
G01X12278937Y-7962592D01*
G01X12281362Y-7967441D01*
G01X12282439Y-7970135D01*
G01X12283247Y-7973099D01*
G01X12283786Y-7975793D01*
G01X12284594Y-7982258D01*
G01X12284325Y-7984413D01*
G01X12283786Y-7988184D01*
G01X12282978Y-7990879D01*
G01X12281901Y-7993842D01*
G01X12280823Y-7995997D01*
G01X12279476Y-7998152D01*
G01X12278129Y-8000038D01*
G01X12276513Y-8002193D01*
G01X12274627Y-8004079D01*
G01X12272472Y-8005695D01*
G01X12270047Y-8007581D01*
G01X12267623Y-8009197D01*
G01X12264929Y-8010544D01*
G01X12263043Y-8011622D01*
G01X12261427Y-8012430D01*
G01X12259541Y-8013238D01*
G01X12257116Y-8014316D01*
G01X12251190Y-8016471D01*
G01X12247687Y-8017549D01*
G01X12243916Y-8018626D01*
G01X12240414Y-8019434D01*
G01X12237989Y-8019973D01*
G01X12235296Y-8020781D01*
G01X12231793Y-8021589D01*
G01X12229369Y-8022128D01*
G01X12223711Y-8024014D01*
G01X12220748Y-8025091D01*
G01X12218324Y-8026439D01*
G01X12216438Y-8027786D01*
G01X12215091Y-8029133D01*
G01X12214013Y-8030749D01*
G01X12212936Y-8032904D01*
G01X12212127Y-8036137D01*
G01X12212397Y-8039908D01*
G01X12213744Y-8043141D01*
G01X12215360Y-8045027D01*
G01X12216707Y-8046104D01*
G01X12218593Y-8047451D01*
G01X12221017Y-8048529D01*
G01X12222903Y-8049067D01*
G01X12225597Y-8049606D01*
G01X12230985Y-8049876D01*
G01X12235296Y-8049606D01*
G01X12237181Y-8049067D01*
G01X12239336Y-8048259D01*
G01X12241491Y-8047182D01*
G01X12243916Y-8045566D01*
G01X12245802Y-8043680D01*
G01X12246879Y-8042333D01*
G01X12247957Y-8040716D01*
G01X12249034Y-8038831D01*
G01X12249843Y-8036676D01*
G01X12250651Y-8034251D01*
G01X12251190Y-8032096D01*
G01X12251459Y-8030210D01*
G01X12251998Y-8028863D01*
G01X12253884Y-8028324D01*
G01X12256308Y-8028594D01*
G01X12282170Y-8030210D01*
G01X12285941Y-8030479D01*
G01X12288905Y-8030479D01*
G01X12288905Y-8032904D01*
G01X12288636Y-8036137D01*
G01X12288097Y-8038831D01*
G01X12287289Y-8041794D01*
G01X12286480Y-8044219D01*
G01X12285672Y-8046374D01*
G01X12284056Y-8050145D01*
G01X12281901Y-8053917D01*
G01X12280823Y-8055533D01*
G01X12277590Y-8059843D01*
G01X12274896Y-8062537D01*
G01X12273011Y-8064154D01*
G01X12269239Y-8066847D01*
G01X12264390Y-8069272D01*
G01X12262235Y-8070080D01*
G01X12259810Y-8070889D01*
G01X12257116Y-8071697D01*
G01X12254692Y-8072236D01*
G01X12252537Y-8072774D01*
G37*
G36*
G01X12152591Y-8008928D02*
G01X12152591Y-8072505D01*
G01X12113260Y-8072505D01*
G01X12113260Y-7945351D01*
G01X12152591Y-7945351D01*
G01X12152591Y-8008928D01*
G37*
G36*
G01X12225636Y-8276975D02*
G01X12225636Y-8339205D01*
G01X12186304Y-8339205D01*
G01X12186304Y-8323580D01*
G01X12186102Y-8311727D01*
G01X12185496Y-8307416D01*
G01X12182802Y-8304723D01*
G01X12180108Y-8301490D01*
G01X12172026Y-8293408D01*
G01X12168794Y-8289636D01*
G01X12167447Y-8288289D01*
G01X12166841Y-8287751D01*
G01X12166100Y-8287751D01*
G01X12164753Y-8289367D01*
G01X12159365Y-8300143D01*
G01X12158018Y-8302298D01*
G01X12149128Y-8320078D01*
G01X12146973Y-8323849D01*
G01X12140507Y-8336780D01*
G01X12139430Y-8338397D01*
G01X12133032Y-8339003D01*
G01X12114915Y-8339205D01*
G01X12090939Y-8339205D01*
G01X12091477Y-8338127D01*
G01X12094171Y-8333817D01*
G01X12095249Y-8331931D01*
G01X12096596Y-8329776D01*
G01X12098213Y-8327082D01*
G01X12100906Y-8322772D01*
G01X12104139Y-8317384D01*
G01X12106833Y-8313074D01*
G01X12108449Y-8310380D01*
G01X12111143Y-8306069D01*
G01X12114376Y-8300681D01*
G01X12117070Y-8296371D01*
G01X12120303Y-8290983D01*
G01X12122997Y-8286673D01*
G01X12124613Y-8283979D01*
G01X12127307Y-8279669D01*
G01X12130540Y-8274281D01*
G01X12133234Y-8269971D01*
G01X12134850Y-8267277D01*
G01X12137544Y-8262966D01*
G01X12138621Y-8260542D01*
G01X12138621Y-8259599D01*
G01X12138083Y-8258926D01*
G01X12135389Y-8256231D01*
G01X12132156Y-8252460D01*
G01X12118686Y-8238990D01*
G01X12116531Y-8236296D01*
G01X12103061Y-8222827D01*
G01X12100906Y-8220133D01*
G01X12094171Y-8213398D01*
G01X12093633Y-8212320D01*
G01X12119225Y-8212051D01*
G01X12138554Y-8212253D01*
G01X12145356Y-8212859D01*
G01X12146703Y-8214206D01*
G01X12148859Y-8216900D01*
G01X12184419Y-8258387D01*
G01X12185766Y-8259195D01*
G01X12186169Y-8253470D01*
G01X12186304Y-8235757D01*
G01X12186304Y-8212051D01*
G01X12225097Y-8212051D01*
G01X12225366Y-8213398D01*
G01X12225636Y-8276975D01*
G37*
G36*
G01X12433877Y-8341091D02*
G01X12422024Y-8341360D01*
G01X12410709Y-8341091D01*
G01X12406399Y-8340552D01*
G01X12401011Y-8339474D01*
G01X12395354Y-8337589D01*
G01X12392929Y-8336511D01*
G01X12388619Y-8334356D01*
G01X12386464Y-8333009D01*
G01X12383770Y-8331123D01*
G01X12381076Y-8328968D01*
G01X12377843Y-8325735D01*
G01X12374611Y-8321964D01*
G01X12373533Y-8320617D01*
G01X12372456Y-8318731D01*
G01X12370839Y-8316306D01*
G01X12368414Y-8311457D01*
G01X12367337Y-8309033D01*
G01X12366259Y-8306339D01*
G01X12365182Y-8303376D01*
G01X12363566Y-8297718D01*
G01X12365182Y-8297449D01*
G01X12394815Y-8288559D01*
G01X12396970Y-8287751D01*
G01X12397779Y-8287818D01*
G01X12398048Y-8288559D01*
G01X12398317Y-8290444D01*
G01X12399126Y-8292869D01*
G01X12400203Y-8295833D01*
G01X12401281Y-8298526D01*
G01X12402358Y-8300681D01*
G01X12403436Y-8302298D01*
G01X12405052Y-8304453D01*
G01X12408285Y-8307686D01*
G01X12409901Y-8308763D01*
G01X12411787Y-8309571D01*
G01X12414211Y-8310649D01*
G01X12417714Y-8311457D01*
G01X12422024Y-8311996D01*
G01X12425526Y-8312266D01*
G01X12427412Y-8311996D01*
G01X12430106Y-8311457D01*
G01X12433069Y-8310649D01*
G01X12435224Y-8309571D01*
G01X12437379Y-8308224D01*
G01X12439265Y-8306877D01*
G01X12440612Y-8305531D01*
G01X12441959Y-8303645D01*
G01X12443306Y-8301220D01*
G01X12444384Y-8299065D01*
G01X12445192Y-8296910D01*
G01X12446269Y-8292600D01*
G01X12446808Y-8289367D01*
G01X12447347Y-8285596D01*
G01X12447616Y-8274550D01*
G01X12447347Y-8264583D01*
G01X12446808Y-8260811D01*
G01X12446000Y-8258117D01*
G01X12444923Y-8254615D01*
G01X12443845Y-8252191D01*
G01X12442767Y-8250305D01*
G01X12441690Y-8248689D01*
G01X12440612Y-8247341D01*
G01X12439265Y-8245994D01*
G01X12436571Y-8243839D01*
G01X12434955Y-8242762D01*
G01X12432800Y-8241684D01*
G01X12430644Y-8240876D01*
G01X12427951Y-8240068D01*
G01X12422024Y-8239529D01*
G01X12417175Y-8239799D01*
G01X12415020Y-8240337D01*
G01X12412595Y-8241146D01*
G01X12410440Y-8242223D01*
G01X12408016Y-8243839D01*
G01X12404783Y-8247072D01*
G01X12403166Y-8248958D01*
G01X12401819Y-8251113D01*
G01X12401011Y-8252999D01*
G01X12400203Y-8255154D01*
G01X12399395Y-8256770D01*
G01X12397240Y-8256770D01*
G01X12393468Y-8255962D01*
G01X12390774Y-8255423D01*
G01X12366529Y-8250036D01*
G01X12365182Y-8249497D01*
G01X12365182Y-8248150D01*
G01X12367337Y-8242762D01*
G01X12368414Y-8240337D01*
G01X12369492Y-8238182D01*
G01X12370570Y-8236296D01*
G01X12371917Y-8234141D01*
G01X12373533Y-8231717D01*
G01X12374880Y-8229831D01*
G01X12375957Y-8228484D01*
G01X12381346Y-8223096D01*
G01X12383231Y-8221480D01*
G01X12387003Y-8218786D01*
G01X12389158Y-8217439D01*
G01X12391313Y-8216361D01*
G01X12393737Y-8215284D01*
G01X12396431Y-8214206D01*
G01X12399934Y-8213129D01*
G01X12403166Y-8212320D01*
G01X12408554Y-8211243D01*
G01X12412326Y-8210704D01*
G01X12417175Y-8210434D01*
G01X12420407Y-8210165D01*
G01X12423371Y-8209896D01*
G01X12426334Y-8210165D01*
G01X12434416Y-8210704D01*
G01X12438726Y-8211243D01*
G01X12444114Y-8212320D01*
G01X12449771Y-8214206D01*
G01X12452735Y-8215284D01*
G01X12455159Y-8216361D01*
G01X12457584Y-8217708D01*
G01X12460278Y-8219055D01*
G01X12462164Y-8220402D01*
G01X12463511Y-8221480D01*
G01X12465666Y-8222827D01*
G01X12467551Y-8224713D01*
G01X12470246Y-8226867D01*
G01X12471862Y-8229023D01*
G01X12473747Y-8230909D01*
G01X12474825Y-8232256D01*
G01X12476172Y-8234411D01*
G01X12477789Y-8237104D01*
G01X12479944Y-8240876D01*
G01X12481021Y-8243301D01*
G01X12482099Y-8245994D01*
G01X12483715Y-8250844D01*
G01X12484523Y-8253807D01*
G01X12486140Y-8261889D01*
G01X12486409Y-8264583D01*
G01X12486679Y-8266738D01*
G01X12486948Y-8276706D01*
G01X12486679Y-8286673D01*
G01X12486140Y-8290983D01*
G01X12485062Y-8296910D01*
G01X12484254Y-8299334D01*
G01X12483446Y-8302029D01*
G01X12481829Y-8306339D01*
G01X12481021Y-8308224D01*
G01X12478866Y-8312535D01*
G01X12477519Y-8314690D01*
G01X12475903Y-8317114D01*
G01X12474556Y-8319000D01*
G01X12472939Y-8321156D01*
G01X12471323Y-8323041D01*
G01X12470246Y-8324388D01*
G01X12467551Y-8327082D01*
G01X12464857Y-8329237D01*
G01X12463241Y-8330584D01*
G01X12460009Y-8332739D01*
G01X12458123Y-8333817D01*
G01X12453813Y-8335972D01*
G01X12451927Y-8336780D01*
G01X12449771Y-8337589D01*
G01X12447077Y-8338397D01*
G01X12439804Y-8340013D01*
G01X12436033Y-8340552D01*
G01X12433877Y-8341091D01*
G37*
G36*
G01X12570729Y-8341091D02*
G01X12559684Y-8341360D01*
G01X12548100Y-8341091D01*
G01X12543790Y-8340552D01*
G01X12537863Y-8339474D01*
G01X12535169Y-8338666D01*
G01X12531667Y-8337589D01*
G01X12528973Y-8336511D01*
G01X12526549Y-8335433D01*
G01X12524394Y-8334356D01*
G01X12522239Y-8333009D01*
G01X12519544Y-8331123D01*
G01X12517389Y-8329507D01*
G01X12513349Y-8325466D01*
G01X12510116Y-8321425D01*
G01X12508769Y-8319539D01*
G01X12506344Y-8314690D01*
G01X12505267Y-8312266D01*
G01X12504189Y-8309033D01*
G01X12503381Y-8305261D01*
G01X12502842Y-8302298D01*
G01X12502573Y-8297179D01*
G01X12502842Y-8292061D01*
G01X12503381Y-8289636D01*
G01X12504189Y-8286943D01*
G01X12504997Y-8284518D01*
G01X12506075Y-8282093D01*
G01X12507422Y-8279669D01*
G01X12508769Y-8277783D01*
G01X12510924Y-8275089D01*
G01X12514965Y-8271048D01*
G01X12516312Y-8269971D01*
G01X12517659Y-8269163D01*
G01X12519544Y-8267816D01*
G01X12522239Y-8266199D01*
G01X12527087Y-8263774D01*
G01X12528973Y-8262966D01*
G01X12531129Y-8262158D01*
G01X12538402Y-8259734D01*
G01X12540557Y-8259195D01*
G01X12542982Y-8258387D01*
G01X12546214Y-8257579D01*
G01X12548639Y-8257040D01*
G01X12551333Y-8256231D01*
G01X12554835Y-8255423D01*
G01X12564533Y-8253268D01*
G01X12567227Y-8252460D01*
G01X12569652Y-8251652D01*
G01X12572076Y-8250574D01*
G01X12573962Y-8249227D01*
G01X12575579Y-8247341D01*
G01X12576656Y-8244109D01*
G01X12576656Y-8241415D01*
G01X12575848Y-8239529D01*
G01X12574231Y-8237374D01*
G01X12572076Y-8235757D01*
G01X12569652Y-8234680D01*
G01X12565880Y-8233872D01*
G01X12561839Y-8233603D01*
G01X12559415Y-8233872D01*
G01X12556721Y-8234411D01*
G01X12553757Y-8235219D01*
G01X12551333Y-8236566D01*
G01X12549447Y-8238182D01*
G01X12548100Y-8239529D01*
G01X12547023Y-8240876D01*
G01X12546214Y-8242493D01*
G01X12545137Y-8244917D01*
G01X12544059Y-8248419D01*
G01X12543521Y-8250305D01*
G01X12542174Y-8250036D01*
G01X12537324Y-8249766D01*
G01X12533014Y-8249497D01*
G01X12514696Y-8248419D01*
G01X12510385Y-8248150D01*
G01X12506883Y-8248150D01*
G01X12506883Y-8246533D01*
G01X12507153Y-8244109D01*
G01X12507691Y-8241684D01*
G01X12508499Y-8238990D01*
G01X12509307Y-8236566D01*
G01X12510116Y-8234411D01*
G01X12510924Y-8232525D01*
G01X12512001Y-8230370D01*
G01X12513349Y-8228214D01*
G01X12514426Y-8226598D01*
G01X12515504Y-8225251D01*
G01X12519544Y-8221210D01*
G01X12520891Y-8220133D01*
G01X12522777Y-8218786D01*
G01X12524933Y-8217439D01*
G01X12529243Y-8215284D01*
G01X12531398Y-8214476D01*
G01X12533823Y-8213667D01*
G01X12536516Y-8212859D01*
G01X12538941Y-8212320D01*
G01X12544329Y-8211243D01*
G01X12548100Y-8210704D01*
G01X12556182Y-8210165D01*
G01X12560493Y-8209896D01*
G01X12564803Y-8210165D01*
G01X12572884Y-8210704D01*
G01X12577195Y-8211243D01*
G01X12582583Y-8212320D01*
G01X12588240Y-8214206D01*
G01X12590664Y-8215284D01*
G01X12594975Y-8217439D01*
G01X12597130Y-8218786D01*
G01X12599824Y-8220671D01*
G01X12604404Y-8225251D01*
G01X12606559Y-8227945D01*
G01X12607636Y-8229561D01*
G01X12608714Y-8231447D01*
G01X12609791Y-8233603D01*
G01X12610869Y-8236296D01*
G01X12611947Y-8239799D01*
G01X12612755Y-8244109D01*
G01X12613024Y-8249227D01*
G01X12612755Y-8252729D01*
G01X12612216Y-8255423D01*
G01X12611408Y-8258387D01*
G01X12610330Y-8260811D01*
G01X12609253Y-8262966D01*
G01X12607906Y-8265121D01*
G01X12606020Y-8267816D01*
G01X12602787Y-8271048D01*
G01X12599554Y-8273742D01*
G01X12598207Y-8274820D01*
G01X12596591Y-8275628D01*
G01X12594436Y-8276975D01*
G01X12589587Y-8279399D01*
G01X12587701Y-8280207D01*
G01X12585546Y-8281016D01*
G01X12582852Y-8282093D01*
G01X12576387Y-8284249D01*
G01X12573423Y-8285057D01*
G01X12571268Y-8285596D01*
G01X12568574Y-8286404D01*
G01X12564803Y-8287212D01*
G01X12562109Y-8287751D01*
G01X12559415Y-8288559D01*
G01X12555643Y-8289636D01*
G01X12552141Y-8290714D01*
G01X12549717Y-8291791D01*
G01X12548100Y-8292600D01*
G01X12546214Y-8293677D01*
G01X12544059Y-8295833D01*
G01X12542174Y-8298257D01*
G01X12541096Y-8301220D01*
G01X12540827Y-8304992D01*
G01X12541366Y-8307955D01*
G01X12542443Y-8309841D01*
G01X12543521Y-8311188D01*
G01X12544598Y-8312266D01*
G01X12546484Y-8313613D01*
G01X12549178Y-8314959D01*
G01X12552411Y-8316037D01*
G01X12558607Y-8316576D01*
G01X12563725Y-8316306D01*
G01X12565880Y-8315767D01*
G01X12568036Y-8314959D01*
G01X12570191Y-8313882D01*
G01X12572076Y-8312535D01*
G01X12574770Y-8309841D01*
G01X12575848Y-8308494D01*
G01X12576926Y-8306608D01*
G01X12578003Y-8304453D01*
G01X12579081Y-8301759D01*
G01X12579889Y-8297987D01*
G01X12580966Y-8295563D01*
G01X12582852Y-8295024D01*
G01X12584738Y-8295294D01*
G01X12610600Y-8296910D01*
G01X12614641Y-8297179D01*
G01X12617065Y-8297449D01*
G01X12617873Y-8298257D01*
G01X12617065Y-8303914D01*
G01X12616526Y-8306339D01*
G01X12615718Y-8309033D01*
G01X12614910Y-8311457D01*
G01X12614102Y-8313613D01*
G01X12612486Y-8317384D01*
G01X12611139Y-8319539D01*
G01X12609522Y-8322233D01*
G01X12608175Y-8324119D01*
G01X12607097Y-8325466D01*
G01X12601710Y-8330854D01*
G01X12599824Y-8332201D01*
G01X12597938Y-8333278D01*
G01X12596322Y-8334356D01*
G01X12593897Y-8335433D01*
G01X12591742Y-8336511D01*
G01X12589587Y-8337319D01*
G01X12587163Y-8338127D01*
G01X12583930Y-8338936D01*
G01X12580966Y-8339474D01*
G01X12578273Y-8340013D01*
G01X12575040Y-8340552D01*
G01X12572346Y-8340821D01*
G01X12570729Y-8341091D01*
G37*
G36*
G01X12344169Y-8275628D02*
G01X12344169Y-8339205D01*
G01X12243416Y-8339205D01*
G01X12243416Y-8308494D01*
G01X12244763Y-8308224D01*
G01X12275474Y-8307955D01*
G01X12304837Y-8307955D01*
G01X12304837Y-8212590D01*
G01X12306184Y-8212320D01*
G01X12325850Y-8212051D01*
G01X12344169Y-8212051D01*
G01X12344169Y-8275628D01*
G37*
G36*
G01X12598708Y-8529628D02*
G01X12598708Y-8593205D01*
G01X12566381Y-8593205D01*
G01X12566381Y-8546600D01*
G01X12566246Y-8511713D01*
G01X12565842Y-8500264D01*
G01X12565034Y-8502419D01*
G01X12564495Y-8505113D01*
G01X12563687Y-8507807D01*
G01X12562879Y-8511309D01*
G01X12562340Y-8513734D01*
G01X12561531Y-8516427D01*
G01X12560184Y-8521816D01*
G01X12559376Y-8524509D01*
G01X12558568Y-8528011D01*
G01X12558029Y-8530436D01*
G01X12557221Y-8533130D01*
G01X12556413Y-8536632D01*
G01X12555874Y-8539057D01*
G01X12555066Y-8541751D01*
G01X12554258Y-8545253D01*
G01X12553450Y-8547947D01*
G01X12552641Y-8550910D01*
G01X12552103Y-8553604D01*
G01X12551294Y-8556298D01*
G01X12550486Y-8559800D01*
G01X12549947Y-8562224D01*
G01X12549139Y-8564919D01*
G01X12548331Y-8568421D01*
G01X12547793Y-8570845D01*
G01X12546984Y-8573270D01*
G01X12546176Y-8576503D01*
G01X12545637Y-8578927D01*
G01X12544829Y-8581621D01*
G01X12544021Y-8585123D01*
G01X12543482Y-8587547D01*
G01X12542674Y-8590241D01*
G01X12541866Y-8592666D01*
G01X12527049Y-8593205D01*
G01X12512502Y-8593205D01*
G01X12512233Y-8591319D01*
G01X12511694Y-8588625D01*
G01X12510886Y-8585931D01*
G01X12510077Y-8582429D01*
G01X12509539Y-8580004D01*
G01X12508730Y-8577311D01*
G01X12507653Y-8573539D01*
G01X12506844Y-8570037D01*
G01X12506306Y-8567613D01*
G01X12505497Y-8564919D01*
G01X12504689Y-8561416D01*
G01X12504151Y-8558992D01*
G01X12503343Y-8556298D01*
G01X12501996Y-8550910D01*
G01X12501187Y-8548216D01*
G01X12500379Y-8544714D01*
G01X12499840Y-8542289D01*
G01X12499032Y-8539596D01*
G01X12498224Y-8536093D01*
G01X12497685Y-8533669D01*
G01X12496877Y-8530975D01*
G01X12495530Y-8525587D01*
G01X12494722Y-8522893D01*
G01X12493914Y-8519391D01*
G01X12493375Y-8516966D01*
G01X12492567Y-8514273D01*
G01X12491759Y-8510770D01*
G01X12491220Y-8508346D01*
G01X12490411Y-8505652D01*
G01X12489334Y-8501880D01*
G01X12488526Y-8499456D01*
G01X12488256Y-8499254D01*
G01X12487987Y-8499725D01*
G01X12487717Y-8546869D01*
G01X12487717Y-8593205D01*
G01X12455390Y-8593205D01*
G01X12455390Y-8466590D01*
G01X12456737Y-8466320D01*
G01X12482599Y-8466051D01*
G01X12507114Y-8466051D01*
G01X12507383Y-8467667D01*
G01X12507922Y-8470092D01*
G01X12508730Y-8472786D01*
G01X12509539Y-8476288D01*
G01X12510347Y-8478982D01*
G01X12511155Y-8481945D01*
G01X12511694Y-8484639D01*
G01X12512502Y-8487333D01*
G01X12513310Y-8490835D01*
G01X12513849Y-8493260D01*
G01X12514657Y-8495954D01*
G01X12515465Y-8499456D01*
G01X12516273Y-8502150D01*
G01X12517081Y-8505113D01*
G01X12517620Y-8507807D01*
G01X12518429Y-8510501D01*
G01X12519237Y-8514003D01*
G01X12519776Y-8516427D01*
G01X12520584Y-8519121D01*
G01X12521392Y-8522624D01*
G01X12522200Y-8525317D01*
G01X12523008Y-8528281D01*
G01X12523547Y-8530975D01*
G01X12524355Y-8533669D01*
G01X12525163Y-8537171D01*
G01X12525702Y-8539596D01*
G01X12526510Y-8541751D01*
G01X12526982Y-8542559D01*
G01X12527319Y-8542289D01*
G01X12528127Y-8539865D01*
G01X12528935Y-8536632D01*
G01X12529474Y-8534207D01*
G01X12530282Y-8531514D01*
G01X12531090Y-8528011D01*
G01X12531629Y-8525587D01*
G01X12532437Y-8523163D01*
G01X12533245Y-8519930D01*
G01X12533784Y-8517505D01*
G01X12534592Y-8514811D01*
G01X12535400Y-8511309D01*
G01X12535939Y-8508884D01*
G01X12536747Y-8506191D01*
G01X12537825Y-8502419D01*
G01X12538633Y-8498917D01*
G01X12539172Y-8496493D01*
G01X12539980Y-8493799D01*
G01X12540788Y-8490296D01*
G01X12541596Y-8487603D01*
G01X12542404Y-8484639D01*
G01X12542943Y-8481945D01*
G01X12543751Y-8479251D01*
G01X12544560Y-8475749D01*
G01X12545099Y-8473324D01*
G01X12545907Y-8470631D01*
G01X12546984Y-8467398D01*
G01X12547523Y-8466051D01*
G01X12598708Y-8466051D01*
G01X12598708Y-8529628D01*
G37*
G36*
G01X12191115Y-8593474D02*
G01X12188960Y-8594013D01*
G01X12185188Y-8594552D01*
G01X12182225Y-8595091D01*
G01X12171180Y-8595360D01*
G01X12159865Y-8595091D01*
G01X12156094Y-8594552D01*
G01X12150167Y-8593474D01*
G01X12147473Y-8592666D01*
G01X12143971Y-8591589D01*
G01X12141277Y-8590511D01*
G01X12138853Y-8589433D01*
G01X12136697Y-8588356D01*
G01X12132926Y-8586201D01*
G01X12131309Y-8585123D01*
G01X12127538Y-8582429D01*
G01X12124844Y-8579735D01*
G01X12123227Y-8578388D01*
G01X12121881Y-8576772D01*
G01X12120534Y-8575425D01*
G01X12119187Y-8573809D01*
G01X12118109Y-8572192D01*
G01X12116762Y-8570306D01*
G01X12115146Y-8567882D01*
G01X12113799Y-8565457D01*
G01X12112721Y-8563302D01*
G01X12111644Y-8560877D01*
G01X12110566Y-8558184D01*
G01X12109758Y-8555759D01*
G01X12109219Y-8553604D01*
G01X12108411Y-8550910D01*
G01X12107872Y-8547947D01*
G01X12107603Y-8546061D01*
G01X12107064Y-8543367D01*
G01X12106794Y-8540404D01*
G01X12106525Y-8538518D01*
G01X12106256Y-8528820D01*
G01X12145318Y-8528820D01*
G01X12145318Y-8530436D01*
G01X12145857Y-8540673D01*
G01X12146396Y-8544444D01*
G01X12146934Y-8546869D01*
G01X12147743Y-8549563D01*
G01X12148551Y-8551987D01*
G01X12149359Y-8553873D01*
G01X12152053Y-8557914D01*
G01X12155286Y-8561147D01*
G01X12156902Y-8562224D01*
G01X12160673Y-8564110D01*
G01X12163906Y-8565188D01*
G01X12166600Y-8565727D01*
G01X12166600Y-8565727D01*
G01X12168486Y-8565996D01*
G01X12172527Y-8566266D01*
G01X12176029Y-8565996D01*
G01X12177645Y-8565727D01*
G01X12179800Y-8565457D01*
G01X12182225Y-8564649D01*
G01X12184649Y-8563571D01*
G01X12186804Y-8562224D01*
G01X12188690Y-8560608D01*
G01X12191384Y-8557914D01*
G01X12192731Y-8556029D01*
G01X12194078Y-8553604D01*
G01X12195156Y-8551449D01*
G01X12195964Y-8549294D01*
G01X12197041Y-8544983D01*
G01X12197580Y-8542289D01*
G01X12198119Y-8538518D01*
G01X12198389Y-8528281D01*
G01X12198119Y-8519660D01*
G01X12197580Y-8515889D01*
G01X12196772Y-8513195D01*
G01X12195964Y-8510231D01*
G01X12195156Y-8508076D01*
G01X12194078Y-8505921D01*
G01X12192731Y-8503766D01*
G01X12191384Y-8501880D01*
G01X12190037Y-8500533D01*
G01X12187343Y-8498378D01*
G01X12185727Y-8497301D01*
G01X12183572Y-8496223D01*
G01X12181147Y-8495146D01*
G01X12177645Y-8494337D01*
G01X12174143Y-8494068D01*
G01X12172257Y-8493799D01*
G01X12170641Y-8493799D01*
G01X12165253Y-8494337D01*
G01X12162829Y-8495146D01*
G01X12159865Y-8496223D01*
G01X12157979Y-8497301D01*
G01X12156633Y-8498378D01*
G01X12154477Y-8499994D01*
G01X12152322Y-8502419D01*
G01X12150975Y-8504305D01*
G01X12149897Y-8506191D01*
G01X12148820Y-8508346D01*
G01X12148012Y-8510501D01*
G01X12147204Y-8512926D01*
G01X12146665Y-8515081D01*
G01X12146396Y-8516966D01*
G01X12145857Y-8520199D01*
G01X12145587Y-8525317D01*
G01X12145318Y-8528820D01*
G01X12106256Y-8528820D01*
G01X12106525Y-8519121D01*
G01X12107064Y-8514273D01*
G01X12108141Y-8508884D01*
G01X12108950Y-8506191D01*
G01X12110027Y-8502689D01*
G01X12111105Y-8499725D01*
G01X12112183Y-8497031D01*
G01X12113260Y-8494876D01*
G01X12115415Y-8491104D01*
G01X12116493Y-8489488D01*
G01X12119187Y-8485717D01*
G01X12120534Y-8484370D01*
G01X12123227Y-8481137D01*
G01X12125383Y-8479521D01*
G01X12127269Y-8477635D01*
G01X12128616Y-8476557D01*
G01X12130771Y-8475210D01*
G01X12133464Y-8473594D01*
G01X12137236Y-8471439D01*
G01X12142085Y-8469284D01*
G01X12145049Y-8468206D01*
G01X12148012Y-8467398D01*
G01X12152322Y-8466320D01*
G01X12157710Y-8465243D01*
G01X12160134Y-8464973D01*
G01X12162020Y-8464704D01*
G01X12170641Y-8464165D01*
G01X12173066Y-8463896D01*
G01X12175490Y-8464165D01*
G01X12183572Y-8464704D01*
G01X12187882Y-8465243D01*
G01X12193270Y-8466320D01*
G01X12195694Y-8467129D01*
G01X12199197Y-8468206D01*
G01X12201891Y-8469284D01*
G01X12205662Y-8470900D01*
G01X12207817Y-8471977D01*
G01X12209703Y-8473055D01*
G01X12212936Y-8475210D01*
G01X12214821Y-8476557D01*
G01X12216707Y-8478174D01*
G01X12218054Y-8479521D01*
G01X12220209Y-8481137D01*
G01X12221826Y-8483023D01*
G01X12222903Y-8484370D01*
G01X12224520Y-8486256D01*
G01X12227214Y-8490027D01*
G01X12228561Y-8492182D01*
G01X12231793Y-8498647D01*
G01X12232871Y-8501341D01*
G01X12233949Y-8504305D01*
G01X12234757Y-8507268D01*
G01X12235296Y-8509423D01*
G01X12236373Y-8514811D01*
G01X12236912Y-8518044D01*
G01X12237451Y-8522354D01*
G01X12237720Y-8531514D01*
G01X12237451Y-8539596D01*
G01X12236912Y-8544444D01*
G01X12235834Y-8550371D01*
G01X12235026Y-8553065D01*
G01X12233949Y-8556567D01*
G01X12232871Y-8559531D01*
G01X12230716Y-8564380D01*
G01X12229638Y-8566266D01*
G01X12228561Y-8567882D01*
G01X12227214Y-8570037D01*
G01X12225597Y-8572461D01*
G01X12223981Y-8574347D01*
G01X12221826Y-8577041D01*
G01X12217785Y-8581082D01*
G01X12213744Y-8584315D01*
G01X12211858Y-8585393D01*
G01X12209434Y-8587009D01*
G01X12204584Y-8589433D01*
G01X12202699Y-8590241D01*
G01X12200544Y-8591050D01*
G01X12195156Y-8592666D01*
G01X12193001Y-8593205D01*
G01X12191115Y-8593474D01*
G37*
G36*
G01X12328506Y-8594013D02*
G01X12325273Y-8594552D01*
G01X12322579Y-8594821D01*
G01X12320963Y-8595091D01*
G01X12309917Y-8595360D01*
G01X12298334Y-8595091D01*
G01X12294023Y-8594552D01*
G01X12288097Y-8593474D01*
G01X12285403Y-8592666D01*
G01X12282170Y-8591589D01*
G01X12279207Y-8590511D01*
G01X12276782Y-8589433D01*
G01X12274627Y-8588356D01*
G01X12272741Y-8587278D01*
G01X12268970Y-8584584D01*
G01X12267623Y-8583507D01*
G01X12263582Y-8579466D01*
G01X12261427Y-8576772D01*
G01X12260080Y-8574886D01*
G01X12258463Y-8572461D01*
G01X12257116Y-8569767D01*
G01X12256039Y-8567343D01*
G01X12254961Y-8564649D01*
G01X12254153Y-8561416D01*
G01X12253614Y-8558992D01*
G01X12253076Y-8555220D01*
G01X12252806Y-8550910D01*
G01X12253076Y-8546600D01*
G01X12253614Y-8543906D01*
G01X12254423Y-8540943D01*
G01X12255231Y-8538787D01*
G01X12256039Y-8536901D01*
G01X12257116Y-8534746D01*
G01X12258733Y-8532053D01*
G01X12260349Y-8529897D01*
G01X12264390Y-8525856D01*
G01X12267084Y-8523701D01*
G01X12268970Y-8522354D01*
G01X12271125Y-8521007D01*
G01X12273011Y-8519930D01*
G01X12275166Y-8518852D01*
G01X12280015Y-8516697D01*
G01X12282978Y-8515619D01*
G01X12289444Y-8513464D01*
G01X12292407Y-8512656D01*
G01X12294562Y-8512117D01*
G01X12297256Y-8511309D01*
G01X12300758Y-8510501D01*
G01X12303183Y-8509962D01*
G01X12308571Y-8508615D01*
G01X12312342Y-8507807D01*
G01X12315036Y-8507268D01*
G01X12320693Y-8505383D01*
G01X12323657Y-8503766D01*
G01X12325543Y-8501880D01*
G01X12326620Y-8499994D01*
G01X12327159Y-8497301D01*
G01X12326620Y-8494607D01*
G01X12325543Y-8492451D01*
G01X12323657Y-8490566D01*
G01X12321501Y-8489219D01*
G01X12318807Y-8488411D01*
G01X12316114Y-8487872D01*
G01X12312881Y-8487603D01*
G01X12309648Y-8487872D01*
G01X12306954Y-8488411D01*
G01X12304260Y-8489219D01*
G01X12302644Y-8490027D01*
G01X12300489Y-8491374D01*
G01X12298603Y-8493260D01*
G01X12297256Y-8495146D01*
G01X12295909Y-8497839D01*
G01X12294293Y-8502689D01*
G01X12293552Y-8503833D01*
G01X12292407Y-8504036D01*
G01X12287558Y-8503766D01*
G01X12283247Y-8503497D01*
G01X12264929Y-8502419D01*
G01X12260619Y-8502150D01*
G01X12257116Y-8502150D01*
G01X12257116Y-8500803D01*
G01X12257386Y-8498647D01*
G01X12258463Y-8493799D01*
G01X12259271Y-8491374D01*
G01X12260349Y-8488411D01*
G01X12261427Y-8485986D01*
G01X12262774Y-8483561D01*
G01X12264121Y-8481406D01*
G01X12265737Y-8479251D01*
G01X12268970Y-8476019D01*
G01X12270856Y-8474402D01*
G01X12274627Y-8471708D01*
G01X12279476Y-8469284D01*
G01X12281631Y-8468476D01*
G01X12284056Y-8467667D01*
G01X12286750Y-8466859D01*
G01X12289174Y-8466320D01*
G01X12294562Y-8465243D01*
G01X12298334Y-8464704D01*
G01X12306416Y-8464165D01*
G01X12310726Y-8463896D01*
G01X12315036Y-8464165D01*
G01X12323118Y-8464704D01*
G01X12327428Y-8465243D01*
G01X12332816Y-8466320D01*
G01X12338473Y-8468206D01*
G01X12341437Y-8469553D01*
G01X12344131Y-8470900D01*
G01X12346555Y-8472247D01*
G01X12348980Y-8473863D01*
G01X12350866Y-8475480D01*
G01X12352213Y-8476827D01*
G01X12353829Y-8478174D01*
G01X12355176Y-8479790D01*
G01X12356792Y-8481945D01*
G01X12358409Y-8484370D01*
G01X12359486Y-8486256D01*
G01X12360564Y-8488680D01*
G01X12361641Y-8491643D01*
G01X12362449Y-8494876D01*
G01X12362988Y-8497570D01*
G01X12363257Y-8502419D01*
G01X12362988Y-8507268D01*
G01X12362449Y-8509693D01*
G01X12361641Y-8512387D01*
G01X12360564Y-8515081D01*
G01X12359217Y-8517774D01*
G01X12357600Y-8520199D01*
G01X12355984Y-8522085D01*
G01X12351943Y-8526126D01*
G01X12350596Y-8527203D01*
G01X12349249Y-8528011D01*
G01X12347363Y-8529359D01*
G01X12345208Y-8530706D01*
G01X12340898Y-8532861D01*
G01X12338473Y-8533938D01*
G01X12333086Y-8536093D01*
G01X12326620Y-8538249D01*
G01X12323657Y-8539057D01*
G01X12321501Y-8539596D01*
G01X12318807Y-8540404D01*
G01X12315036Y-8541212D01*
G01X12312342Y-8541751D01*
G01X12309648Y-8542559D01*
G01X12305877Y-8543636D01*
G01X12302374Y-8544714D01*
G01X12299950Y-8545791D01*
G01X12297795Y-8546869D01*
G01X12295909Y-8548216D01*
G01X12294562Y-8549563D01*
G01X12292946Y-8551449D01*
G01X12291599Y-8554143D01*
G01X12291060Y-8558184D01*
G01X12291868Y-8562224D01*
G01X12293215Y-8564380D01*
G01X12295909Y-8567074D01*
G01X12297526Y-8568151D01*
G01X12299411Y-8568959D01*
G01X12302105Y-8569767D01*
G01X12304799Y-8570306D01*
G01X12309379Y-8570576D01*
G01X12313959Y-8570306D01*
G01X12316114Y-8569767D01*
G01X12318269Y-8568959D01*
G01X12320424Y-8567882D01*
G01X12322310Y-8566535D01*
G01X12325004Y-8563841D01*
G01X12326081Y-8562494D01*
G01X12327428Y-8560608D01*
G01X12328506Y-8558184D01*
G01X12329044Y-8556298D01*
G01X12329853Y-8553873D01*
G01X12330391Y-8551179D01*
G01X12331200Y-8549563D01*
G01X12333086Y-8549024D01*
G01X12334971Y-8549294D01*
G01X12360833Y-8550910D01*
G01X12364874Y-8551179D01*
G01X12368107Y-8551179D01*
G01X12368107Y-8552526D01*
G01X12367837Y-8554681D01*
G01X12367299Y-8558453D01*
G01X12366490Y-8561147D01*
G01X12365682Y-8564380D01*
G01X12364874Y-8566535D01*
G01X12363257Y-8570306D01*
G01X12362180Y-8572461D01*
G01X12361103Y-8574347D01*
G01X12358409Y-8578119D01*
G01X12357331Y-8579466D01*
G01X12355984Y-8580813D01*
G01X12354637Y-8582429D01*
G01X12353290Y-8583776D01*
G01X12351943Y-8584854D01*
G01X12350327Y-8586201D01*
G01X12348441Y-8587278D01*
G01X12346286Y-8588625D01*
G01X12343861Y-8589703D01*
G01X12341976Y-8590511D01*
G01X12339820Y-8591319D01*
G01X12337396Y-8592127D01*
G01X12334163Y-8592936D01*
G01X12331200Y-8593474D01*
G01X12328506Y-8594013D01*
G37*
G36*
G01X12428990Y-8529628D02*
G01X12428990Y-8593205D01*
G01X12389658Y-8593205D01*
G01X12389658Y-8466051D01*
G01X12428990Y-8466051D01*
G01X12428990Y-8529628D01*
G37*
G36*
G01X12472670Y-8836391D02*
G01X12461625Y-8836660D01*
G01X12450580Y-8836391D01*
G01X12446269Y-8835852D01*
G01X12440881Y-8834774D01*
G01X12438726Y-8834236D01*
G01X12432261Y-8831811D01*
G01X12430106Y-8830733D01*
G01X12427681Y-8829386D01*
G01X12425257Y-8827770D01*
G01X12422563Y-8825884D01*
G01X12420677Y-8823999D01*
G01X12417983Y-8821843D01*
G01X12416367Y-8819688D01*
G01X12414481Y-8817803D01*
G01X12413403Y-8816456D01*
G01X12412326Y-8814570D01*
G01X12410709Y-8812145D01*
G01X12407207Y-8805141D01*
G01X12406130Y-8802447D01*
G01X12405052Y-8799484D01*
G01X12403974Y-8795981D01*
G01X12403436Y-8793557D01*
G01X12404783Y-8792749D01*
G01X12406938Y-8792210D01*
G01X12409363Y-8791402D01*
G01X12416367Y-8789247D01*
G01X12419330Y-8788439D01*
G01X12421754Y-8787630D01*
G01X12435224Y-8783589D01*
G01X12437110Y-8783320D01*
G01X12437649Y-8784667D01*
G01X12438187Y-8786822D01*
G01X12438996Y-8789247D01*
G01X12440073Y-8792210D01*
G01X12442229Y-8796520D01*
G01X12443576Y-8798406D01*
G01X12445731Y-8801100D01*
G01X12447077Y-8802447D01*
G01X12448963Y-8803794D01*
G01X12451119Y-8804871D01*
G01X12453543Y-8805949D01*
G01X12457045Y-8806757D01*
G01X12461356Y-8807296D01*
G01X12465127Y-8807566D01*
G01X12467282Y-8807296D01*
G01X12469707Y-8806757D01*
G01X12472401Y-8805949D01*
G01X12474825Y-8804871D01*
G01X12476711Y-8803794D01*
G01X12478058Y-8802716D01*
G01X12480752Y-8800023D01*
G01X12481829Y-8798676D01*
G01X12483715Y-8794904D01*
G01X12484793Y-8791941D01*
G01X12485601Y-8788439D01*
G01X12486140Y-8785744D01*
G01X12486679Y-8782512D01*
G01X12486948Y-8778471D01*
G01X12487217Y-8776046D01*
G01X12487487Y-8770120D01*
G01X12487217Y-8764193D01*
G01X12486679Y-8758805D01*
G01X12486140Y-8755842D01*
G01X12485331Y-8752609D01*
G01X12484523Y-8750184D01*
G01X12483715Y-8748029D01*
G01X12482368Y-8745874D01*
G01X12480483Y-8743180D01*
G01X12477250Y-8739947D01*
G01X12475364Y-8738601D01*
G01X12473478Y-8737523D01*
G01X12471862Y-8736715D01*
G01X12469707Y-8735907D01*
G01X12467551Y-8735368D01*
G01X12465666Y-8735099D01*
G01X12461086Y-8734829D01*
G01X12456506Y-8735099D01*
G01X12454351Y-8735637D01*
G01X12452196Y-8736446D01*
G01X12450041Y-8737523D01*
G01X12448155Y-8738601D01*
G01X12446808Y-8739678D01*
G01X12444114Y-8742372D01*
G01X12442767Y-8743989D01*
G01X12441690Y-8745874D01*
G01X12440612Y-8748029D01*
G01X12439534Y-8750993D01*
G01X12438996Y-8752609D01*
G01X12437379Y-8752340D01*
G01X12405860Y-8745336D01*
G01X12404783Y-8744258D01*
G01X12405052Y-8742641D01*
G01X12406669Y-8738331D01*
G01X12409901Y-8731866D01*
G01X12410979Y-8729980D01*
G01X12412326Y-8728094D01*
G01X12414211Y-8725400D01*
G01X12415828Y-8723245D01*
G01X12421216Y-8717857D01*
G01X12423910Y-8715702D01*
G01X12425526Y-8714624D01*
G01X12427143Y-8713816D01*
G01X12429028Y-8712739D01*
G01X12433339Y-8710584D01*
G01X12436033Y-8709506D01*
G01X12438726Y-8708698D01*
G01X12440881Y-8708159D01*
G01X12443576Y-8707351D01*
G01X12446539Y-8706812D01*
G01X12452196Y-8706004D01*
G01X12459739Y-8705465D01*
G01X12462703Y-8705196D01*
G01X12465666Y-8705465D01*
G01X12473747Y-8706004D01*
G01X12478058Y-8706543D01*
G01X12483446Y-8707620D01*
G01X12489103Y-8709506D01*
G01X12492066Y-8710584D01*
G01X12494760Y-8711661D01*
G01X12496916Y-8712739D01*
G01X12499071Y-8714086D01*
G01X12501764Y-8715702D01*
G01X12503650Y-8717049D01*
G01X12507691Y-8720282D01*
G01X12510385Y-8722976D01*
G01X12513618Y-8726747D01*
G01X12514696Y-8728094D01*
G01X12516043Y-8730249D01*
G01X12517659Y-8732943D01*
G01X12520891Y-8739409D01*
G01X12521700Y-8741294D01*
G01X12522239Y-8743180D01*
G01X12523047Y-8745605D01*
G01X12524124Y-8749107D01*
G01X12524933Y-8753148D01*
G01X12525471Y-8756111D01*
G01X12526010Y-8760421D01*
G01X12526549Y-8767426D01*
G01X12526818Y-8772544D01*
G01X12526549Y-8777663D01*
G01X12526010Y-8783589D01*
G01X12525471Y-8787361D01*
G01X12524394Y-8792749D01*
G01X12523586Y-8795173D01*
G01X12522777Y-8797867D01*
G01X12521161Y-8802177D01*
G01X12520353Y-8804063D01*
G01X12519275Y-8806219D01*
G01X12518197Y-8808104D01*
G01X12517120Y-8809721D01*
G01X12515773Y-8811876D01*
G01X12514426Y-8813761D01*
G01X12512810Y-8815917D01*
G01X12510654Y-8818611D01*
G01X12506075Y-8823190D01*
G01X12503920Y-8824807D01*
G01X12501495Y-8826693D01*
G01X12499071Y-8828309D01*
G01X12492066Y-8831811D01*
G01X12489103Y-8832889D01*
G01X12485601Y-8833966D01*
G01X12481829Y-8834774D01*
G01X12479136Y-8835313D01*
G01X12472670Y-8836391D01*
G37*
G36*
G01X12255269Y-8770928D02*
G01X12255269Y-8834505D01*
G01X12218093Y-8834505D01*
G01X12218093Y-8800292D01*
G01X12217958Y-8774699D01*
G01X12217554Y-8766348D01*
G01X12216207Y-8767964D01*
G01X12213513Y-8771736D01*
G01X12208664Y-8779010D01*
G01X12205970Y-8782781D01*
G01X12201121Y-8790055D01*
G01X12197349Y-8795443D01*
G01X12192500Y-8802716D01*
G01X12189806Y-8806488D01*
G01X12184957Y-8813761D01*
G01X12181186Y-8819149D01*
G01X12176337Y-8826423D01*
G01X12173643Y-8830194D01*
G01X12172026Y-8832619D01*
G01X12171084Y-8833697D01*
G01X12169871Y-8834236D01*
G01X12151014Y-8834505D01*
G01X12133503Y-8834505D01*
G01X12133503Y-8707351D01*
G01X12170141Y-8707351D01*
G01X12170410Y-8708698D01*
G01X12170679Y-8743450D01*
G01X12170814Y-8768436D01*
G01X12171218Y-8776585D01*
G01X12172565Y-8774969D01*
G01X12175259Y-8771197D01*
G01X12181724Y-8761499D01*
G01X12184419Y-8757727D01*
G01X12190884Y-8748029D01*
G01X12193578Y-8744258D01*
G01X12198427Y-8736984D01*
G01X12201121Y-8733213D01*
G01X12207586Y-8723514D01*
G01X12210280Y-8719743D01*
G01X12216746Y-8710045D01*
G01X12218093Y-8708159D01*
G01X12223076Y-8707553D01*
G01X12236950Y-8707351D01*
G01X12255269Y-8707351D01*
G01X12255269Y-8770928D01*
G37*
G36*
G01X12343361Y-8836391D02*
G01X12332316Y-8836660D01*
G01X12320732Y-8836391D01*
G01X12316421Y-8835852D01*
G01X12311034Y-8834774D01*
G01X12308609Y-8834236D01*
G01X12306184Y-8833427D01*
G01X12304029Y-8832619D01*
G01X12301605Y-8831811D01*
G01X12299180Y-8830733D01*
G01X12295409Y-8828578D01*
G01X12293523Y-8827231D01*
G01X12292176Y-8826154D01*
G01X12290021Y-8824807D01*
G01X12286788Y-8821574D01*
G01X12285172Y-8819688D01*
G01X12283825Y-8817803D01*
G01X12282747Y-8816456D01*
G01X12281670Y-8814839D01*
G01X12279514Y-8811067D01*
G01X12278706Y-8809182D01*
G01X12277898Y-8807027D01*
G01X12276821Y-8804063D01*
G01X12276013Y-8799753D01*
G01X12275474Y-8794904D01*
G01X12275204Y-8791402D01*
G01X12276013Y-8785744D01*
G01X12276551Y-8783589D01*
G01X12277359Y-8781165D01*
G01X12278167Y-8779010D01*
G01X12278976Y-8777124D01*
G01X12280053Y-8775238D01*
G01X12281670Y-8772814D01*
G01X12283286Y-8770659D01*
G01X12285980Y-8767964D01*
G01X12287866Y-8766348D01*
G01X12291637Y-8763654D01*
G01X12295947Y-8760960D01*
G01X12298641Y-8759613D01*
G01X12304029Y-8757458D01*
G01X12306993Y-8756381D01*
G01X12310226Y-8755303D01*
G01X12313189Y-8754495D01*
G01X12315344Y-8753956D01*
G01X12317769Y-8753148D01*
G01X12321001Y-8752340D01*
G01X12323426Y-8751801D01*
G01X12326120Y-8750993D01*
G01X12329891Y-8750184D01*
G01X12332585Y-8749646D01*
G01X12337434Y-8748568D01*
G01X12343091Y-8746683D01*
G01X12346055Y-8745066D01*
G01X12347941Y-8743180D01*
G01X12349018Y-8741564D01*
G01X12349557Y-8738601D01*
G01X12348749Y-8735099D01*
G01X12347402Y-8732943D01*
G01X12345786Y-8731596D01*
G01X12343900Y-8730519D01*
G01X12341206Y-8729711D01*
G01X12338512Y-8729172D01*
G01X12335279Y-8728903D01*
G01X12332046Y-8729172D01*
G01X12329353Y-8729711D01*
G01X12326659Y-8730519D01*
G01X12324503Y-8731596D01*
G01X12322617Y-8732943D01*
G01X12321271Y-8734290D01*
G01X12319924Y-8736176D01*
G01X12318846Y-8738331D01*
G01X12317769Y-8740756D01*
G01X12316960Y-8743989D01*
G01X12316691Y-8745605D01*
G01X12314805Y-8745336D01*
G01X12309687Y-8745066D01*
G01X12305646Y-8744797D01*
G01X12287327Y-8743719D01*
G01X12283286Y-8743450D01*
G01X12280794Y-8743180D01*
G01X12279784Y-8742372D01*
G01X12279784Y-8740486D01*
G01X12280323Y-8737793D01*
G01X12281131Y-8734829D01*
G01X12282747Y-8729980D01*
G01X12283825Y-8727556D01*
G01X12284903Y-8725400D01*
G01X12286249Y-8723245D01*
G01X12287596Y-8721359D01*
G01X12288674Y-8720013D01*
G01X12291368Y-8717319D01*
G01X12293254Y-8715702D01*
G01X12298103Y-8712469D01*
G01X12300797Y-8711123D01*
G01X12303491Y-8710045D01*
G01X12306454Y-8708967D01*
G01X12309956Y-8707890D01*
G01X12313997Y-8707081D01*
G01X12316960Y-8706543D01*
G01X12321271Y-8706004D01*
G01X12328814Y-8705465D01*
G01X12333393Y-8705196D01*
G01X12337973Y-8705465D01*
G01X12345516Y-8706004D01*
G01X12349826Y-8706543D01*
G01X12355214Y-8707620D01*
G01X12357639Y-8708429D01*
G01X12360333Y-8709237D01*
G01X12362488Y-8710045D01*
G01X12364913Y-8711123D01*
G01X12367067Y-8712200D01*
G01X12369223Y-8713547D01*
G01X12371109Y-8714894D01*
G01X12375149Y-8718127D01*
G01X12376496Y-8719474D01*
G01X12378113Y-8721629D01*
G01X12379999Y-8724323D01*
G01X12381346Y-8726478D01*
G01X12382423Y-8728633D01*
G01X12383501Y-8731057D01*
G01X12384309Y-8733751D01*
G01X12384847Y-8736176D01*
G01X12385386Y-8738331D01*
G01X12385656Y-8743989D01*
G01X12385386Y-8749107D01*
G01X12384847Y-8751531D01*
G01X12384039Y-8753956D01*
G01X12382423Y-8757727D01*
G01X12381076Y-8759883D01*
G01X12379190Y-8762577D01*
G01X12374611Y-8767156D01*
G01X12373264Y-8768234D01*
G01X12371378Y-8769581D01*
G01X12368953Y-8771197D01*
G01X12366529Y-8772544D01*
G01X12362219Y-8774699D01*
G01X12359794Y-8775777D01*
G01X12357100Y-8776854D01*
G01X12350634Y-8779010D01*
G01X12347133Y-8780087D01*
G01X12343361Y-8781165D01*
G01X12339859Y-8781973D01*
G01X12332585Y-8783589D01*
G01X12330161Y-8784397D01*
G01X12327467Y-8785206D01*
G01X12323156Y-8786822D01*
G01X12321271Y-8787630D01*
G01X12319385Y-8788708D01*
G01X12317769Y-8790055D01*
G01X12316421Y-8791402D01*
G01X12315344Y-8792749D01*
G01X12314536Y-8794365D01*
G01X12313727Y-8797059D01*
G01X12313458Y-8800292D01*
G01X12313997Y-8802716D01*
G01X12315074Y-8804871D01*
G01X12316421Y-8806488D01*
G01X12317769Y-8807835D01*
G01X12319116Y-8808913D01*
G01X12320732Y-8809721D01*
G01X12323156Y-8810798D01*
G01X12327197Y-8811606D01*
G01X12332854Y-8811876D01*
G01X12336896Y-8811606D01*
G01X12339320Y-8810798D01*
G01X12342014Y-8809721D01*
G01X12344169Y-8808374D01*
G01X12346055Y-8807027D01*
G01X12347671Y-8805141D01*
G01X12349018Y-8803255D01*
G01X12350096Y-8801369D01*
G01X12351173Y-8799214D01*
G01X12351981Y-8796790D01*
G01X12353059Y-8791941D01*
G01X12353329Y-8790324D01*
G01X12355214Y-8790324D01*
G01X12357908Y-8790594D01*
G01X12375149Y-8791671D01*
G01X12387272Y-8792479D01*
G01X12390505Y-8792479D01*
G01X12390505Y-8794365D01*
G01X12390236Y-8797059D01*
G01X12389158Y-8802447D01*
G01X12387272Y-8808104D01*
G01X12386194Y-8810529D01*
G01X12385117Y-8812684D01*
G01X12383770Y-8815109D01*
G01X12382423Y-8817264D01*
G01X12381346Y-8818880D01*
G01X12380268Y-8820227D01*
G01X12378921Y-8821574D01*
G01X12376766Y-8824268D01*
G01X12374611Y-8825884D01*
G01X12372186Y-8827770D01*
G01X12369761Y-8829386D01*
G01X12367067Y-8830733D01*
G01X12364374Y-8831811D01*
G01X12361410Y-8832889D01*
G01X12357908Y-8833966D01*
G01X12354137Y-8834774D01*
G01X12351443Y-8835313D01*
G01X12347671Y-8835852D01*
G01X12345247Y-8836121D01*
G01X12343361Y-8836391D01*
G37*
G36*
G01X12595052Y-9101474D02*
G01X12592358Y-9102013D01*
G01X12589125Y-9102552D01*
G01X12586701Y-9103091D01*
G01X12574578Y-9103360D01*
G01X12562724Y-9103091D01*
G01X12556798Y-9102552D01*
G01X12554104Y-9102013D01*
G01X12550871Y-9101474D01*
G01X12547639Y-9100666D01*
G01X12543867Y-9099589D01*
G01X12540365Y-9098511D01*
G01X12537671Y-9097433D01*
G01X12535516Y-9096625D01*
G01X12533630Y-9095817D01*
G01X12527164Y-9092584D01*
G01X12521507Y-9089351D01*
G01X12519891Y-9088274D01*
G01X12517736Y-9086927D01*
G01X12512887Y-9083694D01*
G01X12512079Y-9076353D01*
G01X12511809Y-9055947D01*
G01X12511809Y-9029007D01*
G01X12572153Y-9029007D01*
G01X12572423Y-9030354D01*
G01X12572692Y-9043554D01*
G01X12572692Y-9055408D01*
G01X12546291Y-9055408D01*
G01X12546291Y-9061604D01*
G01X12546494Y-9066318D01*
G01X12547100Y-9068069D01*
G01X12555181Y-9072110D01*
G01X12558145Y-9073188D01*
G01X12561647Y-9074266D01*
G01X12565419Y-9075074D01*
G01X12568382Y-9075343D01*
G01X12570267Y-9075613D01*
G01X12573770Y-9075882D01*
G01X12577272Y-9075613D01*
G01X12581043Y-9075074D01*
G01X12583468Y-9074266D01*
G01X12586431Y-9073188D01*
G01X12588317Y-9072110D01*
G01X12590203Y-9070763D01*
G01X12592089Y-9069147D01*
G01X12593436Y-9067800D01*
G01X12595052Y-9065914D01*
G01X12596399Y-9063759D01*
G01X12598554Y-9059449D01*
G01X12599362Y-9057294D01*
G01X12599901Y-9055139D01*
G01X12600979Y-9049751D01*
G01X12601517Y-9045440D01*
G01X12601787Y-9036820D01*
G01X12601517Y-9028199D01*
G01X12600979Y-9023889D01*
G01X12600440Y-9021464D01*
G01X12599631Y-9018770D01*
G01X12598823Y-9016615D01*
G01X12598015Y-9014729D01*
G01X12596937Y-9012574D01*
G01X12595860Y-9010689D01*
G01X12594783Y-9009341D01*
G01X12592089Y-9006647D01*
G01X12590203Y-9005031D01*
G01X12588047Y-9003684D01*
G01X12585893Y-9002607D01*
G01X12583468Y-9001529D01*
G01X12580235Y-9000721D01*
G01X12577272Y-9000182D01*
G01X12572961Y-8999913D01*
G01X12568651Y-9000182D01*
G01X12566227Y-9000721D01*
G01X12563533Y-9001529D01*
G01X12561108Y-9002607D01*
G01X12559223Y-9003684D01*
G01X12557876Y-9004762D01*
G01X12555181Y-9007456D01*
G01X12554104Y-9009072D01*
G01X12552218Y-9012844D01*
G01X12551410Y-9014056D01*
G01X12550063Y-9014460D01*
G01X12547639Y-9014191D01*
G01X12535785Y-9012036D01*
G01X12529320Y-9010958D01*
G01X12526626Y-9010419D01*
G01X12523393Y-9009880D01*
G01X12520699Y-9009341D01*
G01X12517466Y-9008803D01*
G01X12514503Y-9007994D01*
G01X12513829Y-9007321D01*
G01X12513964Y-9006378D01*
G01X12514773Y-9003954D01*
G01X12515581Y-9001799D01*
G01X12517736Y-8996949D01*
G01X12519083Y-8994794D01*
G01X12520430Y-8992370D01*
G01X12521507Y-8990753D01*
G01X12522585Y-8989406D01*
G01X12524201Y-8987251D01*
G01X12526087Y-8985366D01*
G01X12530128Y-8982133D01*
G01X12532014Y-8980786D01*
G01X12534169Y-8979439D01*
G01X12538479Y-8977284D01*
G01X12540904Y-8976206D01*
G01X12544136Y-8975129D01*
G01X12547639Y-8974320D01*
G01X12550333Y-8973781D01*
G01X12554104Y-8973243D01*
G01X12558414Y-8972704D01*
G01X12567574Y-8972165D01*
G01X12573231Y-8971896D01*
G01X12578888Y-8972165D01*
G01X12586431Y-8972704D01*
G01X12590741Y-8973243D01*
G01X12596668Y-8974320D01*
G01X12599093Y-8975129D01*
G01X12601787Y-8975937D01*
G01X12603942Y-8976745D01*
G01X12606636Y-8977823D01*
G01X12609060Y-8978900D01*
G01X12611216Y-8980247D01*
G01X12613909Y-8981863D01*
G01X12616334Y-8983480D01*
G01X12618220Y-8984827D01*
G01X12619567Y-8986174D01*
G01X12622261Y-8988329D01*
G01X12624954Y-8991023D01*
G01X12626571Y-8993178D01*
G01X12628726Y-8995872D01*
G01X12630612Y-8998566D01*
G01X12632228Y-9001260D01*
G01X12634653Y-9006109D01*
G01X12635730Y-9008533D01*
G01X12636808Y-9011227D01*
G01X12638424Y-9016615D01*
G01X12639233Y-9019848D01*
G01X12639771Y-9022811D01*
G01X12640310Y-9026044D01*
G01X12640849Y-9030354D01*
G01X12641118Y-9039514D01*
G01X12640849Y-9047596D01*
G01X12640310Y-9051906D01*
G01X12639771Y-9054869D01*
G01X12638963Y-9058102D01*
G01X12637347Y-9063490D01*
G01X12636539Y-9065914D01*
G01X12635730Y-9068069D01*
G01X12634114Y-9071841D01*
G01X12631959Y-9075613D01*
G01X12630612Y-9077767D01*
G01X12628996Y-9080192D01*
G01X12627649Y-9082078D01*
G01X12625493Y-9084772D01*
G01X12622799Y-9087466D01*
G01X12619028Y-9090699D01*
G01X12617411Y-9092046D01*
G01X12613101Y-9094739D01*
G01X12611216Y-9095817D01*
G01X12609060Y-9096894D01*
G01X12606636Y-9097972D01*
G01X12603942Y-9099050D01*
G01X12600709Y-9100127D01*
G01X12597476Y-9100936D01*
G01X12595052Y-9101474D01*
G37*
G36*
G01X12174259Y-9101205D02*
G01X12170487Y-9102013D01*
G01X12167793Y-9102552D01*
G01X12165907Y-9103091D01*
G01X12155940Y-9103360D01*
G01X12146241Y-9103091D01*
G01X12141931Y-9102552D01*
G01X12137082Y-9101474D01*
G01X12131425Y-9099589D01*
G01X12129000Y-9098511D01*
G01X12126845Y-9097433D01*
G01X12124959Y-9096356D01*
G01X12123074Y-9095009D01*
G01X12121188Y-9093393D01*
G01X12116608Y-9088813D01*
G01X12115261Y-9087196D01*
G01X12114184Y-9085311D01*
G01X12112837Y-9083156D01*
G01X12110412Y-9078306D01*
G01X12109604Y-9076151D01*
G01X12107987Y-9071302D01*
G01X12106910Y-9066992D01*
G01X12105294Y-9058910D01*
G01X12105024Y-9056486D01*
G01X12104755Y-9054600D01*
G01X12104216Y-9049212D01*
G01X12103996Y-9039514D01*
G01X12138968Y-9039514D01*
G01X12139237Y-9054600D01*
G01X12139776Y-9059987D01*
G01X12140315Y-9062951D01*
G01X12141123Y-9066184D01*
G01X12141931Y-9068608D01*
G01X12142739Y-9070763D01*
G01X12143817Y-9072649D01*
G01X12145164Y-9074266D01*
G01X12147319Y-9076421D01*
G01X12148936Y-9077498D01*
G01X12148936Y-9077498D01*
G01X12151091Y-9078576D01*
G01X12154862Y-9079384D01*
G01X12157826Y-9079384D01*
G01X12159442Y-9079114D01*
G01X12161327Y-9078576D01*
G01X12162944Y-9077498D01*
G01X12164830Y-9075613D01*
G01X12166446Y-9073727D01*
G01X12167524Y-9072110D01*
G01X12168601Y-9069955D01*
G01X12169679Y-9066992D01*
G01X12170487Y-9063220D01*
G01X12171026Y-9060526D01*
G01X12171564Y-9057294D01*
G01X12171834Y-9053791D01*
G01X12172103Y-9051906D01*
G01X12172373Y-9036550D01*
G01X12172103Y-9021195D01*
G01X12171564Y-9015268D01*
G01X12170487Y-9009341D01*
G01X12169679Y-9006647D01*
G01X12168601Y-9003954D01*
G01X12167524Y-9001799D01*
G01X12166177Y-8999913D01*
G01X12164830Y-8998566D01*
G01X12163483Y-8997488D01*
G01X12161597Y-8996680D01*
G01X12158634Y-8995872D01*
G01X12154862Y-8995603D01*
G01X12152168Y-8995872D01*
G01X12150013Y-8996680D01*
G01X12148127Y-8998027D01*
G01X12146780Y-8999104D01*
G01X12145703Y-9000182D01*
G01X12144894Y-9001529D01*
G01X12143547Y-9003415D01*
G01X12142470Y-9005839D01*
G01X12141931Y-9007725D01*
G01X12141123Y-9010419D01*
G01X12140315Y-9014729D01*
G01X12139776Y-9018501D01*
G01X12139507Y-9021734D01*
G01X12139237Y-9024427D01*
G01X12138968Y-9039514D01*
G01X12103996Y-9039514D01*
G01X12103947Y-9037359D01*
G01X12104216Y-9025505D01*
G01X12104755Y-9020117D01*
G01X12105294Y-9016346D01*
G01X12106371Y-9010958D01*
G01X12107449Y-9006109D01*
G01X12109334Y-9000451D01*
G01X12110412Y-8997488D01*
G01X12111490Y-8995333D01*
G01X12112567Y-8993447D01*
G01X12113914Y-8991292D01*
G01X12115531Y-8988867D01*
G01X12117147Y-8986982D01*
G01X12121188Y-8982941D01*
G01X12123074Y-8981324D01*
G01X12124959Y-8979977D01*
G01X12126576Y-8978900D01*
G01X12128461Y-8977823D01*
G01X12130617Y-8976745D01*
G01X12133311Y-8975667D01*
G01X12136274Y-8974590D01*
G01X12139776Y-8973781D01*
G01X12142470Y-8973243D01*
G01X12145703Y-8972704D01*
G01X12150013Y-8972434D01*
G01X12155401Y-8971896D01*
G01X12158095Y-8972165D01*
G01X12165638Y-8972704D01*
G01X12169409Y-8973243D01*
G01X12171834Y-8973781D01*
G01X12174528Y-8974590D01*
G01X12179377Y-8976206D01*
G01X12181801Y-8977284D01*
G01X12183957Y-8978361D01*
G01X12185843Y-8979439D01*
G01X12188267Y-8981055D01*
G01X12190422Y-8982671D01*
G01X12194463Y-8986713D01*
G01X12197696Y-8991023D01*
G01X12199851Y-8994794D01*
G01X12200929Y-8997219D01*
G01X12202006Y-8999913D01*
G01X12203623Y-9004762D01*
G01X12204431Y-9007725D01*
G01X12205508Y-9013113D01*
G01X12206047Y-9016346D01*
G01X12206586Y-9020117D01*
G01X12206855Y-9023889D01*
G01X12207124Y-9026044D01*
G01X12207394Y-9038167D01*
G01X12207124Y-9050289D01*
G01X12206586Y-9055677D01*
G01X12206047Y-9059449D01*
G01X12204969Y-9065376D01*
G01X12204161Y-9068069D01*
G01X12203353Y-9071302D01*
G01X12202545Y-9073727D01*
G01X12201737Y-9075882D01*
G01X12200120Y-9079653D01*
G01X12199312Y-9081270D01*
G01X12196618Y-9085311D01*
G01X12195002Y-9087466D01*
G01X12193655Y-9088813D01*
G01X12191500Y-9091507D01*
G01X12189344Y-9093123D01*
G01X12186651Y-9095278D01*
G01X12184226Y-9096894D01*
G01X12182340Y-9097972D01*
G01X12180185Y-9099050D01*
G01X12177491Y-9100127D01*
G01X12174259Y-9101205D01*
G37*
G36*
G01X12308686Y-9101474D02*
G01X12305723Y-9102013D01*
G01X12302490Y-9102552D01*
G01X12299527Y-9103091D01*
G01X12288481Y-9103360D01*
G01X12277167Y-9103091D01*
G01X12272857Y-9102552D01*
G01X12267469Y-9101474D01*
G01X12264775Y-9100666D01*
G01X12261273Y-9099589D01*
G01X12258309Y-9098511D01*
G01X12255885Y-9097433D01*
G01X12253730Y-9096356D01*
G01X12251844Y-9095278D01*
G01X12249689Y-9093931D01*
G01X12247264Y-9092315D01*
G01X12245379Y-9090968D01*
G01X12242684Y-9088813D01*
G01X12238644Y-9084772D01*
G01X12237027Y-9082617D01*
G01X12235141Y-9080192D01*
G01X12233794Y-9078306D01*
G01X12232717Y-9076690D01*
G01X12230562Y-9072919D01*
G01X12228407Y-9068069D01*
G01X12227599Y-9065914D01*
G01X12226790Y-9063490D01*
G01X12225982Y-9060526D01*
G01X12225443Y-9057833D01*
G01X12224904Y-9055677D01*
G01X12224366Y-9052444D01*
G01X12223827Y-9048134D01*
G01X12223557Y-9044093D01*
G01X12223288Y-9041669D01*
G01X12223114Y-9038706D01*
G01X12262350Y-9038706D01*
G01X12262620Y-9044363D01*
G01X12263159Y-9050289D01*
G01X12263697Y-9053253D01*
G01X12264506Y-9056486D01*
G01X12265314Y-9058910D01*
G01X12266122Y-9061065D01*
G01X12267199Y-9063220D01*
G01X12268546Y-9065106D01*
G01X12269893Y-9066723D01*
G01X12271510Y-9068339D01*
G01X12273126Y-9069416D01*
G01X12275012Y-9070763D01*
G01X12277706Y-9072110D01*
G01X12280939Y-9073188D01*
G01X12283902Y-9073727D01*
G01X12283902Y-9073727D01*
G01X12285787Y-9073996D01*
G01X12289559Y-9074266D01*
G01X12292792Y-9073996D01*
G01X12294677Y-9073727D01*
G01X12297102Y-9073457D01*
G01X12299257Y-9072649D01*
G01X12301682Y-9071571D01*
G01X12303837Y-9070224D01*
G01X12305723Y-9068877D01*
G01X12308417Y-9066184D01*
G01X12309494Y-9064837D01*
G01X12310303Y-9063220D01*
G01X12311380Y-9061334D01*
G01X12312457Y-9058910D01*
G01X12313535Y-9055947D01*
G01X12314343Y-9052175D01*
G01X12314882Y-9049212D01*
G01X12315421Y-9044363D01*
G01X12315690Y-9037359D01*
G01X12315421Y-9030354D01*
G01X12314882Y-9025505D01*
G01X12314343Y-9022811D01*
G01X12313535Y-9019848D01*
G01X12312727Y-9017423D01*
G01X12311919Y-9015268D01*
G01X12310841Y-9013383D01*
G01X12309225Y-9010958D01*
G01X12307339Y-9008803D01*
G01X12305723Y-9007456D01*
G01X12304376Y-9006378D01*
G01X12302490Y-9005031D01*
G01X12299527Y-9003684D01*
G01X12297102Y-9002876D01*
G01X12294947Y-9002337D01*
G01X12291984Y-9002068D01*
G01X12289559Y-9001799D01*
G01X12287943Y-9001799D01*
G01X12282555Y-9002337D01*
G01X12280130Y-9003146D01*
G01X12277167Y-9004223D01*
G01X12274743Y-9005570D01*
G01X12272857Y-9006917D01*
G01X12270163Y-9009611D01*
G01X12268816Y-9011227D01*
G01X12267469Y-9013383D01*
G01X12266122Y-9015807D01*
G01X12265044Y-9018770D01*
G01X12263967Y-9022273D01*
G01X12263159Y-9026583D01*
G01X12262620Y-9031432D01*
G01X12262350Y-9038706D01*
G01X12223114Y-9038706D01*
G01X12223019Y-9037089D01*
G01X12223288Y-9032509D01*
G01X12223827Y-9025505D01*
G01X12224366Y-9021195D01*
G01X12225443Y-9015807D01*
G01X12227329Y-9010150D01*
G01X12228407Y-9007186D01*
G01X12229484Y-9004762D01*
G01X12230562Y-9002607D01*
G01X12232717Y-8998835D01*
G01X12234333Y-8996411D01*
G01X12235950Y-8994256D01*
G01X12238105Y-8991561D01*
G01X12242146Y-8987521D01*
G01X12244301Y-8985904D01*
G01X12246726Y-8984019D01*
G01X12249150Y-8982402D01*
G01X12251305Y-8981055D01*
G01X12255616Y-8978900D01*
G01X12258040Y-8977823D01*
G01X12260734Y-8976745D01*
G01X12263159Y-8975937D01*
G01X12265314Y-8975398D01*
G01X12268007Y-8974590D01*
G01X12272049Y-8973781D01*
G01X12275012Y-8973243D01*
G01X12279322Y-8972704D01*
G01X12287404Y-8972165D01*
G01X12290098Y-8971896D01*
G01X12292792Y-8972165D01*
G01X12300874Y-8972704D01*
G01X12305184Y-8973243D01*
G01X12307878Y-8973781D01*
G01X12310841Y-8974590D01*
G01X12316229Y-8976206D01*
G01X12318384Y-8977014D01*
G01X12322156Y-8978631D01*
G01X12324311Y-8979708D01*
G01X12326736Y-8981055D01*
G01X12328621Y-8982133D01*
G01X12329968Y-8983210D01*
G01X12333740Y-8985904D01*
G01X12340474Y-8992639D01*
G01X12344516Y-8998296D01*
G01X12347209Y-9003146D01*
G01X12348556Y-9005839D01*
G01X12350711Y-9011227D01*
G01X12351520Y-9014191D01*
G01X12352328Y-9016615D01*
G01X12352867Y-9018770D01*
G01X12353136Y-9020656D01*
G01X12353675Y-9023350D01*
G01X12354214Y-9027660D01*
G01X12354483Y-9031432D01*
G01X12354753Y-9033587D01*
G01X12355022Y-9039244D01*
G01X12354753Y-9044901D01*
G01X12354214Y-9050828D01*
G01X12353675Y-9054600D01*
G01X12353136Y-9057294D01*
G01X12352328Y-9060257D01*
G01X12350711Y-9065645D01*
G01X12349634Y-9068339D01*
G01X12348556Y-9070763D01*
G01X12347479Y-9072919D01*
G01X12346132Y-9075343D01*
G01X12344516Y-9077767D01*
G01X12342630Y-9080461D01*
G01X12341013Y-9082617D01*
G01X12339666Y-9083964D01*
G01X12337511Y-9086657D01*
G01X12334817Y-9088813D01*
G01X12333470Y-9090160D01*
G01X12331854Y-9091507D01*
G01X12328621Y-9093662D01*
G01X12324850Y-9095817D01*
G01X12322694Y-9096894D01*
G01X12320270Y-9097972D01*
G01X12317307Y-9099050D01*
G01X12312457Y-9100666D01*
G01X12308686Y-9101474D01*
G37*
G36*
G01X12487564Y-9037628D02*
G01X12487564Y-9101205D01*
G01X12454697Y-9101205D01*
G01X12421023Y-9100936D01*
G01X12417252Y-9100397D01*
G01X12411325Y-9099319D01*
G01X12409170Y-9098780D01*
G01X12406207Y-9097972D01*
G01X12402974Y-9096894D01*
G01X12400011Y-9095817D01*
G01X12397856Y-9094739D01*
G01X12395700Y-9093393D01*
G01X12393276Y-9091776D01*
G01X12391390Y-9090429D01*
G01X12390043Y-9089082D01*
G01X12387349Y-9086927D01*
G01X12385733Y-9084772D01*
G01X12383847Y-9082886D01*
G01X12382500Y-9081270D01*
G01X12380345Y-9078037D01*
G01X12378998Y-9075882D01*
G01X12377651Y-9073457D01*
G01X12376573Y-9071302D01*
G01X12375765Y-9069416D01*
G01X12374957Y-9067261D01*
G01X12374149Y-9064837D01*
G01X12373610Y-9062681D01*
G01X12372802Y-9059987D01*
G01X12372263Y-9057024D01*
G01X12371994Y-9055139D01*
G01X12371455Y-9050828D01*
G01X12370916Y-9043824D01*
G01X12370736Y-9039514D01*
G01X12409978Y-9039514D01*
G01X12410247Y-9043824D01*
G01X12410786Y-9051367D01*
G01X12411325Y-9055139D01*
G01X12411864Y-9057294D01*
G01X12412672Y-9059718D01*
G01X12413750Y-9062143D01*
G01X12414827Y-9064029D01*
G01X12415905Y-9065376D01*
G01X12418599Y-9068069D01*
G01X12419946Y-9069147D01*
G01X12421562Y-9069955D01*
G01X12423717Y-9070763D01*
G01X12425873Y-9071302D01*
G01X12428566Y-9071841D01*
G01X12431530Y-9072110D01*
G01X12431530Y-9072110D01*
G01X12433416Y-9072380D01*
G01X12441228Y-9072649D01*
G01X12448501Y-9072380D01*
G01X12448771Y-9037628D01*
G01X12448771Y-9003146D01*
G01X12440420Y-9003146D01*
G01X12431260Y-9003415D01*
G01X12428566Y-9003954D01*
G01X12425603Y-9004762D01*
G01X12423179Y-9005839D01*
G01X12421023Y-9006917D01*
G01X12419407Y-9007994D01*
G01X12416713Y-9010689D01*
G01X12415366Y-9012574D01*
G01X12413211Y-9016884D01*
G01X12412403Y-9019579D01*
G01X12411864Y-9021734D01*
G01X12411325Y-9024427D01*
G01X12410786Y-9028199D01*
G01X12410517Y-9032240D01*
G01X12410247Y-9035203D01*
G01X12409978Y-9039514D01*
G01X12370736Y-9039514D01*
G01X12370647Y-9037359D01*
G01X12370916Y-9030893D01*
G01X12371455Y-9024966D01*
G01X12371994Y-9021195D01*
G01X12373071Y-9015807D01*
G01X12373610Y-9013652D01*
G01X12374418Y-9011227D01*
G01X12375226Y-9008533D01*
G01X12376034Y-9006109D01*
G01X12378190Y-9001260D01*
G01X12379537Y-8999104D01*
G01X12381153Y-8996411D01*
G01X12383039Y-8993717D01*
G01X12384655Y-8991561D01*
G01X12390043Y-8986174D01*
G01X12391390Y-8985096D01*
G01X12392737Y-8984288D01*
G01X12394623Y-8982941D01*
G01X12396778Y-8981594D01*
G01X12401088Y-8979439D01*
G01X12403513Y-8978361D01*
G01X12406746Y-8977284D01*
G01X12409978Y-8976476D01*
G01X12412403Y-8975937D01*
G01X12415097Y-8975398D01*
G01X12419407Y-8974859D01*
G01X12424526Y-8974590D01*
G01X12428027Y-8974320D01*
G01X12458200Y-8974051D01*
G01X12487564Y-8974051D01*
G01X12487564Y-9037628D01*
G37*
G36*
G01X12620452Y-9355474D02*
G01X12617758Y-9356013D01*
G01X12614525Y-9356552D01*
G01X12612101Y-9357091D01*
G01X12599978Y-9357360D01*
G01X12588124Y-9357091D01*
G01X12582198Y-9356552D01*
G01X12579504Y-9356013D01*
G01X12576271Y-9355474D01*
G01X12573039Y-9354666D01*
G01X12569267Y-9353589D01*
G01X12565765Y-9352511D01*
G01X12563071Y-9351433D01*
G01X12560916Y-9350625D01*
G01X12559030Y-9349817D01*
G01X12552564Y-9346584D01*
G01X12546907Y-9343351D01*
G01X12545291Y-9342274D01*
G01X12543136Y-9340927D01*
G01X12538287Y-9337694D01*
G01X12537479Y-9330353D01*
G01X12537209Y-9309947D01*
G01X12537209Y-9283007D01*
G01X12597553Y-9283007D01*
G01X12597823Y-9284354D01*
G01X12598092Y-9297554D01*
G01X12598092Y-9309408D01*
G01X12571691Y-9309408D01*
G01X12571691Y-9315604D01*
G01X12571894Y-9320318D01*
G01X12572500Y-9322069D01*
G01X12580581Y-9326110D01*
G01X12583545Y-9327188D01*
G01X12587047Y-9328266D01*
G01X12590819Y-9329074D01*
G01X12593782Y-9329343D01*
G01X12595667Y-9329613D01*
G01X12599170Y-9329882D01*
G01X12602672Y-9329613D01*
G01X12606443Y-9329074D01*
G01X12608868Y-9328266D01*
G01X12611831Y-9327188D01*
G01X12613717Y-9326110D01*
G01X12615603Y-9324763D01*
G01X12617489Y-9323147D01*
G01X12618836Y-9321800D01*
G01X12620452Y-9319914D01*
G01X12621799Y-9317759D01*
G01X12623954Y-9313449D01*
G01X12624762Y-9311294D01*
G01X12625301Y-9309139D01*
G01X12626379Y-9303751D01*
G01X12626917Y-9299440D01*
G01X12627187Y-9290820D01*
G01X12626917Y-9282199D01*
G01X12626379Y-9277889D01*
G01X12625840Y-9275464D01*
G01X12625031Y-9272770D01*
G01X12624223Y-9270615D01*
G01X12623415Y-9268729D01*
G01X12622337Y-9266574D01*
G01X12621260Y-9264689D01*
G01X12620183Y-9263341D01*
G01X12617489Y-9260647D01*
G01X12615603Y-9259031D01*
G01X12613447Y-9257684D01*
G01X12611293Y-9256607D01*
G01X12608868Y-9255529D01*
G01X12605635Y-9254721D01*
G01X12602672Y-9254182D01*
G01X12598361Y-9253913D01*
G01X12594051Y-9254182D01*
G01X12591627Y-9254721D01*
G01X12588933Y-9255529D01*
G01X12586508Y-9256607D01*
G01X12584623Y-9257684D01*
G01X12583276Y-9258762D01*
G01X12580581Y-9261456D01*
G01X12579504Y-9263072D01*
G01X12577618Y-9266844D01*
G01X12576810Y-9268056D01*
G01X12575463Y-9268460D01*
G01X12573039Y-9268191D01*
G01X12561185Y-9266036D01*
G01X12554720Y-9264958D01*
G01X12552026Y-9264419D01*
G01X12548793Y-9263880D01*
G01X12546099Y-9263341D01*
G01X12542866Y-9262803D01*
G01X12539903Y-9261994D01*
G01X12539229Y-9261321D01*
G01X12539364Y-9260378D01*
G01X12540173Y-9257954D01*
G01X12540981Y-9255799D01*
G01X12543136Y-9250949D01*
G01X12544483Y-9248794D01*
G01X12545830Y-9246370D01*
G01X12546907Y-9244753D01*
G01X12547985Y-9243406D01*
G01X12549601Y-9241251D01*
G01X12551487Y-9239366D01*
G01X12555528Y-9236133D01*
G01X12557414Y-9234786D01*
G01X12559569Y-9233439D01*
G01X12563879Y-9231284D01*
G01X12566304Y-9230206D01*
G01X12569536Y-9229129D01*
G01X12573039Y-9228320D01*
G01X12575733Y-9227781D01*
G01X12579504Y-9227243D01*
G01X12583814Y-9226704D01*
G01X12592974Y-9226165D01*
G01X12598631Y-9225896D01*
G01X12604288Y-9226165D01*
G01X12611831Y-9226704D01*
G01X12616141Y-9227243D01*
G01X12622068Y-9228320D01*
G01X12624493Y-9229129D01*
G01X12627187Y-9229937D01*
G01X12629342Y-9230745D01*
G01X12632036Y-9231823D01*
G01X12634460Y-9232900D01*
G01X12636616Y-9234247D01*
G01X12639309Y-9235863D01*
G01X12641734Y-9237480D01*
G01X12643620Y-9238827D01*
G01X12644967Y-9240174D01*
G01X12647661Y-9242329D01*
G01X12650354Y-9245023D01*
G01X12651971Y-9247178D01*
G01X12654126Y-9249872D01*
G01X12656012Y-9252566D01*
G01X12657628Y-9255260D01*
G01X12660053Y-9260109D01*
G01X12661130Y-9262533D01*
G01X12662208Y-9265227D01*
G01X12663824Y-9270615D01*
G01X12664633Y-9273848D01*
G01X12665171Y-9276811D01*
G01X12665710Y-9280044D01*
G01X12666249Y-9284354D01*
G01X12666518Y-9293514D01*
G01X12666249Y-9301596D01*
G01X12665710Y-9305906D01*
G01X12665171Y-9308869D01*
G01X12664363Y-9312102D01*
G01X12662747Y-9317490D01*
G01X12661939Y-9319914D01*
G01X12661130Y-9322069D01*
G01X12659514Y-9325841D01*
G01X12657359Y-9329613D01*
G01X12656012Y-9331767D01*
G01X12654396Y-9334192D01*
G01X12653049Y-9336078D01*
G01X12650893Y-9338772D01*
G01X12648199Y-9341466D01*
G01X12644428Y-9344699D01*
G01X12642811Y-9346046D01*
G01X12638501Y-9348739D01*
G01X12636616Y-9349817D01*
G01X12634460Y-9350894D01*
G01X12632036Y-9351972D01*
G01X12629342Y-9353050D01*
G01X12626109Y-9354127D01*
G01X12622876Y-9354936D01*
G01X12620452Y-9355474D01*
G37*
G36*
G01X12232255Y-9342004D02*
G01X12233333Y-9345507D01*
G01X12234141Y-9348470D01*
G01X12235219Y-9353858D01*
G01X12235488Y-9355205D01*
G01X12129347Y-9355205D01*
G01X12129347Y-9327188D01*
G01X12130694Y-9326919D01*
G01X12158172Y-9326649D01*
G01X12177703Y-9326447D01*
G01X12184034Y-9325841D01*
G01X12182956Y-9324494D01*
G01X12181609Y-9323147D01*
G01X12178915Y-9320992D01*
G01X12177568Y-9319645D01*
G01X12171103Y-9314796D01*
G01X12163021Y-9309139D01*
G01X12157364Y-9305097D01*
G01X12150629Y-9299710D01*
G01X12142008Y-9291089D01*
G01X12140392Y-9289203D01*
G01X12137698Y-9285432D01*
G01X12136351Y-9283277D01*
G01X12134196Y-9278966D01*
G01X12133387Y-9277081D01*
G01X12132579Y-9274926D01*
G01X12131771Y-9271962D01*
G01X12131233Y-9269268D01*
G01X12130694Y-9264958D01*
G01X12130424Y-9262264D01*
G01X12130694Y-9259570D01*
G01X12131233Y-9255260D01*
G01X12133118Y-9249603D01*
G01X12134196Y-9247178D01*
G01X12136890Y-9242867D01*
G01X12138506Y-9240713D01*
G01X12141739Y-9237480D01*
G01X12143624Y-9235863D01*
G01X12146319Y-9233977D01*
G01X12149013Y-9232361D01*
G01X12151167Y-9231284D01*
G01X12153592Y-9230206D01*
G01X12156825Y-9229129D01*
G01X12160057Y-9228320D01*
G01X12162482Y-9227781D01*
G01X12165715Y-9227243D01*
G01X12170025Y-9226704D01*
G01X12174336Y-9226434D01*
G01X12177568Y-9226165D01*
G01X12182417Y-9225896D01*
G01X12187266Y-9226165D01*
G01X12194809Y-9226704D01*
G01X12198581Y-9227243D01*
G01X12201275Y-9227781D01*
G01X12204238Y-9228590D01*
G01X12209087Y-9230206D01*
G01X12211243Y-9231284D01*
G01X12215014Y-9233439D01*
G01X12216630Y-9234516D01*
G01X12217977Y-9235594D01*
G01X12219324Y-9236941D01*
G01X12220671Y-9238019D01*
G01X12222287Y-9239635D01*
G01X12223634Y-9241521D01*
G01X12224712Y-9242867D01*
G01X12225790Y-9244484D01*
G01X12227945Y-9248794D01*
G01X12229023Y-9251219D01*
G01X12230100Y-9254451D01*
G01X12230908Y-9257415D01*
G01X12231447Y-9259570D01*
G01X12232524Y-9264958D01*
G01X12232524Y-9266305D01*
G01X12229561Y-9266844D01*
G01X12226059Y-9267113D01*
G01X12213128Y-9268191D01*
G01X12206124Y-9268729D01*
G01X12199659Y-9269268D01*
G01X12198311Y-9269268D01*
G01X12197503Y-9267652D01*
G01X12196964Y-9264689D01*
G01X12196156Y-9261994D01*
G01X12195348Y-9259839D01*
G01X12194540Y-9257954D01*
G01X12193193Y-9255799D01*
G01X12191038Y-9253643D01*
G01X12188883Y-9252296D01*
G01X12186458Y-9251219D01*
G01X12182956Y-9250411D01*
G01X12179723Y-9250141D01*
G01X12177568Y-9250411D01*
G01X12175413Y-9250949D01*
G01X12173527Y-9251757D01*
G01X12171911Y-9252835D01*
G01X12170294Y-9254182D01*
G01X12168947Y-9255529D01*
G01X12167601Y-9257415D01*
G01X12166523Y-9259839D01*
G01X12165984Y-9262264D01*
G01X12165715Y-9264419D01*
G01X12165715Y-9266036D01*
G01X12166254Y-9268460D01*
G01X12167062Y-9270884D01*
G01X12167870Y-9272501D01*
G01X12168947Y-9274387D01*
G01X12170294Y-9276273D01*
G01X12172450Y-9278966D01*
G01X12173797Y-9280313D01*
G01X12175952Y-9281930D01*
G01X12177837Y-9283816D01*
G01X12182687Y-9287856D01*
G01X12184303Y-9288934D01*
G01X12188344Y-9292167D01*
G01X12196964Y-9298632D01*
G01X12199659Y-9300787D01*
G01X12201006Y-9302134D01*
G01X12203699Y-9304289D01*
G01X12206932Y-9306983D01*
G01X12209626Y-9309677D01*
G01X12212320Y-9311833D01*
G01X12216361Y-9315873D01*
G01X12218516Y-9318567D01*
G01X12219863Y-9319914D01*
G01X12223096Y-9324224D01*
G01X12224443Y-9326110D01*
G01X12225790Y-9328535D01*
G01X12226867Y-9330421D01*
G01X12227945Y-9332037D01*
G01X12229023Y-9334192D01*
G01X12231177Y-9339041D01*
G01X12232255Y-9342004D01*
G37*
G36*
G01X12334086Y-9355474D02*
G01X12331123Y-9356013D01*
G01X12327890Y-9356552D01*
G01X12324927Y-9357091D01*
G01X12313881Y-9357360D01*
G01X12302567Y-9357091D01*
G01X12298257Y-9356552D01*
G01X12292869Y-9355474D01*
G01X12290175Y-9354666D01*
G01X12286673Y-9353589D01*
G01X12283709Y-9352511D01*
G01X12281285Y-9351433D01*
G01X12279130Y-9350356D01*
G01X12277244Y-9349278D01*
G01X12275089Y-9347931D01*
G01X12272664Y-9346315D01*
G01X12270779Y-9344968D01*
G01X12268084Y-9342813D01*
G01X12264044Y-9338772D01*
G01X12262427Y-9336617D01*
G01X12260541Y-9334192D01*
G01X12259194Y-9332306D01*
G01X12258117Y-9330690D01*
G01X12255962Y-9326919D01*
G01X12253807Y-9322069D01*
G01X12252999Y-9319914D01*
G01X12252190Y-9317490D01*
G01X12251382Y-9314526D01*
G01X12250843Y-9311833D01*
G01X12250304Y-9309677D01*
G01X12249766Y-9306444D01*
G01X12249227Y-9302134D01*
G01X12248957Y-9298093D01*
G01X12248688Y-9295669D01*
G01X12248514Y-9292706D01*
G01X12287750Y-9292706D01*
G01X12288020Y-9298363D01*
G01X12288559Y-9304289D01*
G01X12289097Y-9307253D01*
G01X12289906Y-9310486D01*
G01X12290714Y-9312910D01*
G01X12291522Y-9315065D01*
G01X12292599Y-9317220D01*
G01X12293946Y-9319106D01*
G01X12295293Y-9320723D01*
G01X12296910Y-9322339D01*
G01X12298526Y-9323416D01*
G01X12300412Y-9324763D01*
G01X12303106Y-9326110D01*
G01X12306339Y-9327188D01*
G01X12309302Y-9327727D01*
G01X12309302Y-9327727D01*
G01X12311187Y-9327996D01*
G01X12314959Y-9328266D01*
G01X12318192Y-9327996D01*
G01X12320077Y-9327727D01*
G01X12322502Y-9327457D01*
G01X12324657Y-9326649D01*
G01X12327082Y-9325571D01*
G01X12329237Y-9324224D01*
G01X12331123Y-9322877D01*
G01X12333817Y-9320184D01*
G01X12334894Y-9318837D01*
G01X12335703Y-9317220D01*
G01X12336780Y-9315334D01*
G01X12337857Y-9312910D01*
G01X12338935Y-9309947D01*
G01X12339743Y-9306175D01*
G01X12340282Y-9303212D01*
G01X12340821Y-9298363D01*
G01X12341090Y-9291359D01*
G01X12340821Y-9284354D01*
G01X12340282Y-9279505D01*
G01X12339743Y-9276811D01*
G01X12338935Y-9273848D01*
G01X12338127Y-9271423D01*
G01X12337319Y-9269268D01*
G01X12336241Y-9267383D01*
G01X12334625Y-9264958D01*
G01X12332739Y-9262803D01*
G01X12331123Y-9261456D01*
G01X12329776Y-9260378D01*
G01X12327890Y-9259031D01*
G01X12324927Y-9257684D01*
G01X12322502Y-9256876D01*
G01X12320347Y-9256337D01*
G01X12317384Y-9256068D01*
G01X12314959Y-9255799D01*
G01X12313343Y-9255799D01*
G01X12307955Y-9256337D01*
G01X12305530Y-9257146D01*
G01X12302567Y-9258223D01*
G01X12300143Y-9259570D01*
G01X12298257Y-9260917D01*
G01X12295563Y-9263611D01*
G01X12294216Y-9265227D01*
G01X12292869Y-9267383D01*
G01X12291522Y-9269807D01*
G01X12290444Y-9272770D01*
G01X12289367Y-9276273D01*
G01X12288559Y-9280583D01*
G01X12288020Y-9285432D01*
G01X12287750Y-9292706D01*
G01X12248514Y-9292706D01*
G01X12248419Y-9291089D01*
G01X12248688Y-9286509D01*
G01X12249227Y-9279505D01*
G01X12249766Y-9275195D01*
G01X12250843Y-9269807D01*
G01X12252729Y-9264150D01*
G01X12253807Y-9261186D01*
G01X12254884Y-9258762D01*
G01X12255962Y-9256607D01*
G01X12258117Y-9252835D01*
G01X12259733Y-9250411D01*
G01X12261350Y-9248256D01*
G01X12263505Y-9245561D01*
G01X12267546Y-9241521D01*
G01X12269701Y-9239904D01*
G01X12272126Y-9238019D01*
G01X12274550Y-9236402D01*
G01X12276705Y-9235055D01*
G01X12281016Y-9232900D01*
G01X12283440Y-9231823D01*
G01X12286134Y-9230745D01*
G01X12288559Y-9229937D01*
G01X12290714Y-9229398D01*
G01X12293407Y-9228590D01*
G01X12297449Y-9227781D01*
G01X12300412Y-9227243D01*
G01X12304722Y-9226704D01*
G01X12312804Y-9226165D01*
G01X12315498Y-9225896D01*
G01X12318192Y-9226165D01*
G01X12326274Y-9226704D01*
G01X12330584Y-9227243D01*
G01X12333278Y-9227781D01*
G01X12336241Y-9228590D01*
G01X12341629Y-9230206D01*
G01X12343784Y-9231014D01*
G01X12347556Y-9232631D01*
G01X12349711Y-9233708D01*
G01X12352136Y-9235055D01*
G01X12354021Y-9236133D01*
G01X12355368Y-9237210D01*
G01X12359140Y-9239904D01*
G01X12365874Y-9246639D01*
G01X12369916Y-9252296D01*
G01X12372609Y-9257146D01*
G01X12373956Y-9259839D01*
G01X12376111Y-9265227D01*
G01X12376920Y-9268191D01*
G01X12377728Y-9270615D01*
G01X12378267Y-9272770D01*
G01X12378536Y-9274656D01*
G01X12379075Y-9277350D01*
G01X12379614Y-9281660D01*
G01X12379883Y-9285432D01*
G01X12380153Y-9287587D01*
G01X12380422Y-9293244D01*
G01X12380153Y-9298901D01*
G01X12379614Y-9304828D01*
G01X12379075Y-9308600D01*
G01X12378536Y-9311294D01*
G01X12377728Y-9314257D01*
G01X12376111Y-9319645D01*
G01X12375034Y-9322339D01*
G01X12373956Y-9324763D01*
G01X12372879Y-9326919D01*
G01X12371532Y-9329343D01*
G01X12369916Y-9331767D01*
G01X12368030Y-9334461D01*
G01X12366413Y-9336617D01*
G01X12365066Y-9337964D01*
G01X12362911Y-9340657D01*
G01X12360217Y-9342813D01*
G01X12358870Y-9344160D01*
G01X12357254Y-9345507D01*
G01X12354021Y-9347662D01*
G01X12350250Y-9349817D01*
G01X12348094Y-9350894D01*
G01X12345670Y-9351972D01*
G01X12342707Y-9353050D01*
G01X12337857Y-9354666D01*
G01X12334086Y-9355474D01*
G37*
G36*
G01X12512964Y-9291628D02*
G01X12512964Y-9355205D01*
G01X12480097Y-9355205D01*
G01X12446423Y-9354936D01*
G01X12442652Y-9354397D01*
G01X12436725Y-9353319D01*
G01X12434570Y-9352780D01*
G01X12431607Y-9351972D01*
G01X12428374Y-9350894D01*
G01X12425411Y-9349817D01*
G01X12423256Y-9348739D01*
G01X12421100Y-9347393D01*
G01X12418676Y-9345776D01*
G01X12416790Y-9344429D01*
G01X12415443Y-9343082D01*
G01X12412749Y-9340927D01*
G01X12411133Y-9338772D01*
G01X12409247Y-9336886D01*
G01X12407900Y-9335270D01*
G01X12405745Y-9332037D01*
G01X12404398Y-9329882D01*
G01X12403051Y-9327457D01*
G01X12401973Y-9325302D01*
G01X12401165Y-9323416D01*
G01X12400357Y-9321261D01*
G01X12399549Y-9318837D01*
G01X12399010Y-9316681D01*
G01X12398202Y-9313987D01*
G01X12397663Y-9311024D01*
G01X12397394Y-9309139D01*
G01X12396855Y-9304828D01*
G01X12396316Y-9297824D01*
G01X12396136Y-9293514D01*
G01X12435378Y-9293514D01*
G01X12435647Y-9297824D01*
G01X12436186Y-9305367D01*
G01X12436725Y-9309139D01*
G01X12437264Y-9311294D01*
G01X12438072Y-9313718D01*
G01X12439150Y-9316143D01*
G01X12440227Y-9318029D01*
G01X12441305Y-9319376D01*
G01X12443999Y-9322069D01*
G01X12445346Y-9323147D01*
G01X12446962Y-9323955D01*
G01X12449117Y-9324763D01*
G01X12451273Y-9325302D01*
G01X12453966Y-9325841D01*
G01X12456930Y-9326110D01*
G01X12456930Y-9326110D01*
G01X12458816Y-9326380D01*
G01X12466628Y-9326649D01*
G01X12473901Y-9326380D01*
G01X12474171Y-9291628D01*
G01X12474171Y-9257146D01*
G01X12465820Y-9257146D01*
G01X12456660Y-9257415D01*
G01X12453966Y-9257954D01*
G01X12451003Y-9258762D01*
G01X12448579Y-9259839D01*
G01X12446423Y-9260917D01*
G01X12444807Y-9261994D01*
G01X12442113Y-9264689D01*
G01X12440766Y-9266574D01*
G01X12438611Y-9270884D01*
G01X12437803Y-9273579D01*
G01X12437264Y-9275734D01*
G01X12436725Y-9278427D01*
G01X12436186Y-9282199D01*
G01X12435917Y-9286240D01*
G01X12435647Y-9289203D01*
G01X12435378Y-9293514D01*
G01X12396136Y-9293514D01*
G01X12396047Y-9291359D01*
G01X12396316Y-9284893D01*
G01X12396855Y-9278966D01*
G01X12397394Y-9275195D01*
G01X12398471Y-9269807D01*
G01X12399010Y-9267652D01*
G01X12399818Y-9265227D01*
G01X12400626Y-9262533D01*
G01X12401434Y-9260109D01*
G01X12403590Y-9255260D01*
G01X12404937Y-9253104D01*
G01X12406553Y-9250411D01*
G01X12408439Y-9247717D01*
G01X12410055Y-9245561D01*
G01X12415443Y-9240174D01*
G01X12416790Y-9239096D01*
G01X12418137Y-9238288D01*
G01X12420023Y-9236941D01*
G01X12422178Y-9235594D01*
G01X12426488Y-9233439D01*
G01X12428913Y-9232361D01*
G01X12432146Y-9231284D01*
G01X12435378Y-9230476D01*
G01X12437803Y-9229937D01*
G01X12440497Y-9229398D01*
G01X12444807Y-9228859D01*
G01X12449926Y-9228590D01*
G01X12453427Y-9228320D01*
G01X12483600Y-9228051D01*
G01X12512964Y-9228051D01*
G01X12512964Y-9291628D01*
G37*
G04 Text End*
G54D10*

M02*

