G04 Layer: TopSilkscreenLayer*
G04 EasyEDA Pro v2.2.40.3, 2025-08-02 18:00:09*
G04 Gerber Generator version 0.3*
G04 Scale: 100 percent, Rotated: No, Reflected: No*
G04 Dimensions in millimeters*
G04 Leading zeros omitted, absolute positions, 4 integers and 5 decimals*
G04 Generated by one-click*
%FSLAX45Y45*%
%MOMM*%
%ADD10C,0.1524*%
%ADD11C,0.12*%
%ADD12C,0.254*%
%ADD13C,0.35001*%
%ADD14C,0.4749*%
G75*


G04 Text Start*
G36*
G01X13707226Y-9292474D02*
G01X13707226Y-9210733D01*
G01X13766107Y-9210733D01*
G01X13826721Y-9211079D01*
G01X13828453Y-9211426D01*
G01X13828453Y-9238442D01*
G01X13739784Y-9238442D01*
G01X13739784Y-9275156D01*
G01X13822218Y-9275156D01*
G01X13822218Y-9302173D01*
G01X13739784Y-9302173D01*
G01X13739784Y-9347200D01*
G01X13831224Y-9347200D01*
G01X13831224Y-9374216D01*
G01X13707226Y-9374216D01*
G01X13707226Y-9292474D01*
G37*
G36*
G01X13905346Y-9376987D02*
G01X13896340Y-9376641D01*
G01X13894608Y-9375948D01*
G01X13891491Y-9375256D01*
G01X13888027Y-9374216D01*
G01X13885256Y-9373177D01*
G01X13883178Y-9372138D01*
G01X13878329Y-9369367D01*
G01X13876251Y-9367982D01*
G01X13874173Y-9366250D01*
G01X13868284Y-9360362D01*
G01X13866206Y-9357937D01*
G01X13864128Y-9354820D01*
G01X13862396Y-9351703D01*
G01X13861011Y-9348932D01*
G01X13859626Y-9345814D01*
G01X13857201Y-9338541D01*
G01X13855816Y-9332999D01*
G01X13854430Y-9326072D01*
G01X13853737Y-9319837D01*
G01X13853044Y-9312910D01*
G01X13852698Y-9295592D01*
G01X13852747Y-9293167D01*
G01X13885256Y-9293167D01*
G01X13885603Y-9313603D01*
G01X13886296Y-9322608D01*
G01X13887334Y-9329882D01*
G01X13888027Y-9333346D01*
G01X13890106Y-9339580D01*
G01X13891491Y-9342697D01*
G01X13893223Y-9345468D01*
G01X13895301Y-9347893D01*
G01X13897726Y-9349624D01*
G01X13900496Y-9350664D01*
G01X13900496Y-9350664D01*
G01X13902228Y-9351010D01*
G01X13904306Y-9351356D01*
G01X13907770Y-9351010D01*
G01X13910541Y-9350317D01*
G01X13912966Y-9349624D01*
G01X13915044Y-9348239D01*
G01X13918507Y-9344776D01*
G01X13919893Y-9342697D01*
G01X13920932Y-9340273D01*
G01X13921971Y-9337502D01*
G01X13923010Y-9334038D01*
G01X13923703Y-9330921D01*
G01X13924396Y-9326072D01*
G01X13925088Y-9319144D01*
G01X13925781Y-9300441D01*
G01X13926127Y-9294899D01*
G01X13925781Y-9289357D01*
G01X13925088Y-9270654D01*
G01X13924742Y-9267536D01*
G01X13924396Y-9263726D01*
G01X13923703Y-9258877D01*
G01X13922664Y-9253682D01*
G01X13921278Y-9249526D01*
G01X13919893Y-9246408D01*
G01X13918854Y-9243984D01*
G01X13917468Y-9241906D01*
G01X13915736Y-9240174D01*
G01X13913658Y-9238442D01*
G01X13910887Y-9237056D01*
G01X13906731Y-9236364D01*
G01X13902228Y-9236710D01*
G01X13898764Y-9237749D01*
G01X13896340Y-9239134D01*
G01X13894608Y-9240520D01*
G01X13892876Y-9242252D01*
G01X13891144Y-9245023D01*
G01X13889759Y-9248140D01*
G01X13888720Y-9250911D01*
G01X13887681Y-9254721D01*
G01X13886988Y-9258184D01*
G01X13886296Y-9263726D01*
G01X13885603Y-9272732D01*
G01X13885256Y-9293167D01*
G01X13852747Y-9293167D01*
G01X13853044Y-9278274D01*
G01X13853391Y-9275503D01*
G01X13853737Y-9270654D01*
G01X13854430Y-9265804D01*
G01X13855123Y-9261648D01*
G01X13855816Y-9258184D01*
G01X13856162Y-9255760D01*
G01X13856854Y-9252989D01*
G01X13858933Y-9246062D01*
G01X13861011Y-9240520D01*
G01X13862396Y-9237403D01*
G01X13864128Y-9233939D01*
G01X13866206Y-9230822D01*
G01X13867938Y-9228051D01*
G01X13869670Y-9225973D01*
G01X13871056Y-9224241D01*
G01X13872441Y-9222856D01*
G01X13874173Y-9221470D01*
G01X13875904Y-9219738D01*
G01X13878329Y-9218006D01*
G01X13881100Y-9216274D01*
G01X13883524Y-9214889D01*
G01X13885949Y-9213850D01*
G01X13888720Y-9212811D01*
G01X13892184Y-9211772D01*
G01X13895301Y-9211079D01*
G01X13898764Y-9210733D01*
G01X13902921Y-9210386D01*
G01X13905692Y-9210386D01*
G01X13908463Y-9210733D01*
G01X13913312Y-9211079D01*
G01X13918854Y-9212118D01*
G01X13923356Y-9213504D01*
G01X13926474Y-9214889D01*
G01X13929244Y-9216274D01*
G01X13932708Y-9218353D01*
G01X13935479Y-9220431D01*
G01X13938943Y-9223202D01*
G01X13941714Y-9226666D01*
G01X13943792Y-9229090D01*
G01X13945870Y-9232207D01*
G01X13947602Y-9235324D01*
G01X13949334Y-9238788D01*
G01X13951066Y-9242598D01*
G01X13952451Y-9246754D01*
G01X13953836Y-9251257D01*
G01X13954876Y-9254721D01*
G01X13956261Y-9261648D01*
G01X13957646Y-9272732D01*
G01X13958339Y-9283816D01*
G01X13958686Y-9292821D01*
G01X13958339Y-9301826D01*
G01X13957646Y-9312910D01*
G01X13956954Y-9318452D01*
G01X13956607Y-9320876D01*
G01X13956261Y-9323994D01*
G01X13954876Y-9330921D01*
G01X13953490Y-9336463D01*
G01X13952451Y-9340273D01*
G01X13951066Y-9344083D01*
G01X13949680Y-9347546D01*
G01X13946909Y-9353088D01*
G01X13945177Y-9356206D01*
G01X13943446Y-9358976D01*
G01X13939982Y-9363133D01*
G01X13937904Y-9365211D01*
G01X13935826Y-9366943D01*
G01X13933401Y-9369021D01*
G01X13930284Y-9371099D01*
G01X13927166Y-9372831D01*
G01X13923703Y-9374216D01*
G01X13920932Y-9375256D01*
G01X13914697Y-9376641D01*
G01X13905346Y-9376987D01*
G37*
G36*
G01X14001634Y-9374216D02*
G01X14001634Y-9371792D01*
G01X14001981Y-9368328D01*
G01X14002674Y-9360016D01*
G01X14004059Y-9350317D01*
G01X14005444Y-9342004D01*
G01X14006137Y-9338541D01*
G01X14007176Y-9333692D01*
G01X14008216Y-9330228D01*
G01X14009947Y-9323301D01*
G01X14011333Y-9318798D01*
G01X14015489Y-9306329D01*
G01X14016874Y-9302866D01*
G01X14017914Y-9300094D01*
G01X14018953Y-9297670D01*
G01X14021724Y-9291436D01*
G01X14023802Y-9286586D01*
G01X14027958Y-9278274D01*
G01X14030729Y-9273424D01*
G01X14032461Y-9269961D01*
G01X14034193Y-9267190D01*
G01X14035578Y-9264766D01*
G01X14037310Y-9261994D01*
G01X14043544Y-9252643D01*
G01X14045969Y-9249179D01*
G01X14048047Y-9246408D01*
G01X14049433Y-9244676D01*
G01X14050472Y-9242944D01*
G01X14041813Y-9242165D01*
G01X14015143Y-9241906D01*
G01X13979467Y-9241906D01*
G01X13979467Y-9213504D01*
G01X14086840Y-9213504D01*
G01X14086840Y-9224587D01*
G01X14086580Y-9233073D01*
G01X14085801Y-9236364D01*
G01X14082337Y-9240520D01*
G01X14079913Y-9242944D01*
G01X14077142Y-9246408D01*
G01X14075064Y-9249179D01*
G01X14073678Y-9250911D01*
G01X14071946Y-9253336D01*
G01X14067790Y-9259570D01*
G01X14063634Y-9266497D01*
G01X14061902Y-9269268D01*
G01X14059131Y-9274117D01*
G01X14056014Y-9280352D01*
G01X14054282Y-9283123D01*
G01X14047354Y-9298709D01*
G01X14045969Y-9302866D01*
G01X14044584Y-9306329D01*
G01X14042506Y-9312564D01*
G01X14040427Y-9319491D01*
G01X14039388Y-9322608D01*
G01X14036617Y-9333692D01*
G01X14035232Y-9339926D01*
G01X14033846Y-9348239D01*
G01X14033154Y-9353088D01*
G01X14032461Y-9359323D01*
G01X14032114Y-9367289D01*
G01X14032114Y-9374216D01*
G01X14001634Y-9374216D01*
G37*
G36*
G01X14177587Y-9292474D02*
G01X14177587Y-9256799D01*
G01X14210146Y-9256799D01*
G01X14210492Y-9275503D01*
G01X14231274Y-9275849D01*
G01X14254826Y-9275503D01*
G01X14258983Y-9274810D01*
G01X14261754Y-9274117D01*
G01X14264178Y-9273078D01*
G01X14266256Y-9272039D01*
G01X14268334Y-9270654D01*
G01X14270066Y-9268922D01*
G01X14271798Y-9266844D01*
G01X14273184Y-9264073D01*
G01X14273876Y-9258184D01*
G01X14273530Y-9252643D01*
G01X14272837Y-9249872D01*
G01X14271452Y-9246754D01*
G01X14269720Y-9244330D01*
G01X14267988Y-9242598D01*
G01X14265217Y-9240866D01*
G01X14261754Y-9239481D01*
G01X14258983Y-9238788D01*
G01X14234044Y-9238442D01*
G01X14210146Y-9238442D01*
G01X14210146Y-9256799D01*
G01X14210146Y-9256799D01*
G01X14177587Y-9256799D01*
G01X14177587Y-9210733D01*
G01X14213609Y-9210733D01*
G01X14250670Y-9211079D01*
G01X14263139Y-9211772D01*
G01X14265910Y-9212118D01*
G01X14269374Y-9212464D01*
G01X14272837Y-9213157D01*
G01X14278379Y-9214543D01*
G01X14281150Y-9215582D01*
G01X14283921Y-9216967D01*
G01X14287038Y-9218699D01*
G01X14289809Y-9220431D01*
G01X14291887Y-9222163D01*
G01X14297083Y-9227358D01*
G01X14299161Y-9229783D01*
G01X14300893Y-9232554D01*
G01X14302278Y-9235324D01*
G01X14303664Y-9238442D01*
G01X14304703Y-9241213D01*
G01X14305396Y-9243637D01*
G01X14306088Y-9249179D01*
G01X14306088Y-9253336D01*
G01X14305396Y-9258877D01*
G01X14304356Y-9263380D01*
G01X14302971Y-9267190D01*
G01X14301586Y-9269961D01*
G01X14299854Y-9272732D01*
G01X14297429Y-9276196D01*
G01X14295351Y-9278966D01*
G01X14292926Y-9281391D01*
G01X14289463Y-9283816D01*
G01X14287038Y-9285547D01*
G01X14284960Y-9286586D01*
G01X14284008Y-9287019D01*
G01X14283921Y-9287626D01*
G01X14286346Y-9289011D01*
G01X14290156Y-9290396D01*
G01X14293273Y-9292128D01*
G01X14296044Y-9293514D01*
G01X14298122Y-9294899D01*
G01X14302971Y-9299056D01*
G01X14304703Y-9300787D01*
G01X14306434Y-9302866D01*
G01X14309898Y-9308407D01*
G01X14311284Y-9311524D01*
G01X14312669Y-9315681D01*
G01X14313708Y-9319144D01*
G01X14314054Y-9326072D01*
G01X14313708Y-9332999D01*
G01X14313016Y-9336463D01*
G01X14311976Y-9340966D01*
G01X14310591Y-9344776D01*
G01X14309206Y-9347893D01*
G01X14307820Y-9350664D01*
G01X14306088Y-9353434D01*
G01X14304703Y-9355859D01*
G01X14303317Y-9357591D01*
G01X14298122Y-9362786D01*
G01X14295697Y-9364864D01*
G01X14293273Y-9366596D01*
G01X14290848Y-9367982D01*
G01X14288077Y-9369367D01*
G01X14285306Y-9370406D01*
G01X14282189Y-9371446D01*
G01X14278379Y-9372484D01*
G01X14274916Y-9373177D01*
G01X14265910Y-9373870D01*
G01X14221229Y-9374216D01*
G01X14177587Y-9374216D01*
G01X14177587Y-9324686D01*
G01X14210146Y-9324686D01*
G01X14210492Y-9346854D01*
G01X14231274Y-9347200D01*
G01X14252748Y-9346854D01*
G01X14256904Y-9346507D01*
G01X14261754Y-9346161D01*
G01X14265217Y-9345468D01*
G01X14268681Y-9344429D01*
G01X14271798Y-9342697D01*
G01X14274223Y-9340966D01*
G01X14275954Y-9339234D01*
G01X14277340Y-9337502D01*
G01X14278726Y-9335077D01*
G01X14279764Y-9332306D01*
G01X14280111Y-9327111D01*
G01X14279764Y-9321916D01*
G01X14279072Y-9318798D01*
G01X14278033Y-9315681D01*
G01X14276994Y-9313603D01*
G01X14275608Y-9311871D01*
G01X14273876Y-9310139D01*
G01X14271452Y-9308061D01*
G01X14268681Y-9306329D01*
G01X14265910Y-9305290D01*
G01X14263139Y-9304597D01*
G01X14257597Y-9303904D01*
G01X14240972Y-9303212D01*
G01X14225039Y-9302866D01*
G01X14210146Y-9302866D01*
G01X14210146Y-9324686D01*
G01X14210146Y-9324686D01*
G01X14177587Y-9324686D01*
G01X14177587Y-9292474D01*
G37*
G36*
G01X14507326Y-9292474D02*
G01X14507326Y-9210733D01*
G01X14628553Y-9210733D01*
G01X14628553Y-9238442D01*
G01X14540576Y-9238442D01*
G01X14540576Y-9275156D01*
G01X14622318Y-9275156D01*
G01X14622318Y-9302173D01*
G01X14540576Y-9302173D01*
G01X14540576Y-9347200D01*
G01X14632016Y-9347200D01*
G01X14632016Y-9374216D01*
G01X14507326Y-9374216D01*
G01X14507326Y-9292474D01*
G37*
G36*
G01X14342456Y-9292474D02*
G01X14342456Y-9258877D01*
G01X14375014Y-9258877D01*
G01X14375361Y-9279659D01*
G01X14396489Y-9280006D01*
G01X14418310Y-9279659D01*
G01X14421081Y-9279313D01*
G01X14425237Y-9278966D01*
G01X14429740Y-9277927D01*
G01X14432857Y-9276542D01*
G01X14435628Y-9274810D01*
G01X14438399Y-9272039D01*
G01X14440131Y-9269614D01*
G01X14441170Y-9267190D01*
G01X14441863Y-9264419D01*
G01X14442209Y-9260956D01*
G01X14441863Y-9256106D01*
G01X14441170Y-9252643D01*
G01X14440477Y-9250218D01*
G01X14439438Y-9248140D01*
G01X14438053Y-9246062D01*
G01X14436321Y-9243984D01*
G01X14433896Y-9242252D01*
G01X14430779Y-9240520D01*
G01X14428008Y-9239481D01*
G01X14421081Y-9238788D01*
G01X14397528Y-9238442D01*
G01X14375014Y-9238442D01*
G01X14375014Y-9258877D01*
G01X14375014Y-9258877D01*
G01X14342456Y-9258877D01*
G01X14342456Y-9210733D01*
G01X14379517Y-9210733D01*
G01X14417617Y-9211079D01*
G01X14430086Y-9211772D01*
G01X14435628Y-9212464D01*
G01X14439784Y-9213157D01*
G01X14445326Y-9214196D01*
G01X14449483Y-9215582D01*
G01X14452946Y-9216967D01*
G01X14456064Y-9218699D01*
G01X14458488Y-9220084D01*
G01X14460220Y-9221470D01*
G01X14465416Y-9226666D01*
G01X14468186Y-9230129D01*
G01X14469918Y-9232554D01*
G01X14471304Y-9235324D01*
G01X14472343Y-9237749D01*
G01X14473382Y-9240520D01*
G01X14474421Y-9243637D01*
G01X14475114Y-9246408D01*
G01X14475806Y-9251257D01*
G01X14476153Y-9256106D01*
G01X14475806Y-9261648D01*
G01X14475114Y-9265804D01*
G01X14474421Y-9269268D01*
G01X14473728Y-9272039D01*
G01X14472689Y-9274810D01*
G01X14469572Y-9281044D01*
G01X14467840Y-9283469D01*
G01X14466801Y-9285201D01*
G01X14465416Y-9286933D01*
G01X14461952Y-9290396D01*
G01X14459181Y-9292474D01*
G01X14456064Y-9294553D01*
G01X14453639Y-9295938D01*
G01X14450868Y-9297324D01*
G01X14447404Y-9298709D01*
G01X14443248Y-9300094D01*
G01X14439784Y-9301134D01*
G01X14436321Y-9301826D01*
G01X14434589Y-9302259D01*
G01X14434243Y-9302866D01*
G01X14435974Y-9304597D01*
G01X14439092Y-9306676D01*
G01X14441516Y-9308407D01*
G01X14443594Y-9309793D01*
G01X14445673Y-9311524D01*
G01X14453293Y-9319144D01*
G01X14457449Y-9324686D01*
G01X14459874Y-9328150D01*
G01X14466108Y-9337502D01*
G01X14473036Y-9348586D01*
G01X14475114Y-9351703D01*
G01X14487236Y-9371099D01*
G01X14488276Y-9373177D01*
G01X14484033Y-9373957D01*
G01X14470611Y-9374216D01*
G01X14450868Y-9373870D01*
G01X14449309Y-9373177D01*
G01X14448097Y-9371792D01*
G01X14439784Y-9359323D01*
G01X14434936Y-9352396D01*
G01X14420388Y-9330574D01*
G01X14413461Y-9320876D01*
G01X14411036Y-9317759D01*
G01X14408958Y-9314988D01*
G01X14406534Y-9312564D01*
G01X14403070Y-9310139D01*
G01X14399953Y-9308407D01*
G01X14396489Y-9307368D01*
G01X14393372Y-9306676D01*
G01X14383674Y-9306329D01*
G01X14375014Y-9306329D01*
G01X14375014Y-9374216D01*
G01X14342456Y-9374216D01*
G01X14342456Y-9292474D01*
G37*
G36*
G01X14647689Y-9373957D02*
G01X14643793Y-9373177D01*
G01X14645178Y-9370060D01*
G01X14646564Y-9366596D01*
G01X14648642Y-9361054D01*
G01X14651413Y-9354127D01*
G01X14653491Y-9348586D01*
G01X14656262Y-9341658D01*
G01X14658340Y-9336116D01*
G01X14662496Y-9325726D01*
G01X14663882Y-9321916D01*
G01X14666653Y-9314988D01*
G01X14668038Y-9311178D01*
G01X14669424Y-9307714D01*
G01X14702328Y-9307714D01*
G01X14702328Y-9309446D01*
G01X14724496Y-9309793D01*
G01X14746316Y-9309793D01*
G01X14745970Y-9308407D01*
G01X14744931Y-9305636D01*
G01X14743892Y-9302519D01*
G01X14737657Y-9285894D01*
G01X14736618Y-9282776D01*
G01X14732462Y-9271693D01*
G01X14731076Y-9268229D01*
G01X14725534Y-9252989D01*
G01X14724149Y-9250564D01*
G01X14723110Y-9251257D01*
G01X14722071Y-9253336D01*
G01X14721032Y-9256106D01*
G01X14719993Y-9259224D01*
G01X14718607Y-9262687D01*
G01X14717222Y-9266844D01*
G01X14715836Y-9270307D01*
G01X14714797Y-9273424D01*
G01X14712719Y-9278966D01*
G01X14711680Y-9282084D01*
G01X14710294Y-9285547D01*
G01X14708909Y-9289704D01*
G01X14707524Y-9293167D01*
G01X14706484Y-9296284D01*
G01X14704406Y-9301826D01*
G01X14703367Y-9304944D01*
G01X14702328Y-9307714D01*
G01X14702328Y-9307714D01*
G01X14669424Y-9307714D01*
G01X14672194Y-9300787D01*
G01X14674273Y-9295246D01*
G01X14677044Y-9288318D01*
G01X14679122Y-9282776D01*
G01X14683278Y-9272386D01*
G01X14684664Y-9268576D01*
G01X14687434Y-9261648D01*
G01X14688820Y-9257838D01*
G01X14692976Y-9247447D01*
G01X14695054Y-9241906D01*
G01X14697826Y-9234978D01*
G01X14699904Y-9229436D01*
G01X14704060Y-9219046D01*
G01X14705446Y-9215236D01*
G01X14706831Y-9212118D01*
G01X14711420Y-9211079D01*
G01X14723803Y-9210733D01*
G01X14741121Y-9211079D01*
G01X14742853Y-9213157D01*
G01X14807276Y-9374216D01*
G01X14789612Y-9374216D01*
G01X14776190Y-9373957D01*
G01X14771254Y-9373177D01*
G01X14769869Y-9370406D01*
G01X14768484Y-9366943D01*
G01X14767098Y-9363133D01*
G01X14765713Y-9359669D01*
G01X14763634Y-9354127D01*
G01X14762249Y-9350664D01*
G01X14760864Y-9346854D01*
G01X14759478Y-9343390D01*
G01X14758093Y-9339580D01*
G01X14757400Y-9337502D01*
G01X14724496Y-9337502D01*
G01X14699731Y-9337762D01*
G01X14691244Y-9338541D01*
G01X14690206Y-9340619D01*
G01X14689166Y-9343390D01*
G01X14688127Y-9346507D01*
G01X14686742Y-9349971D01*
G01X14685356Y-9354127D01*
G01X14683971Y-9357591D01*
G01X14682932Y-9360708D01*
G01X14680854Y-9366250D01*
G01X14678776Y-9372484D01*
G01X14678429Y-9374216D01*
G01X14660764Y-9374216D01*
G01X14647689Y-9373957D01*
G37*
G36*
G01X14825287Y-9292474D02*
G01X14825287Y-9210733D01*
G01X14858538Y-9210733D01*
G01X14858538Y-9246754D01*
G01X14858798Y-9273684D01*
G01X14859577Y-9282430D01*
G01X14861656Y-9280352D01*
G01X14863734Y-9277927D01*
G01X14867197Y-9274464D01*
G01X14871354Y-9269614D01*
G01X14874817Y-9266151D01*
G01X14877588Y-9262687D01*
G01X14883476Y-9256799D01*
G01X14885554Y-9254028D01*
G01X14890750Y-9248833D01*
G01X14894906Y-9243984D01*
G01X14898370Y-9240520D01*
G01X14901141Y-9237056D01*
G01X14907029Y-9231168D01*
G01X14909107Y-9228397D01*
G01X14914303Y-9223202D01*
G01X14918459Y-9218353D01*
G01X14921923Y-9214889D01*
G01X14924001Y-9212464D01*
G01X14925040Y-9210733D01*
G01X14947207Y-9210733D01*
G01X14963659Y-9210992D01*
G01X14968682Y-9211772D01*
G01X14950671Y-9229783D01*
G01X14948593Y-9232554D01*
G01X14930582Y-9250564D01*
G01X14928504Y-9253336D01*
G01X14910493Y-9271346D01*
G01X14909627Y-9273338D01*
G01X14909800Y-9275849D01*
G01X14911532Y-9280352D01*
G01X14913610Y-9283469D01*
G01X14917074Y-9289011D01*
G01X14923308Y-9298363D01*
G01X14925386Y-9301826D01*
G01X14931621Y-9311178D01*
G01X14935084Y-9316720D01*
G01X14941319Y-9326072D01*
G01X14944783Y-9331614D01*
G01X14951017Y-9340966D01*
G01X14954481Y-9346507D01*
G01X14960716Y-9355859D01*
G01X14964179Y-9361401D01*
G01X14968336Y-9367636D01*
G01X14970067Y-9370060D01*
G01X14971453Y-9372484D01*
G01X14972146Y-9374216D01*
G01X14951364Y-9374216D01*
G01X14929889Y-9373524D01*
G01X14928157Y-9371099D01*
G01X14926426Y-9368328D01*
G01X14925040Y-9365904D01*
G01X14923308Y-9362786D01*
G01X14921230Y-9359323D01*
G01X14919498Y-9356552D01*
G01X14918113Y-9354127D01*
G01X14916381Y-9351010D01*
G01X14914649Y-9348239D01*
G01X14913264Y-9345814D01*
G01X14911532Y-9342697D01*
G01X14909454Y-9339234D01*
G01X14907722Y-9336463D01*
G01X14906336Y-9334038D01*
G01X14904604Y-9330921D01*
G01X14902873Y-9328150D01*
G01X14901487Y-9325726D01*
G01X14899756Y-9322608D01*
G01X14898024Y-9319837D01*
G01X14896638Y-9317413D01*
G01X14894906Y-9314296D01*
G01X14893174Y-9311524D01*
G01X14891789Y-9309100D01*
G01X14890404Y-9307022D01*
G01X14885554Y-9298536D01*
G01X14884862Y-9298363D01*
G01X14883130Y-9299402D01*
G01X14872739Y-9309793D01*
G01X14869968Y-9313256D01*
G01X14859577Y-9323647D01*
G01X14858798Y-9330401D01*
G01X14858538Y-9349278D01*
G01X14858538Y-9374216D01*
G01X14825287Y-9374216D01*
G01X14825287Y-9292474D01*
G37*
G36*
G01X15062200Y-9376987D02*
G01X15050770Y-9376641D01*
G01X15044536Y-9375602D01*
G01X15034837Y-9373177D01*
G01X15031720Y-9372138D01*
G01X15028949Y-9371099D01*
G01X15026524Y-9370060D01*
G01X15020290Y-9366943D01*
G01X15017519Y-9365211D01*
G01X15015441Y-9363826D01*
G01X15009899Y-9359669D01*
G01X15008167Y-9357937D01*
G01X15006436Y-9356552D01*
G01X15004357Y-9354474D01*
G01X15002279Y-9352049D01*
G01X15000547Y-9350317D01*
G01X14998816Y-9347893D01*
G01X14997430Y-9345468D01*
G01X14996044Y-9343736D01*
G01X14994313Y-9341312D01*
G01X14991542Y-9335770D01*
G01X14990156Y-9332306D01*
G01X14988771Y-9329189D01*
G01X14986693Y-9322262D01*
G01X14985654Y-9318452D01*
G01X14984961Y-9314988D01*
G01X14984268Y-9309446D01*
G01X14983576Y-9301826D01*
G01X14983229Y-9295246D01*
G01X14983430Y-9291436D01*
G01X15017173Y-9291436D01*
G01X15017519Y-9299056D01*
G01X15017866Y-9301826D01*
G01X15018212Y-9305983D01*
G01X15018904Y-9310139D01*
G01X15019597Y-9312910D01*
G01X15020290Y-9316027D01*
G01X15021329Y-9319491D01*
G01X15022714Y-9322954D01*
G01X15024100Y-9326072D01*
G01X15025486Y-9328496D01*
G01X15026871Y-9330574D01*
G01X15027910Y-9332306D01*
G01X15029296Y-9334038D01*
G01X15034491Y-9339234D01*
G01X15036916Y-9341312D01*
G01X15039340Y-9343044D01*
G01X15041764Y-9344429D01*
G01X15044882Y-9345814D01*
G01X15048346Y-9347200D01*
G01X15051463Y-9348239D01*
G01X15054926Y-9348586D01*
G01X15054926Y-9348586D01*
G01X15057697Y-9348932D01*
G01X15061854Y-9349278D01*
G01X15066703Y-9348932D01*
G01X15069474Y-9348586D01*
G01X15073630Y-9347893D01*
G01X15078133Y-9346507D01*
G01X15081250Y-9345122D01*
G01X15084021Y-9343736D01*
G01X15087138Y-9342004D01*
G01X15090256Y-9339580D01*
G01X15093026Y-9337502D01*
G01X15095451Y-9335077D01*
G01X15097529Y-9332306D01*
G01X15098914Y-9330574D01*
G01X15100300Y-9328150D01*
G01X15103071Y-9322608D01*
G01X15104456Y-9318798D01*
G01X15105496Y-9315681D01*
G01X15106881Y-9308754D01*
G01X15107574Y-9301826D01*
G01X15107920Y-9293514D01*
G01X15107574Y-9285201D01*
G01X15107227Y-9282776D01*
G01X15106881Y-9278274D01*
G01X15106188Y-9274117D01*
G01X15105496Y-9271000D01*
G01X15104456Y-9266844D01*
G01X15103071Y-9263034D01*
G01X15101686Y-9259916D01*
G01X15100300Y-9257146D01*
G01X15098568Y-9254374D01*
G01X15096836Y-9251950D01*
G01X15094066Y-9248486D01*
G01X15092334Y-9246754D01*
G01X15089563Y-9244676D01*
G01X15086099Y-9242252D01*
G01X15083328Y-9240520D01*
G01X15080557Y-9239481D01*
G01X15077440Y-9238442D01*
G01X15073630Y-9237403D01*
G01X15070166Y-9236710D01*
G01X15064278Y-9236364D01*
G01X15057004Y-9236710D01*
G01X15052848Y-9237403D01*
G01X15047306Y-9238788D01*
G01X15044536Y-9239827D01*
G01X15036916Y-9243637D01*
G01X15035184Y-9245023D01*
G01X15030334Y-9249179D01*
G01X15027564Y-9252643D01*
G01X15026178Y-9254721D01*
G01X15023407Y-9259570D01*
G01X15022022Y-9262687D01*
G01X15019597Y-9269961D01*
G01X15018212Y-9276888D01*
G01X15017519Y-9283816D01*
G01X15017173Y-9291436D01*
G01X14983430Y-9291436D01*
G01X14983576Y-9288664D01*
G01X14984268Y-9279659D01*
G01X14984961Y-9274117D01*
G01X14987039Y-9263726D01*
G01X14988078Y-9259916D01*
G01X14990156Y-9254374D01*
G01X14991542Y-9251257D01*
G01X14994313Y-9245716D01*
G01X14996044Y-9242598D01*
G01X14998123Y-9239481D01*
G01X15001586Y-9234632D01*
G01X15003664Y-9232207D01*
G01X15011284Y-9224587D01*
G01X15014748Y-9221816D01*
G01X15018212Y-9219392D01*
G01X15020983Y-9217660D01*
G01X15026524Y-9214889D01*
G01X15029296Y-9213850D01*
G01X15032413Y-9212811D01*
G01X15035184Y-9211772D01*
G01X15037608Y-9211079D01*
G01X15043843Y-9209694D01*
G01X15048692Y-9209001D01*
G01X15058390Y-9208308D01*
G01X15061161Y-9207962D01*
G01X15063932Y-9208308D01*
G01X15068434Y-9208654D01*
G01X15073630Y-9209001D01*
G01X15078479Y-9209694D01*
G01X15084021Y-9210733D01*
G01X15087484Y-9211772D01*
G01X15090256Y-9212464D01*
G01X15093373Y-9213504D01*
G01X15096490Y-9214889D01*
G01X15099954Y-9216274D01*
G01X15103417Y-9218006D01*
G01X15108959Y-9221470D01*
G01X15113808Y-9224934D01*
G01X15116233Y-9227012D01*
G01X15123160Y-9233939D01*
G01X15125931Y-9237403D01*
G01X15127663Y-9239827D01*
G01X15129394Y-9242598D01*
G01X15131126Y-9245716D01*
G01X15132858Y-9248486D01*
G01X15134244Y-9251604D01*
G01X15135629Y-9255067D01*
G01X15137707Y-9261302D01*
G01X15138746Y-9264766D01*
G01X15139439Y-9267883D01*
G01X15140824Y-9275503D01*
G01X15141517Y-9281737D01*
G01X15141864Y-9291782D01*
G01X15141517Y-9301826D01*
G01X15141171Y-9304597D01*
G01X15140824Y-9308754D01*
G01X15140132Y-9312910D01*
G01X15138746Y-9319837D01*
G01X15137707Y-9323647D01*
G01X15135629Y-9329882D01*
G01X15134244Y-9333346D01*
G01X15132858Y-9336463D01*
G01X15131473Y-9339234D01*
G01X15130087Y-9341658D01*
G01X15128356Y-9344429D01*
G01X15126970Y-9346854D01*
G01X15122814Y-9352049D01*
G01X15115194Y-9359669D01*
G01X15112423Y-9361747D01*
G01X15110691Y-9363133D01*
G01X15108266Y-9364864D01*
G01X15104803Y-9366943D01*
G01X15102032Y-9368674D01*
G01X15097183Y-9370753D01*
G01X15094066Y-9372138D01*
G01X15086792Y-9374563D01*
G01X15079864Y-9375948D01*
G01X15074323Y-9376641D01*
G01X15062200Y-9376987D01*
G37*
G36*
G01X15233304Y-9376987D02*
G01X15218410Y-9376641D01*
G01X15208019Y-9374563D01*
G01X15204209Y-9373524D01*
G01X15200399Y-9372138D01*
G01X15194857Y-9369367D01*
G01X15192433Y-9367982D01*
G01X15190354Y-9366943D01*
G01X15188276Y-9365557D01*
G01X15184120Y-9362094D01*
G01X15180656Y-9358630D01*
G01X15179271Y-9356898D01*
G01X15177539Y-9354474D01*
G01X15175461Y-9351356D01*
G01X15173729Y-9348239D01*
G01X15172344Y-9344776D01*
G01X15171304Y-9342004D01*
G01X15169919Y-9335770D01*
G01X15169226Y-9330921D01*
G01X15168534Y-9324686D01*
G01X15167841Y-9312910D01*
G01X15167494Y-9261302D01*
G01X15167494Y-9210733D01*
G01X15200746Y-9210733D01*
G01X15200746Y-9265112D01*
G01X15201092Y-9320530D01*
G01X15201438Y-9323647D01*
G01X15202131Y-9328150D01*
G01X15203516Y-9332306D01*
G01X15205941Y-9337156D01*
G01X15207326Y-9338887D01*
G01X15210790Y-9342351D01*
G01X15213214Y-9344083D01*
G01X15215639Y-9345468D01*
G01X15217717Y-9346507D01*
G01X15220488Y-9347546D01*
G01X15223259Y-9348239D01*
G01X15228108Y-9348932D01*
G01X15232611Y-9349278D01*
G01X15237114Y-9348932D01*
G01X15239538Y-9348586D01*
G01X15242656Y-9348239D01*
G01X15248197Y-9346854D01*
G01X15251661Y-9345468D01*
G01X15254432Y-9343736D01*
G01X15256510Y-9342351D01*
G01X15258242Y-9340619D01*
G01X15260320Y-9337848D01*
G01X15262398Y-9334384D01*
G01X15263437Y-9331614D01*
G01X15264130Y-9326764D01*
G01X15264823Y-9316374D01*
G01X15265169Y-9263034D01*
G01X15265169Y-9210733D01*
G01X15297727Y-9210733D01*
G01X15297727Y-9264766D01*
G01X15297381Y-9319837D01*
G01X15296688Y-9328150D01*
G01X15295996Y-9333692D01*
G01X15295303Y-9337502D01*
G01X15294264Y-9341658D01*
G01X15293224Y-9344776D01*
G01X15292186Y-9347546D01*
G01X15290800Y-9350317D01*
G01X15289068Y-9353434D01*
G01X15286990Y-9356552D01*
G01X15284912Y-9358976D01*
G01X15283180Y-9360708D01*
G01X15281448Y-9362786D01*
G01X15279370Y-9364518D01*
G01X15277638Y-9365904D01*
G01X15275560Y-9367289D01*
G01X15272789Y-9369021D01*
G01X15269672Y-9370753D01*
G01X15266554Y-9372138D01*
G01X15260320Y-9374216D01*
G01X15256510Y-9375256D01*
G01X15253046Y-9375948D01*
G01X15247504Y-9376641D01*
G01X15233304Y-9376987D01*
G37*
G36*
G01X15369771Y-9306329D02*
G01X15369771Y-9238442D01*
G01X15321280Y-9238442D01*
G01X15321280Y-9210733D01*
G01X15450820Y-9210733D01*
G01X15450820Y-9238442D01*
G01X15403022Y-9238442D01*
G01X15403022Y-9374216D01*
G01X15369771Y-9374216D01*
G01X15369771Y-9306329D01*
G37*
G54D10*
G01X12260397Y-7831357D02*
G01X12257349Y-7825007D01*
G01X12250999Y-7818911D01*
G01X12244903Y-7815863D01*
G01X12232457Y-7815863D01*
G01X12226361Y-7818911D01*
G01X12220011Y-7825007D01*
G01X12216963Y-7831357D01*
G01X12213915Y-7840501D01*
G01X12213915Y-7855995D01*
G01X12216963Y-7865393D01*
G01X12220011Y-7871489D01*
G01X12226361Y-7877839D01*
G01X12232457Y-7880887D01*
G01X12244903Y-7880887D01*
G01X12250999Y-7877839D01*
G01X12257349Y-7871489D01*
G01X12260397Y-7865393D01*
G01X12296719Y-7815863D02*
G01X12330755Y-7815863D01*
G01X12312213Y-7840501D01*
G01X12321357Y-7840501D01*
G01X12327707Y-7843549D01*
G01X12330755Y-7846851D01*
G01X12333803Y-7855995D01*
G01X12333803Y-7862345D01*
G01X12330755Y-7871489D01*
G01X12324659Y-7877839D01*
G01X12315261Y-7880887D01*
G01X12305863Y-7880887D01*
G01X12296719Y-7877839D01*
G01X12293671Y-7874537D01*
G01X12290623Y-7868441D01*
G01X12301220Y-8325612D02*
G01X12307316Y-8322310D01*
G01X12316714Y-8313166D01*
G01X12316714Y-8378190D01*
G01X12365482Y-8313166D02*
G01X12356084Y-8316214D01*
G01X12349988Y-8325612D01*
G01X12346940Y-8340852D01*
G01X12346940Y-8350250D01*
G01X12349988Y-8365744D01*
G01X12356084Y-8375142D01*
G01X12365482Y-8378190D01*
G01X12371578Y-8378190D01*
G01X12380976Y-8375142D01*
G01X12387072Y-8365744D01*
G01X12390120Y-8350250D01*
G01X12390120Y-8340852D01*
G01X12387072Y-8325612D01*
G01X12380976Y-8316214D01*
G01X12371578Y-8313166D01*
G01X12365482Y-8313166D01*
G01X12438888Y-8313166D02*
G01X12429490Y-8316214D01*
G01X12423394Y-8325612D01*
G01X12420346Y-8340852D01*
G01X12420346Y-8350250D01*
G01X12423394Y-8365744D01*
G01X12429490Y-8375142D01*
G01X12438888Y-8378190D01*
G01X12444984Y-8378190D01*
G01X12454382Y-8375142D01*
G01X12460478Y-8365744D01*
G01X12463526Y-8350250D01*
G01X12463526Y-8340852D01*
G01X12460478Y-8325612D01*
G01X12454382Y-8316214D01*
G01X12444984Y-8313166D01*
G01X12438888Y-8313166D01*
G01X12493752Y-8334756D02*
G01X12493752Y-8378190D01*
G01X12493752Y-8347202D02*
G01X12502896Y-8337804D01*
G01X12508992Y-8334756D01*
G01X12518390Y-8334756D01*
G01X12524486Y-8337804D01*
G01X12527788Y-8347202D01*
G01X12527788Y-8378190D01*
G01X12558014Y-8313166D02*
G01X12558014Y-8378190D01*
G01X12558014Y-8313166D02*
G01X12598146Y-8313166D01*
G01X12558014Y-8344154D02*
G01X12582652Y-8344154D01*
G01X12262302Y-8496360D02*
G01X12259254Y-8490010D01*
G01X12252904Y-8483914D01*
G01X12246808Y-8480866D01*
G01X12234362Y-8480866D01*
G01X12228266Y-8483914D01*
G01X12221916Y-8490010D01*
G01X12218868Y-8496360D01*
G01X12215820Y-8505504D01*
G01X12215820Y-8520998D01*
G01X12218868Y-8530396D01*
G01X12221916Y-8536492D01*
G01X12228266Y-8542842D01*
G01X12234362Y-8545890D01*
G01X12246808Y-8545890D01*
G01X12252904Y-8542842D01*
G01X12259254Y-8536492D01*
G01X12262302Y-8530396D01*
G01X12323262Y-8480866D02*
G01X12292528Y-8524046D01*
G01X12338756Y-8524046D01*
G01X12323262Y-8480866D02*
G01X12323262Y-8545890D01*
G01X12344908Y-8948166D02*
G01X12313920Y-8991346D01*
G01X12360402Y-8991346D01*
G01X12344908Y-8948166D02*
G01X12344908Y-9013190D01*
G01X12393676Y-8997696D02*
G01X12390628Y-9000744D01*
G01X12393676Y-9003792D01*
G01X12396724Y-9000744D01*
G01X12393676Y-8997696D01*
G01X12470130Y-8948166D02*
G01X12439142Y-9013190D01*
G01X12426950Y-8948166D02*
G01X12470130Y-8948166D01*
G01X12500356Y-8969756D02*
G01X12500356Y-9000744D01*
G01X12503404Y-9010142D01*
G01X12509500Y-9013190D01*
G01X12518898Y-9013190D01*
G01X12524994Y-9010142D01*
G01X12534392Y-9000744D01*
G01X12534392Y-8969756D02*
G01X12534392Y-9013190D01*
G01X12564618Y-8948166D02*
G01X12564618Y-9013190D01*
G01X12564618Y-8948166D02*
G01X12604750Y-8948166D01*
G01X12564618Y-8979154D02*
G01X12589256Y-8979154D01*
G04 Text End*

G04 PolygonModel Start*
G54D11*
G01X12385670Y-7949296D02*
G01X12527920Y-7949296D01*
G01X12385670Y-8221297D02*
G01X12527920Y-8221297D01*
G01X12387575Y-8614300D02*
G01X12529825Y-8614300D01*
G01X12387575Y-8886300D02*
G01X12529825Y-8886300D01*
G54D12*
G01X12090400Y-9410697D02*
G01X11836400Y-9410697D01*
G01X11836400Y-9410697D02*
G01X11836400Y-7378703D01*
G01X11836400Y-7378703D02*
G01X12090400Y-7378703D01*
G01X12090400Y-7378703D02*
G01X12090400Y-9410697D01*
G01X12090400Y-7635052D02*
G01X11836400Y-7635052D01*
G01X16033516Y-8635987D02*
G01X16126043Y-8100360D01*
G01X16394554Y-8635987D02*
G01X15681805Y-8635987D01*
G01X16394554Y-8100360D02*
G01X15681805Y-8102366D01*
G01X15681805Y-8044302D02*
G01X15681805Y-8694303D01*
G01X15681805Y-8694303D02*
G01X15529405Y-8694303D01*
G01X16394554Y-8635987D02*
G01X16450000Y-8635987D01*
G01X16394554Y-8100360D02*
G01X16448938Y-8100360D01*
G01X16448938Y-8100360D02*
G01X16450000Y-8099301D01*
G01X16450000Y-8099301D02*
G01X16450000Y-8637300D01*
G01X15681805Y-8044302D02*
G01X15529405Y-8044302D01*
G01X15529405Y-8044302D02*
G01X15529405Y-8686797D01*
G01X16394554Y-8100360D02*
G01X16394554Y-8635987D01*
G01X16307473Y-8635987D02*
G01X16394554Y-8100360D01*
G01X16307473Y-8100360D02*
G01X16307473Y-8635987D01*
G01X16218573Y-8635987D02*
G01X16307473Y-8100360D01*
G01X16218573Y-8100360D02*
G01X16218573Y-8635987D01*
G01X16126043Y-8635987D02*
G01X16218573Y-8100360D01*
G01X16126043Y-8100360D02*
G01X16126043Y-8635987D01*
G01X16033516Y-8100360D02*
G01X16033516Y-8635987D01*
G01X14859409Y-9068803D02*
G01X14873511Y-9069311D01*
G01X14858683Y-7669317D02*
G01X14873511Y-7669317D01*
G01X14073505Y-9069311D02*
G01X14423504Y-9069311D01*
G01X14073505Y-7669317D02*
G01X14423504Y-7669317D01*
G01X14873511Y-9069311D02*
G01X14873511Y-7669317D01*
G01X12873510Y-7669317D02*
G01X13003510Y-7669317D01*
G01X12873510Y-9069311D02*
G01X13003510Y-9069311D01*
G01X12873502Y-9069311D02*
G01X12873510Y-7669317D01*

G04 Circle Start*
G54D13*
G01X14856524Y-7619301D02*
G03X14890509Y-7619301I16993J0D01*
G03X14856524Y-7619301I-16993J0D01*
G04 Circle End*

M02*

